<svg width="20" height="20" viewBox="0 0 20 20" fill="none" xmlns="http://www.w3.org/2000/svg">
<g clip-path="url(#clip0_398_84)">
<path d="M14.5833 5.41675H14.5917M5.83334 1.66675H14.1667C16.4679 1.66675 18.3333 3.53223 18.3333 5.83341V14.1667C18.3333 16.4679 16.4679 18.3334 14.1667 18.3334H5.83334C3.53215 18.3334 1.66667 16.4679 1.66667 14.1667V5.83341C1.66667 3.53223 3.53215 1.66675 5.83334 1.66675ZM13.3333 9.47508C13.4362 10.1686 13.3177 10.8769 12.9948 11.4993C12.6719 12.1216 12.161 12.6263 11.5347 12.9415C10.9084 13.2567 10.1987 13.3664 9.50649 13.255C8.81428 13.1436 8.17481 12.8168 7.67904 12.321C7.18327 11.8253 6.85645 11.1858 6.74506 10.4936C6.63367 9.80137 6.74339 9.09166 7.05861 8.46539C7.37383 7.83913 7.87849 7.3282 8.50083 7.00528C9.12316 6.68237 9.83147 6.5639 10.525 6.66675C11.2324 6.77165 11.8874 7.1013 12.3931 7.607C12.8988 8.11271 13.2284 8.76765 13.3333 9.47508Z" stroke="#2B0830" stroke-width="2" stroke-linecap="round" stroke-linejoin="round"/>
</g>
<defs>
<clipPath id="clip0_398_84">
<rect width="20" height="20" fill="white"/>
</clipPath>
</defs>
</svg>
