<svg width="157" height="146" viewBox="0 0 157 146" fill="none" xmlns="http://www.w3.org/2000/svg">
<g filter="url(#filter0_i_90_1654)">
<path d="M0.0303287 85.2726C-0.00643187 81.272 0.885495 77.7377 2.22048 74.2865C3.4123 71.2049 5.09361 68.3882 6.83877 65.6064C11.7666 57.7523 16.739 49.9253 21.6068 42.0344C23.9827 38.1828 26.2251 34.2442 28.4191 30.2843C30.441 26.6358 32.0584 22.7977 33.256 18.7952C34.088 16.0115 34.4324 13.1736 34.0435 10.2737C33.6933 7.66795 32.7511 5.30398 31.1336 3.21859C30.528 2.43898 29.9457 1.64196 29.3652 0.843013C29.2453 0.676645 29.1679 0.469653 29.1137 0.268465C29.0944 0.198822 29.1814 0.0537345 29.2569 0.0150444C29.3285 -0.0197767 29.4774 0.0092409 29.5394 0.0672761C29.7135 0.225906 29.8644 0.407749 30.0153 0.589593C32.486 3.53778 34.8 6.60204 36.9495 9.79204C39.4705 13.5334 41.8619 17.3521 44.0056 21.3217C46.0081 25.0321 47.672 28.8914 48.7767 32.9713C49.1018 34.1707 49.2682 35.401 49.363 36.6488C49.5545 39.1308 48.945 41.4444 48.0821 43.731C46.7297 47.3137 44.7834 50.5695 42.5874 53.6802C39.2674 58.3791 35.8893 63.0354 32.5499 67.7208C30.381 70.7638 28.3166 73.8764 26.5753 77.1902C24.6057 80.9412 22.9399 84.8141 21.8487 88.9249C20.8387 92.732 20.9142 96.5043 21.9261 100.3C23.2049 105.092 25.5034 109.33 28.6532 113.135C29.7328 114.441 30.7892 115.766 31.8359 117.097C32.0991 117.432 32.3119 117.813 32.5054 118.194C32.7008 118.579 32.5692 118.832 32.1145 118.829C31.5651 118.825 30.9808 118.798 30.4739 118.614C29.2259 118.159 27.9993 117.641 26.7901 117.089C22.0634 114.932 17.6289 112.292 13.5621 109.048C9.80863 106.053 6.52727 102.633 4.00047 98.5259C2.36752 95.8737 1.13895 93.0512 0.529498 89.985C0.202523 88.3446 -0.0838225 86.6925 0.0225896 85.2784L0.0303287 85.2726Z" fill="#F9DFF6"/>
</g>
<g filter="url(#filter1_i_90_1654)">
<path d="M68.5213 42.616C68.5464 47.3923 67.5191 51.95 65.8493 56.3858C64.3751 60.3032 62.4016 63.9555 60.0025 67.3796C58.4992 69.523 57.0616 71.7206 55.4442 73.7732C53.7745 75.8934 51.9365 77.882 50.1429 79.9036C46.3895 84.1382 42.4774 88.2355 38.929 92.652C36.5183 95.6505 34.2508 98.7534 32.4824 102.181C31.9155 103.282 31.5189 104.472 31.0739 105.633C30.7972 106.356 30.5302 107.08 30.0543 107.702C29.9498 107.838 29.8472 107.977 29.7292 108.101C29.3094 108.544 28.9534 108.554 28.5258 108.109C27.9783 107.54 27.6474 106.844 27.4269 106.093C27.0225 104.71 26.7594 103.294 26.6549 101.86C26.5427 100.322 26.4266 98.7766 26.4595 97.2387C26.5214 94.3486 26.6084 91.4526 27.0999 88.5915C27.4597 86.4925 28.0518 84.4574 28.7928 82.461C30.3116 78.3695 32.434 74.6031 34.9492 71.0494C38.1106 66.5826 41.272 62.1139 44.4508 57.6587C46.9815 54.1128 49.0788 50.3327 50.6595 46.2722C51.9074 43.0667 52.8806 39.78 53.5133 36.3966C53.9989 33.8024 54.4091 31.1985 54.5871 28.5638C54.6587 27.5172 54.7999 26.4687 54.7748 25.424C54.7012 22.4681 54.6064 19.5122 53.8732 16.6162C53.076 13.4611 51.6346 10.6406 49.6147 8.10635C49.1736 7.55308 48.7015 7.02496 48.2449 6.4833C48.1211 6.33628 47.9702 6.19893 47.887 6.03063C47.8212 5.89715 47.769 5.67081 47.8367 5.57602C47.9818 5.3729 48.2178 5.42513 48.4074 5.56248C48.51 5.63792 48.5893 5.74239 48.6783 5.83718C49.9204 7.17199 51.1645 8.50486 52.4027 9.84354C55.0824 12.7414 57.8336 15.5755 60.4165 18.5566C63.7134 22.3617 65.9151 26.7782 67.1553 31.6648C67.6371 33.5606 67.9447 35.4873 68.1382 37.4296C68.3104 39.1552 68.3974 40.8904 68.5213 42.6218V42.616Z" fill="#F9DFF6"/>
</g>
<g filter="url(#filter2_i_90_1654)">
<path d="M72.7451 45.6601C73.2191 45.5982 73.3158 45.9077 73.4048 46.1863C73.6989 47.1052 73.9852 48.0279 74.2561 48.9526C75.0107 51.5352 75.4402 54.1777 75.6395 56.8589C75.7227 57.9693 75.8252 59.0778 75.8832 60.1902C75.9839 62.1517 75.7749 64.0882 75.3531 66.0034C74.8423 68.3306 74.3374 70.6674 73.2849 72.8225C72.5226 74.3817 71.6751 75.9022 70.8084 77.4073C68.7633 80.9532 66.31 84.2013 63.5027 87.1804C62.3708 88.3817 61.2506 89.5985 60.0878 90.7708C58.2285 92.6454 56.3112 94.4638 54.4693 96.3558C52.2404 98.6462 50.0677 100.991 48.218 103.612C46.5522 105.972 45.1398 108.472 44.0931 111.162C43.2825 113.244 43.0445 115.397 43.6114 117.597C43.6443 117.72 43.6559 117.85 43.6791 117.976C43.7178 118.181 43.7042 118.403 43.4817 118.456C43.3211 118.494 43.0638 118.471 42.9632 118.367C42.5511 117.935 42.079 117.513 41.8159 116.995C40.5486 114.494 39.6257 111.869 39.2852 109.069C39.024 106.91 39.0086 104.746 39.3375 102.593C39.7709 99.7605 40.8814 97.1876 42.5763 94.8971C43.6191 93.4869 44.7916 92.1695 45.9292 90.8308C47.6221 88.8363 49.3209 86.8477 51.0447 84.8783C52.0469 83.7331 53.1091 82.6401 54.1346 81.5142C56.0538 79.4056 58.0021 77.3202 59.8692 75.1671C61.7788 72.9637 63.6478 70.7216 65.4587 68.437C67.0743 66.398 68.4596 64.1965 69.6282 61.8712C71.1082 58.9269 72.2362 55.853 72.8689 52.6108C73.1011 51.4249 73.103 50.2217 73.0082 49.0223C72.9269 47.9989 72.8012 46.9775 72.6986 45.9561C72.6909 45.8748 72.7199 45.7916 72.7393 45.664L72.7451 45.6601Z" fill="#F9DFF6"/>
</g>
<path fill-rule="evenodd" clip-rule="evenodd" d="M121.929 94.7922C123.657 94.0049 125.46 93.5901 127.364 93.6907C128.906 93.7719 130.38 94.1094 131.682 94.9973C133.025 95.9142 133.894 97.1944 134.474 98.6877C134.641 99.1133 134.564 99.2775 134.092 99.4768C133.481 99.736 132.856 99.9645 132.237 100.206C131.517 100.487 130.801 100.777 130.076 101.04C129.529 101.239 129.401 101.195 129.056 100.711C128.549 99.9995 127.82 99.6529 127.005 99.4905C125.961 99.2816 124.956 99.4399 124.02 99.9699C123.198 100.436 122.724 101.149 122.594 102.073C122.238 104.6 121.886 107.126 121.555 109.655C121.35 111.229 122.144 112.198 123.736 112.361C125.272 112.515 126.574 112.081 127.538 110.812C127.874 110.369 128.03 110.328 128.521 110.568C129.796 111.185 131.065 111.812 132.331 112.45C132.819 112.698 132.86 112.86 132.532 113.299C130.895 115.485 128.876 117.176 126.183 117.874C125.346 118.091 124.446 118.073 123.576 118.162C123.574 118.135 123.57 118.108 123.568 118.081L123.566 118.079C123.028 118.079 122.488 118.126 121.956 118.072C119.808 117.855 118.022 116.911 116.626 115.271C115.556 114.015 115.136 112.504 115.269 110.895C115.428 108.974 115.715 107.062 115.962 105.151C116.094 104.131 116.266 103.116 116.415 102.099C116.918 98.6554 118.77 96.2315 121.929 94.7922ZM64.1949 93.8762C65.317 93.9323 66.4449 93.8764 67.5689 93.8957C68.4085 93.9093 68.6136 94.0836 68.7935 94.9094C69.1534 96.5653 69.4981 98.2233 69.8502 99.8811C71.0671 105.586 72.2855 111.291 73.5025 116.996C73.5161 117.058 73.5397 117.12 73.5513 117.184C73.648 117.741 73.5358 117.894 72.9752 117.902C72.0949 117.913 71.2139 117.905 70.3336 117.905V117.909L70.3316 117.913C69.5365 117.913 68.7429 117.915 67.9478 117.913C67.1375 117.909 66.9522 117.748 66.8033 116.932C66.6253 115.961 66.4471 114.992 66.2691 114.021C66.1202 113.205 66.0058 113.108 65.1646 113.106C63.8142 113.104 62.4613 113.125 61.1109 113.098C60.4473 113.084 60.0294 113.311 59.776 113.953C59.3503 115.029 58.841 116.071 58.398 117.141C58.1717 117.69 57.816 117.93 57.2164 117.92C55.5834 117.897 53.9519 117.913 52.3189 117.913C52.2126 117.913 52.102 117.919 51.9976 117.905C51.6361 117.859 51.5122 117.69 51.6031 117.33C51.6495 117.145 51.7348 116.967 51.8179 116.795C52.9246 114.518 54.0374 112.245 55.1422 109.966C57.133 105.853 59.1201 101.739 61.107 97.6242C61.5075 96.7943 61.9037 95.9599 62.2984 95.1242C62.6776 94.3234 63.2198 93.8278 64.1949 93.8762ZM83.7486 93.8987C85.1607 93.8658 86.5728 93.8818 87.981 93.9553C89.7919 94.0501 91.5003 94.4701 92.9166 95.7004C94.414 97.0004 95.1132 98.6888 95.2545 100.621C95.3802 102.329 95.2135 104.003 94.5054 105.595C93.6522 107.514 92.246 108.905 90.4293 109.913C89.0459 110.681 87.5365 110.962 85.9771 111.006C84.9479 111.035 83.9165 111.01 82.8853 111.014C82.1656 111.018 82.067 111.101 81.9703 111.791C81.74 113.424 81.5111 115.059 81.2828 116.692C81.2596 116.862 81.2404 117.032 81.2056 117.2C81.0953 117.723 80.9037 117.897 80.3756 117.906C79.5826 117.92 78.7877 117.91 77.9927 117.91H75.8043C74.9666 117.908 74.8289 117.754 74.9429 116.91C75.0648 116.019 75.2117 115.13 75.3336 114.239C75.7553 111.161 76.1657 108.081 76.5914 105.005C77.0635 101.589 77.5432 98.1724 78.023 94.758C78.1217 94.0577 78.2749 93.9142 78.983 93.9084C80.5714 93.8988 82.1621 93.9354 83.7486 93.8987ZM112.56 82.1877C116.561 82.2109 120.524 82.6176 124.436 83.4514C126.282 83.8441 128.128 84.2603 129.935 84.7961C133.108 85.7402 135.927 87.3398 138.337 89.634C140.522 91.7136 142.362 94.047 143.47 96.8752C143.969 98.148 144.285 99.4925 144.685 100.804C144.776 101.099 144.757 101.445 145.092 101.697C145.217 101.54 145.346 101.406 145.446 101.254C146.7 99.3043 147.947 97.3504 149.199 95.3987C149.477 94.9654 149.737 94.5028 150.214 94.259C150.495 94.1159 150.811 93.965 151.117 93.9553C152.79 93.9031 154.464 93.884 156.139 93.8821C156.416 93.882 156.793 93.811 156.948 94.1321C157.112 94.4704 156.849 94.7353 156.666 95.0002C154.297 98.3992 151.935 101.804 149.555 105.196C149.176 105.735 149.085 106.22 149.362 106.859C150.778 110.126 152.151 113.413 153.535 116.696C153.633 116.932 153.727 117.175 153.775 117.427C153.823 117.673 153.703 117.845 153.43 117.863C153.258 117.872 153.088 117.874 152.916 117.874H147.889C146.932 117.874 146.804 117.781 146.477 116.899C145.748 114.927 145.016 112.956 144.279 110.987C144.186 110.739 144.047 110.509 143.869 110.148C143.656 110.436 143.509 110.61 143.391 110.797C142.062 112.902 140.723 115.003 139.417 117.121C139.09 117.651 138.713 117.898 138.067 117.885C136.306 117.846 134.543 117.872 132.783 117.872C132.632 117.872 132.481 117.882 132.332 117.863C132.028 117.822 131.928 117.652 132.049 117.365C132.107 117.23 132.206 117.109 132.292 116.988C134.634 113.649 136.967 110.304 139.328 106.977C139.833 106.265 139.877 105.597 139.531 104.81C138.691 102.906 137.883 100.989 137.089 99.0686C136.374 97.3372 135.296 95.8608 134.069 94.4621C133.121 93.3829 131.904 92.7348 130.685 92.052C127.506 90.2724 124.183 88.8501 120.675 87.8635C118.276 87.1903 115.843 86.6607 113.382 86.2912C110.755 85.8986 108.12 85.5308 105.479 85.2541C103.479 85.0452 101.461 84.9894 99.4488 84.8772C98.4215 84.8191 97.3921 84.7821 96.3648 84.7492C96.096 84.7415 95.8947 84.6797 95.8443 84.3918C95.7921 84.096 95.9215 83.8696 96.1978 83.7844C96.5653 83.6722 96.9486 83.5962 97.3277 83.5285C100.201 83.012 103.096 82.6639 106.005 82.426C108.188 82.248 110.372 82.1761 112.56 82.1877ZM113.742 94.178C114.738 94.178 114.816 94.2627 114.708 95.2532C114.574 96.468 114.435 97.6809 114.292 98.8938C114.224 99.4703 114.096 99.5804 113.515 99.592C111.842 99.621 110.17 99.6576 108.497 99.675C107.171 99.6886 105.846 99.6673 104.519 99.675C103.916 99.6789 103.759 99.8031 103.679 100.405C103.584 101.126 103.519 101.852 103.478 102.579C103.438 103.293 103.612 103.469 104.318 103.475C105.779 103.485 107.239 103.479 108.7 103.481C109.752 103.481 110.805 103.477 111.857 103.485C112.544 103.49 112.72 103.657 112.643 104.331C112.512 105.502 112.345 106.669 112.17 107.833C112.085 108.41 112.022 108.447 111.407 108.447C109.002 108.45 106.595 108.45 104.19 108.452H103.61C102.817 108.462 102.575 108.682 102.462 109.443C102.379 110.015 102.285 110.586 102.174 111.153C101.985 112.128 102.147 112.331 103.163 112.333C105.461 112.337 107.76 112.337 110.056 112.339C110.594 112.339 111.13 112.333 111.668 112.343C112.25 112.353 112.337 112.432 112.273 113.041C112.192 113.807 112.062 114.569 111.952 115.333C111.88 115.821 111.8 116.307 111.734 116.794C111.645 117.457 111.503 117.597 110.82 117.599C108.802 117.605 106.782 117.603 104.764 117.605H103.606V117.609L103.608 117.613H96.3267C95.8568 117.589 95.7482 117.49 95.8023 117.018C95.8816 116.316 96.0025 115.617 96.1011 114.917C96.5461 111.776 96.9872 108.634 97.4342 105.492C97.8656 102.459 98.3064 99.426 98.7379 96.3928C98.8017 95.9499 98.8245 95.5008 98.8922 95.0578C98.9986 94.3713 99.2117 94.1966 99.9117 94.1965C102.787 94.1965 105.663 94.2023 108.536 94.1985C110.271 94.1985 112.006 94.1799 113.742 94.178ZM64.7672 101.396C64.3609 101.912 62.4958 106.956 62.5074 107.521C62.7027 107.546 62.9079 107.59 63.1129 107.594C63.67 107.606 64.2295 107.606 64.7867 107.596C65.3768 107.586 65.4424 107.515 65.3824 106.9C65.2412 105.472 65.0909 104.046 64.9381 102.618C64.9168 102.422 64.8894 102.226 64.8599 102.025L64.7672 101.396ZM85.6051 99.8088C85.6051 99.8224 85.606 99.8363 85.6041 99.8498C85.1958 99.8498 84.7887 99.8479 84.3804 99.8498C83.6862 99.8557 83.6166 99.916 83.5025 100.583C83.3903 101.237 83.2604 101.889 83.1715 102.546C83.0825 103.204 83.0052 103.866 82.9761 104.528C82.9511 105.112 83.135 105.291 83.7076 105.372C83.8546 105.394 84.0078 105.39 84.1568 105.392C84.8009 105.394 85.4433 105.396 86.0875 105.392C87.2773 105.388 88.1671 104.858 88.6334 103.771C88.8732 103.212 89.0264 102.585 89.0748 101.978C89.1618 100.891 88.589 100.156 87.523 99.9524C86.8981 99.8344 86.2474 99.8514 85.607 99.8069L85.6051 99.8088Z" fill="#F9DFF6"/>
<path d="M53.8219 134.722C55.3688 133.649 56.6231 132.75 57.5847 132.026C58.5602 131.287 59.4034 130.534 60.1141 129.768C60.8249 129.001 61.236 128.291 61.3475 127.636C61.3753 127.413 61.3893 127.259 61.3893 127.176C61.3893 126.549 61.0757 126.235 60.4486 126.235C60.0444 126.235 59.7169 126.388 59.4661 126.695C59.2152 127.002 59.0201 127.517 58.8808 128.242H54.9089C55.2992 126.402 56.0865 125.037 57.2711 124.145C58.4557 123.239 59.8145 122.786 61.3475 122.786C62.8386 122.786 63.9326 123.113 64.6294 123.768C65.3262 124.423 65.6746 125.28 65.6746 126.34C65.6746 126.674 65.6468 126.981 65.591 127.259C65.3402 128.625 64.6294 129.921 63.4588 131.148C62.3021 132.36 60.9154 133.468 59.2988 134.471H64.5249L63.9396 137.795H53.2784L53.8219 134.722ZM66.5806 130.395C66.9986 128.096 67.8139 126.27 69.0264 124.918C70.2388 123.566 71.8902 122.89 73.9807 122.89C75.6948 122.89 76.9491 123.357 77.7434 124.291C78.5517 125.211 78.9559 126.486 78.9559 128.116C78.9559 128.883 78.8862 129.642 78.7469 130.395C78.3427 132.694 77.5274 134.527 76.301 135.893C75.0747 137.245 73.4232 137.921 71.3467 137.921C69.6326 137.921 68.3714 137.461 67.5631 136.541C66.7687 135.621 66.3715 134.339 66.3715 132.694C66.3715 131.942 66.4412 131.175 66.5806 130.395ZM74.6914 130.395C74.8168 129.642 74.8796 129.064 74.8796 128.66C74.8796 128.061 74.7611 127.594 74.5242 127.259C74.2873 126.925 73.8831 126.758 73.3117 126.758C72.4895 126.758 71.8833 127.078 71.4931 127.719C71.1028 128.36 70.8102 129.252 70.6151 130.395C70.4897 131.148 70.4269 131.733 70.4269 132.151C70.4269 132.75 70.5454 133.217 70.7823 133.552C71.0192 133.886 71.4303 134.053 72.0157 134.053C72.8379 134.053 73.4302 133.74 73.7925 133.113C74.1688 132.471 74.4684 131.566 74.6914 130.395ZM79.4623 134.722C81.0093 133.649 82.2635 132.75 83.2251 132.026C84.2006 131.287 85.0438 130.534 85.7545 129.768C86.4653 129.001 86.8764 128.291 86.9879 127.636C87.0157 127.413 87.0297 127.259 87.0297 127.176C87.0297 126.549 86.7161 126.235 86.089 126.235C85.6848 126.235 85.3573 126.388 85.1065 126.695C84.8556 127.002 84.6605 127.517 84.5212 128.242H80.5494C80.9396 126.402 81.727 125.037 82.9115 124.145C84.0961 123.239 85.4549 122.786 86.9879 122.786C88.479 122.786 89.573 123.113 90.2699 123.768C90.9667 124.423 91.3151 125.28 91.3151 126.34C91.3151 126.674 91.2872 126.981 91.2314 127.259C90.9806 128.625 90.2699 129.921 89.0992 131.148C87.9425 132.36 86.5559 133.468 84.9393 134.471H90.1653L89.58 137.795H78.9188L79.4623 134.722ZM100.06 127.113C100.046 126.639 99.9486 126.291 99.7674 126.068C99.5863 125.845 99.2866 125.733 98.8685 125.733C98.1996 125.733 97.677 126.047 97.3007 126.674C96.9244 127.287 96.6248 128.242 96.4018 129.538C96.7642 129.106 97.231 128.764 97.8024 128.514C98.3738 128.263 98.98 128.137 99.6211 128.137C100.778 128.137 101.691 128.451 102.36 129.078C103.028 129.691 103.363 130.583 103.363 131.754C103.363 132.13 103.321 132.541 103.238 132.987C102.959 134.548 102.262 135.795 101.147 136.729C100.046 137.649 98.6734 138.109 97.029 138.109C95.3427 138.109 94.1372 137.698 93.4125 136.875C92.6878 136.053 92.3255 134.875 92.3255 133.342C92.3255 132.548 92.43 131.559 92.6391 130.374C93.1129 127.643 93.9073 125.636 95.0221 124.354C96.137 123.072 97.684 122.43 99.6629 122.43C101.126 122.43 102.199 122.814 102.882 123.58C103.579 124.333 103.927 125.294 103.927 126.465C103.927 126.59 103.913 126.806 103.886 127.113H100.06ZM98.0533 131.315C97.5098 131.315 97.0429 131.496 96.6527 131.858C96.2625 132.207 96.0674 132.701 96.0674 133.342C96.0674 133.761 96.1928 134.081 96.4436 134.304C96.6945 134.513 97.0499 134.618 97.5098 134.618C98.0115 134.618 98.4226 134.478 98.7431 134.2C99.0776 133.907 99.2936 133.496 99.3911 132.966C99.419 132.771 99.433 132.632 99.433 132.548C99.433 132.158 99.3145 131.858 99.0776 131.649C98.8407 131.426 98.4992 131.315 98.0533 131.315Z" fill="#F9DFF6"/>
<defs>
<filter id="filter0_i_90_1654" x="0" y="0" width="50.4168" height="120.866" filterUnits="userSpaceOnUse" color-interpolation-filters="sRGB">
<feFlood flood-opacity="0" result="BackgroundImageFix"/>
<feBlend mode="normal" in="SourceGraphic" in2="BackgroundImageFix" result="shape"/>
<feColorMatrix in="SourceAlpha" type="matrix" values="0 0 0 0 0 0 0 0 0 0 0 0 0 0 0 0 0 0 127 0" result="hardAlpha"/>
<feOffset dx="1.01852" dy="2.03705"/>
<feGaussianBlur stdDeviation="2.03705"/>
<feComposite in2="hardAlpha" operator="arithmetic" k2="-1" k3="1"/>
<feColorMatrix type="matrix" values="0 0 0 0 0 0 0 0 0 0.941176 0 0 0 0 1 0 0 0 0.07 0"/>
<feBlend mode="plus-lighter" in2="shape" result="effect1_innerShadow_90_1654"/>
</filter>
<filter id="filter1_i_90_1654" x="26.4538" y="5.44116" width="43.0865" height="105.034" filterUnits="userSpaceOnUse" color-interpolation-filters="sRGB">
<feFlood flood-opacity="0" result="BackgroundImageFix"/>
<feBlend mode="normal" in="SourceGraphic" in2="BackgroundImageFix" result="shape"/>
<feColorMatrix in="SourceAlpha" type="matrix" values="0 0 0 0 0 0 0 0 0 0 0 0 0 0 0 0 0 0 127 0" result="hardAlpha"/>
<feOffset dx="1.01852" dy="2.03705"/>
<feGaussianBlur stdDeviation="2.03705"/>
<feComposite in2="hardAlpha" operator="arithmetic" k2="-1" k3="1"/>
<feColorMatrix type="matrix" values="0 0 0 0 0 0 0 0 0 0.941176 0 0 0 0 1 0 0 0 0.07 0"/>
<feBlend mode="plus-lighter" in2="shape" result="effect1_innerShadow_90_1654"/>
</filter>
<filter id="filter2_i_90_1654" x="39.0898" y="45.6521" width="37.8369" height="74.8581" filterUnits="userSpaceOnUse" color-interpolation-filters="sRGB">
<feFlood flood-opacity="0" result="BackgroundImageFix"/>
<feBlend mode="normal" in="SourceGraphic" in2="BackgroundImageFix" result="shape"/>
<feColorMatrix in="SourceAlpha" type="matrix" values="0 0 0 0 0 0 0 0 0 0 0 0 0 0 0 0 0 0 127 0" result="hardAlpha"/>
<feOffset dx="1.01852" dy="2.03705"/>
<feGaussianBlur stdDeviation="2.03705"/>
<feComposite in2="hardAlpha" operator="arithmetic" k2="-1" k3="1"/>
<feColorMatrix type="matrix" values="0 0 0 0 0 0 0 0 0 0.941176 0 0 0 0 1 0 0 0 0.07 0"/>
<feBlend mode="plus-lighter" in2="shape" result="effect1_innerShadow_90_1654"/>
</filter>
</defs>
</svg>
