<svg width="257" height="200" viewBox="0 0 257 200" fill="none" xmlns="http://www.w3.org/2000/svg">
<g filter="url(#filter0_i_826_1989)">
<path d="M60.1193 163.506C67.0684 152.042 76.2168 142.646 86.7245 134.485C96.0033 127.277 106.089 121.437 116.858 116.768C123.603 113.847 130.27 110.701 137.155 108.165C144.264 105.545 151.584 103.486 158.845 101.283C174.047 96.6638 189.427 92.6061 204.404 87.2505C214.577 83.6168 224.56 79.5229 233.824 73.9183C236.797 72.1172 239.493 69.8531 242.262 67.7296C243.986 66.4048 245.687 65.0659 247.741 64.2745C248.19 64.104 248.639 63.9213 249.104 63.7984C250.759 63.3551 251.626 63.8548 251.997 65.5473C252.473 67.7122 252.243 69.8643 251.67 71.9841C250.608 75.8874 249.16 79.6619 247.307 83.245C245.318 87.0895 243.328 90.9581 240.992 94.5895C236.603 101.414 232.144 108.215 226.769 114.338C222.827 118.832 218.423 122.831 213.719 126.52C204.078 134.078 193.468 139.973 182.231 144.782C168.106 150.826 153.979 156.875 139.829 162.866C128.566 167.633 117.997 173.597 108.253 180.991C100.561 186.828 93.4075 193.262 86.9273 200.428C81.9576 205.922 77.1542 211.549 72.8614 217.592C71.1541 219.991 69.2773 222.292 67.8045 224.828C63.6426 232.009 59.5317 239.22 57.0376 247.226C54.316 255.946 53.6281 264.811 54.7456 273.841C54.9899 275.812 55.3452 277.769 55.6436 279.736C55.7243 280.27 55.8841 280.82 55.8363 281.345C55.7979 281.761 55.5909 282.379 55.2896 282.506C54.6441 282.779 54.1555 282.307 53.9031 281.7C53.7683 281.369 53.7317 281.003 53.6577 280.645C52.6424 275.627 51.6197 270.611 50.6193 265.59C48.4559 254.721 46.0273 243.9 44.2176 232.974C41.9078 219.028 43.1171 205.227 47.3188 191.714C48.9474 186.471 51.0384 181.409 53.4254 176.478C55.5454 172.097 57.8835 167.817 60.1278 163.493L60.1193 163.506Z" fill="url(#paint0_linear_826_1989)"/>
</g>
<path d="M52.0904 265.296L52.0899 265.297C49.9167 254.38 47.5018 243.624 45.6972 232.729C43.4288 219.032 44.6126 205.468 48.7507 192.16L48.7512 192.159C50.3532 187.001 52.4138 182.01 54.7753 177.132L54.7758 177.131C56.8754 172.792 59.1768 168.581 61.4324 164.237C68.2613 152.986 77.2589 143.735 87.6442 135.669L87.645 135.67C96.5302 128.768 106.169 123.13 116.457 118.581L117.454 118.145C124.259 115.198 130.84 112.089 137.673 109.573L137.674 109.572C142.965 107.622 148.366 105.988 153.816 104.358L159.281 102.718C173.937 98.2648 188.92 94.29 203.499 89.1626L204.909 88.6628C215.118 85.0162 225.21 80.8828 234.601 75.2017L234.602 75.2009C237.668 73.3434 240.477 70.9884 243.174 68.9201L243.176 68.919C244.941 67.5633 246.464 66.3759 248.274 65.6771C248.769 65.4888 249.12 65.3457 249.487 65.2485L249.722 65.1921C250.075 65.1198 250.223 65.1501 250.26 65.1612C250.295 65.1975 250.42 65.3589 250.531 65.8682L250.532 65.8695L250.601 66.2179C250.894 67.8445 250.746 69.5043 250.318 71.2236L250.222 71.5924C249.187 75.3978 247.777 79.0721 245.975 82.5558C243.979 86.4139 242.021 90.2173 239.731 93.7782C235.612 100.18 231.485 106.48 226.624 112.21L225.642 113.349C221.774 117.758 217.441 121.695 212.793 125.339C203.275 132.801 192.785 138.634 181.641 143.403C167.516 149.447 153.39 155.494 139.244 161.484C127.877 166.295 117.198 172.32 107.347 179.796C100.073 185.315 93.2688 191.37 87.0504 198.073L85.815 199.422C80.8288 204.934 75.9814 210.611 71.6395 216.722C70.0105 219.011 68.0255 221.461 66.5074 224.075L66.5069 224.076L64.9504 226.773C61.459 232.866 58.0874 239.149 55.8493 246.015L55.6059 246.78C53.3357 254.053 52.4483 261.424 52.813 268.892C52.572 267.694 52.3292 266.495 52.0904 265.296Z" stroke="#430D4B" stroke-width="3"/>
<g filter="url(#filter1_i_826_1989)">
<path d="M70.5549 95.4859C77.504 84.0212 86.6524 74.6253 97.16 66.4643C106.439 59.2568 116.524 53.4165 127.293 48.7474C134.038 45.8269 140.706 42.6801 147.59 40.1447C154.7 37.5241 162.019 35.4653 169.28 33.2626C184.482 28.6433 199.862 24.5855 214.84 19.2299C225.012 15.5962 234.995 11.5023 244.26 5.89769C247.233 4.09663 249.928 1.83256 252.697 -0.291004C254.421 -1.61573 256.122 -2.95469 258.176 -3.74606C258.625 -3.9166 259.075 -4.09924 259.539 -4.22213C261.195 -4.66545 262.061 -4.16578 262.432 -2.47327C262.909 -0.308342 262.679 1.84377 262.105 3.96355C261.044 7.86679 259.596 11.6413 257.742 15.2245C255.754 19.0689 253.764 22.9376 251.428 26.5689C247.038 33.393 242.58 40.1939 237.204 46.3178C233.263 50.8112 228.858 54.8109 224.154 58.4992C214.513 66.0579 203.904 71.9525 192.667 76.7612C178.542 82.8054 164.414 88.8543 150.265 94.8452C139.001 99.6126 128.432 105.577 118.689 112.97C110.997 118.807 103.843 125.242 97.3629 132.408C92.3931 137.901 87.5898 143.529 83.297 149.571C81.5897 151.97 79.7128 154.271 78.24 156.808C74.0782 163.988 69.9673 171.2 67.4732 179.205C64.7515 187.925 64.0637 196.79 65.1811 205.82C65.4254 207.792 65.7807 209.749 66.0791 211.715C66.1599 212.249 66.3196 212.799 66.2719 213.324C66.2335 213.74 66.0264 214.358 65.7252 214.486C65.0796 214.759 64.5911 214.287 64.3387 213.68C64.2039 213.349 64.1672 212.982 64.0932 212.625C63.0779 207.607 62.0552 202.591 61.0549 197.569C58.8914 186.7 56.4629 175.879 54.6531 164.953C52.3433 151.007 53.5527 137.207 57.7543 123.694C59.383 118.45 61.4739 113.389 63.861 108.457C65.981 104.076 68.319 99.7963 70.5634 95.472L70.5549 95.4859Z" fill="url(#paint1_linear_826_1989)"/>
</g>
<path d="M62.5259 197.276L62.5254 197.277C60.3523 186.359 57.9374 175.603 56.1328 164.708C53.8643 151.012 55.0482 137.448 59.1863 124.139L59.1868 124.138C60.7887 118.981 62.8494 113.99 65.2108 109.111L65.2113 109.111C67.311 104.771 69.6123 100.561 71.8679 96.2164C78.6968 84.9658 87.6945 75.7146 98.0797 67.6487L98.0806 67.6492C106.966 60.7475 116.604 55.109 126.892 50.5604L127.89 50.124C134.694 47.1775 141.276 44.0688 148.109 41.5526L148.109 41.5518C153.4 39.6014 158.802 37.9673 164.252 36.3376L169.716 34.6979C184.373 30.2443 199.356 26.2694 213.935 21.142L215.345 20.6422C225.553 16.9956 235.646 12.8622 245.037 7.18117L245.037 7.18034C248.103 5.32278 250.913 2.96783 253.61 0.899541L253.612 0.898387C255.376 -0.457313 256.899 -1.64463 258.709 -2.34346C259.205 -2.53176 259.556 -2.67488 259.923 -2.7721L260.158 -2.82842C260.51 -2.90077 260.658 -2.87044 260.696 -2.85934C260.731 -2.82303 260.855 -2.66171 260.967 -2.15242L260.967 -2.15107L261.037 -1.80269C261.33 -0.176078 261.182 1.4837 260.753 3.20308L260.658 3.57179C259.623 7.37723 258.212 11.0515 256.41 14.5352C254.415 18.3934 252.457 22.1967 250.166 25.7577C246.048 32.1597 241.92 38.4593 237.06 44.1896L236.077 45.3283C232.21 49.7372 227.877 53.674 223.229 57.3183C213.711 64.7804 203.221 70.6132 192.077 75.3819C177.951 81.4265 163.826 87.4738 149.68 93.4634C138.312 98.2749 127.634 104.3 117.782 111.775C110.509 117.294 103.704 123.349 97.4859 130.052L96.2506 131.401C91.2643 136.913 86.417 142.59 82.075 148.702C80.4461 150.991 78.4611 153.44 76.9429 156.055L76.9424 156.056L75.3859 158.752C71.8946 164.846 68.5229 171.128 66.2849 177.994L66.0414 178.759C63.7712 186.033 62.8838 193.403 63.2485 200.872C63.0075 199.673 62.7648 198.475 62.5259 197.276Z" stroke="#430D4B" stroke-width="3"/>
<g filter="url(#filter2_d_826_1989)">
<path d="M191.737 54.4945L157.297 196.4L170.325 199.345L231.669 36.6054L191.737 54.4945Z" fill="url(#paint2_linear_826_1989)" stroke="url(#paint3_linear_826_1989)" stroke-width="2.26825"/>
<path d="M153.594 45.872L123.646 188.793L110.618 185.848L125.239 12.5462L153.594 45.872Z" fill="url(#paint4_linear_826_1989)" stroke="url(#paint5_linear_826_1989)" stroke-width="2.26825"/>
<path d="M193.93 191.459C195.729 191.866 196.858 193.654 196.452 195.453L193.735 207.47L204.938 210.003C207.187 210.511 208.598 212.746 208.089 214.995L198.355 258.058L211.185 260.995C212.53 261.304 213.373 262.643 213.069 263.99L207.877 286.957C207.572 288.309 206.226 289.155 204.875 288.846L44.5346 252.142C43.1886 251.833 42.3459 250.494 42.6503 249.148L47.8423 226.18C48.148 224.829 49.4927 223.982 50.8435 224.291L63.6606 227.224L73.3124 184.528C73.8208 182.279 76.0562 180.868 78.305 181.376L86.812 183.299L89.5286 171.282C89.9354 169.483 91.7237 168.355 93.5226 168.761L193.93 191.459Z" fill="url(#paint6_linear_826_1989)"/>
<path d="M193.93 191.459L194.181 190.353L194.181 190.353L193.93 191.459ZM196.452 195.453L197.558 195.703L197.558 195.703L196.452 195.453ZM193.735 207.47L192.629 207.22C192.563 207.514 192.616 207.821 192.776 208.076C192.937 208.33 193.192 208.51 193.485 208.576L193.735 207.47ZM204.938 210.003L205.188 208.896L205.188 208.896L204.938 210.003ZM198.355 258.058L197.248 257.808C197.111 258.418 197.492 259.024 198.102 259.164L198.355 258.058ZM211.185 260.995L211.438 259.89L211.438 259.89L211.185 260.995ZM213.069 263.99L214.175 264.24L214.175 264.24L213.069 263.99ZM204.875 288.846L204.622 289.952L204.622 289.952L204.875 288.846ZM44.5346 252.142L44.7877 251.036L44.7877 251.036L44.5346 252.142ZM47.8423 226.18L46.7361 225.93L46.7361 225.93L47.8423 226.18ZM50.8435 224.291L51.0966 223.185L51.0964 223.185L50.8435 224.291ZM63.6606 227.224L63.4076 228.33C63.7013 228.397 64.0097 228.344 64.2647 228.184C64.5197 228.023 64.7004 227.768 64.7668 227.474L63.6606 227.224ZM73.3124 184.528L72.2062 184.278L73.3124 184.528ZM78.305 181.376L78.555 180.27L78.5549 180.27L78.305 181.376ZM86.812 183.299L86.5619 184.406C87.1729 184.544 87.7801 184.16 87.9182 183.549L86.812 183.299ZM89.5286 171.282L88.4224 171.032L88.4223 171.032L89.5286 171.282ZM93.5226 168.761L93.7727 167.655L93.7725 167.655L93.5226 168.761ZM193.93 191.459L193.68 192.565C194.868 192.834 195.614 194.015 195.345 195.203L196.452 195.453L197.558 195.703C198.102 193.293 196.59 190.898 194.181 190.353L193.93 191.459ZM196.452 195.453L195.345 195.203L192.629 207.22L193.735 207.47L194.841 207.72L197.558 195.703L196.452 195.453ZM193.735 207.47L193.485 208.576L204.688 211.109L204.938 210.003L205.188 208.896L193.985 206.364L193.735 207.47ZM204.938 210.003L204.688 211.109C206.326 211.479 207.353 213.107 206.983 214.745L208.089 214.995L209.196 215.245C209.842 212.385 208.047 209.543 205.188 208.896L204.938 210.003ZM208.089 214.995L206.983 214.745L197.248 257.808L198.355 258.058L199.461 258.308L209.196 215.245L208.089 214.995ZM198.355 258.058L198.102 259.164L210.932 262.101L211.185 260.995L211.438 259.89L198.608 256.953L198.355 258.058ZM211.185 260.995L210.932 262.101C211.668 262.27 212.129 263.003 211.963 263.74L213.069 263.99L214.175 264.24C214.617 262.283 213.393 260.338 211.438 259.89L211.185 260.995ZM213.069 263.99L211.963 263.739L206.771 286.707L207.877 286.957L208.983 287.207L214.175 264.24L213.069 263.99ZM207.877 286.957L206.771 286.707C206.604 287.446 205.867 287.91 205.128 287.741L204.875 288.846L204.622 289.952C206.584 290.401 208.539 289.171 208.983 287.207L207.877 286.957ZM204.875 288.846L205.128 287.741L44.7877 251.036L44.5346 252.142L44.2815 253.247L204.622 289.952L204.875 288.846ZM44.5346 252.142L44.7877 251.036C44.0511 250.867 43.5899 250.135 43.7565 249.398L42.6503 249.148L41.5441 248.897C41.1018 250.854 42.3262 252.799 44.2815 253.247L44.5346 252.142ZM42.6503 249.148L43.7565 249.398L48.9485 226.43L47.8423 226.18L46.7361 225.93L41.5441 248.897L42.6503 249.148ZM47.8423 226.18L48.9484 226.43C49.1159 225.69 49.852 225.227 50.5907 225.396L50.8435 224.291L51.0964 223.185C49.1334 222.736 47.1802 223.967 46.7361 225.93L47.8423 226.18ZM50.8435 224.291L50.5905 225.396L63.4076 228.33L63.6606 227.224L63.9136 226.118L51.0966 223.185L50.8435 224.291ZM63.6606 227.224L64.7668 227.474L74.4186 184.778L73.3124 184.528L72.2062 184.278L62.5544 226.974L63.6606 227.224ZM73.3124 184.528L74.4186 184.778C74.7888 183.14 76.417 182.112 78.055 182.483L78.305 181.376L78.5549 180.27C75.6954 179.624 72.8527 181.418 72.2062 184.278L73.3124 184.528ZM78.305 181.376L78.0549 182.483L86.5619 184.406L86.812 183.299L87.0621 182.193L78.555 180.27L78.305 181.376ZM86.812 183.299L87.9182 183.549L90.6348 171.532L89.5286 171.282L88.4223 171.032L85.7058 183.049L86.812 183.299ZM89.5286 171.282L90.6347 171.532C90.9034 170.345 92.0846 169.599 93.2727 169.867L93.5226 168.761L93.7725 167.655C91.3628 167.11 88.9673 168.622 88.4224 171.032L89.5286 171.282ZM93.5226 168.761L93.2725 169.867L193.68 192.565L193.93 191.459L194.181 190.353L93.7727 167.655L93.5226 168.761Z" fill="#430D4B"/>
<g filter="url(#filter3_dd_826_1989)">
<g filter="url(#filter4_n_826_1989)">
<path d="M169.583 24.7048C176.274 15.4027 175.265 8.71203 173.725 6.38553C199.37 14.2929 207.232 29.2591 204.543 50.4124C202.934 63.0641 190.952 72.5305 179.561 78.0004C169.352 82.9019 176.339 92.254 165.387 88.7762C155.296 85.572 143.14 71.0861 143.366 59.0035C143.638 44.4256 161.505 35.9355 169.583 24.7048Z" fill="url(#paint7_linear_826_1989)"/>
<path d="M169.583 24.7048C176.274 15.4027 175.265 8.71203 173.725 6.38553C199.37 14.2929 207.232 29.2591 204.543 50.4124C202.934 63.0641 190.952 72.5305 179.561 78.0004C169.352 82.9019 176.339 92.254 165.387 88.7762C155.296 85.572 143.14 71.0861 143.366 59.0035C143.638 44.4256 161.505 35.9355 169.583 24.7048Z" stroke="url(#paint8_linear_826_1989)" stroke-width="2.26825"/>
</g>
<g filter="url(#filter5_i_826_1989)">
<path d="M148.588 58.7384C149.11 56.3255 150.128 54.3196 151.401 52.4241C152.537 50.7314 153.933 49.2649 155.361 47.828C159.396 43.7712 163.453 39.7368 167.457 35.6497C169.411 33.6548 171.296 31.5893 173.155 29.5044C174.869 27.5835 176.364 25.4935 177.63 23.2474C178.509 21.6851 179.102 20.0239 179.263 18.2256C179.407 16.6096 179.161 15.0586 178.472 13.5834C178.213 13.0318 177.971 12.4728 177.73 11.913C177.681 11.7965 177.663 11.6614 177.657 11.533C177.655 11.4884 177.727 11.4129 177.778 11.3999C177.826 11.3887 177.911 11.4264 177.941 11.4698C178.024 11.5889 178.09 11.7189 178.156 11.8489C179.242 13.9595 180.218 16.1186 181.077 18.3311C182.086 20.9259 183.005 23.5496 183.755 26.2305C184.456 28.7362 184.932 31.2854 185.042 33.8913C185.074 34.6574 185.007 35.4206 184.894 36.1845C184.672 37.7044 183.99 39.014 183.16 40.2729C181.858 42.2452 180.244 43.94 178.499 45.5135C175.862 47.89 173.195 50.233 170.548 52.5987C168.828 54.1351 167.162 55.7276 165.664 57.4853C163.968 59.4749 162.438 61.5793 161.222 63.9051C160.096 66.0591 159.629 68.3398 159.721 70.7619C159.839 73.82 160.646 76.6838 162.024 79.4026C162.496 80.3354 162.951 81.2767 163.4 82.2201C163.513 82.4574 163.589 82.7157 163.654 82.9714C163.719 83.2297 163.605 83.3643 163.332 83.3001C163.002 83.223 162.654 83.1272 162.374 82.9477C161.685 82.5043 161.017 82.0253 160.364 81.529C157.813 79.5877 155.503 77.395 153.497 74.8891C151.646 72.5761 150.136 70.0711 149.174 67.2554C148.552 65.4369 148.197 63.571 148.247 61.6426C148.274 60.6108 148.326 59.5775 148.583 58.7408L148.588 58.7384Z" fill="url(#paint9_linear_826_1989)"/>
</g>
<g filter="url(#filter6_i_826_1989)">
<path d="M195.605 42.3749C194.97 45.2528 193.731 47.8558 192.122 50.298C190.701 52.4548 189.016 54.3841 187.105 56.1181C185.908 57.2034 184.743 58.3302 183.49 59.3452C182.196 60.3939 180.818 61.3404 179.463 62.3128C176.626 64.3503 173.713 66.2834 170.975 68.4582C169.115 69.9345 167.327 71.4932 165.796 73.3154C165.305 73.9007 164.904 74.5626 164.478 75.2006C164.213 75.5983 163.954 75.9974 163.583 76.3075C163.501 76.3747 163.421 76.4446 163.333 76.503C163.019 76.7125 162.804 76.6698 162.607 76.3439C162.354 75.927 162.25 75.4629 162.219 74.9811C162.164 74.0937 162.198 73.2057 162.33 72.3288C162.472 71.3879 162.612 70.4419 162.841 69.5209C163.272 67.79 163.718 66.059 164.403 64.4041C164.905 63.1899 165.539 62.0457 166.257 60.9452C167.728 58.6897 169.519 56.7119 171.517 54.9157C174.029 52.658 176.541 50.3991 179.061 48.1507C181.068 46.3612 182.845 44.3719 184.35 42.1435C185.537 40.3843 186.571 38.5388 187.412 36.5887C188.057 35.0936 188.659 33.5825 189.124 32.0211C189.31 31.401 189.537 30.7892 189.664 30.1571C190.022 28.3682 190.367 26.5764 190.32 24.7337C190.269 22.7264 189.784 20.8327 188.913 19.0326C188.722 18.6396 188.51 18.2575 188.308 17.8693C188.254 17.764 188.182 17.6608 188.154 17.5482C188.133 17.4589 188.132 17.3156 188.186 17.2678C188.301 17.1653 188.436 17.2288 188.532 17.3373C188.583 17.3967 188.617 17.4703 188.657 17.5395C189.224 18.5119 189.792 19.4834 190.355 20.4576C191.575 22.5665 192.846 24.6466 193.996 26.7923C195.464 29.5311 196.19 32.4888 196.272 35.5984C196.304 36.8049 196.227 38.0063 196.079 39.2015C195.948 40.2635 195.765 41.3196 195.604 42.3784L195.605 42.3749Z" fill="url(#paint10_linear_826_1989)"/>
</g>
<g filter="url(#filter7_i_826_1989)">
<path d="M197.77 44.8057C198.064 44.833 198.08 45.0322 198.096 45.2116C198.148 45.8038 198.195 46.3971 198.232 46.9896C198.336 48.6439 198.235 50.2901 197.991 51.9282C197.89 52.6067 197.801 53.2867 197.685 53.9629C197.479 55.1552 197.091 56.2902 196.577 57.3836C195.953 58.7124 195.332 60.0478 194.406 61.1994C193.735 62.0325 193.019 62.8308 192.293 63.6172C190.58 65.4695 188.663 67.0873 186.569 68.4954C185.724 69.0632 184.885 69.6419 184.026 70.1881C182.652 71.0615 181.252 71.8932 179.886 72.7794C178.234 73.8524 176.608 74.9655 175.139 76.2889C173.816 77.4803 172.626 78.7899 171.631 80.2643C170.86 81.4046 170.424 82.6659 170.467 84.0646C170.47 84.1435 170.459 84.2229 170.456 84.3016C170.452 84.4301 170.413 84.5619 170.272 84.5631C170.17 84.5645 170.019 84.5155 169.972 84.4391C169.783 84.1238 169.556 83.8062 169.468 83.4589C169.045 81.7836 168.846 80.0808 169.022 78.3525C169.158 77.0199 169.442 75.7171 169.933 74.4682C170.578 72.8255 171.596 71.4307 172.927 70.2851C173.746 69.5796 174.631 68.9476 175.497 68.298C176.787 67.3299 178.079 66.3662 179.384 65.4174C180.143 64.8657 180.931 64.3535 181.701 63.8165C183.142 62.8107 184.598 61.8227 186.014 60.783C187.462 59.7189 188.892 58.6261 190.292 57.4997C191.541 56.4944 192.674 55.3601 193.693 54.122C194.983 52.5543 196.08 50.8608 196.901 48.9988C197.201 48.3179 197.366 47.5952 197.472 46.8617C197.562 46.2357 197.625 45.6049 197.702 44.9772C197.708 44.9274 197.737 44.8813 197.766 44.8073L197.77 44.8057Z" fill="url(#paint11_linear_826_1989)"/>
</g>
</g>
</g>
<defs>
<filter id="filter0_i_826_1989" x="43.0605" y="63.6452" width="223.655" height="247.864" filterUnits="userSpaceOnUse" color-interpolation-filters="sRGB">
<feFlood flood-opacity="0" result="BackgroundImageFix"/>
<feBlend mode="normal" in="SourceGraphic" in2="BackgroundImageFix" result="shape"/>
<feColorMatrix in="SourceAlpha" type="matrix" values="0 0 0 0 0 0 0 0 0 0 0 0 0 0 0 0 0 0 127 0" result="hardAlpha"/>
<feOffset dx="14.4619" dy="28.9237"/>
<feGaussianBlur stdDeviation="28.9237"/>
<feComposite in2="hardAlpha" operator="arithmetic" k2="-1" k3="1"/>
<feColorMatrix type="matrix" values="0 0 0 0 0 0 0 0 0 0.941176 0 0 0 0 1 0 0 0 0.07 0"/>
<feBlend mode="plus-lighter" in2="shape" result="effect1_innerShadow_826_1989"/>
</filter>
<filter id="filter1_i_826_1989" x="53.4961" y="-4.37537" width="223.655" height="247.864" filterUnits="userSpaceOnUse" color-interpolation-filters="sRGB">
<feFlood flood-opacity="0" result="BackgroundImageFix"/>
<feBlend mode="normal" in="SourceGraphic" in2="BackgroundImageFix" result="shape"/>
<feColorMatrix in="SourceAlpha" type="matrix" values="0 0 0 0 0 0 0 0 0 0 0 0 0 0 0 0 0 0 127 0" result="hardAlpha"/>
<feOffset dx="14.4619" dy="28.9237"/>
<feGaussianBlur stdDeviation="28.9237"/>
<feComposite in2="hardAlpha" operator="arithmetic" k2="-1" k3="1"/>
<feColorMatrix type="matrix" values="0 0 0 0 0 0 0 0 0 0.941176 0 0 0 0 1 0 0 0 0.07 0"/>
<feBlend mode="plus-lighter" in2="shape" result="effect1_innerShadow_826_1989"/>
</filter>
<filter id="filter2_d_826_1989" x="34.0813" y="3.80025" width="212.653" height="306.091" filterUnits="userSpaceOnUse" color-interpolation-filters="sRGB">
<feFlood flood-opacity="0" result="BackgroundImageFix"/>
<feColorMatrix in="SourceAlpha" type="matrix" values="0 0 0 0 0 0 0 0 0 0 0 0 0 0 0 0 0 0 127 0" result="hardAlpha"/>
<feOffset dx="2.83531" dy="9.64007"/>
<feGaussianBlur stdDeviation="5.10356"/>
<feComposite in2="hardAlpha" operator="out"/>
<feColorMatrix type="matrix" values="0 0 0 0 0 0 0 0 0 0 0 0 0 0 0 0 0 0 0.35 0"/>
<feBlend mode="normal" in2="BackgroundImageFix" result="effect1_dropShadow_826_1989"/>
<feBlend mode="normal" in="SourceGraphic" in2="effect1_dropShadow_826_1989" result="shape"/>
</filter>
<filter id="filter3_dd_826_1989" x="133.879" y="1.86243" width="80.6484" height="102.999" filterUnits="userSpaceOnUse" color-interpolation-filters="sRGB">
<feFlood flood-opacity="0" result="BackgroundImageFix"/>
<feColorMatrix in="SourceAlpha" type="matrix" values="0 0 0 0 0 0 0 0 0 0 0 0 0 0 0 0 0 0 127 0" result="hardAlpha"/>
<feOffset dy="5.84473"/>
<feGaussianBlur stdDeviation="4.17481"/>
<feComposite in2="hardAlpha" operator="out"/>
<feColorMatrix type="matrix" values="0 0 0 0 0 0 0 0 0 0 0 0 0 0 0 0 0 0 0.1 0"/>
<feBlend mode="normal" in2="BackgroundImageFix" result="effect1_dropShadow_826_1989"/>
<feColorMatrix in="SourceAlpha" type="matrix" values="0 0 0 0 0 0 0 0 0 0 0 0 0 0 0 0 0 0 127 0" result="hardAlpha"/>
<feOffset dy="3.33984"/>
<feGaussianBlur stdDeviation="0.834961"/>
<feComposite in2="hardAlpha" operator="out"/>
<feColorMatrix type="matrix" values="0 0 0 0 0 0 0 0 0 0 0 0 0 0 0 0 0 0 0.31 0"/>
<feBlend mode="normal" in2="effect1_dropShadow_826_1989" result="effect2_dropShadow_826_1989"/>
<feBlend mode="normal" in="SourceGraphic" in2="effect2_dropShadow_826_1989" result="shape"/>
</filter>
<filter id="filter4_n_826_1989" x="142.229" y="4.36731" width="63.9492" height="86.3002" filterUnits="userSpaceOnUse" color-interpolation-filters="sRGB">
<feFlood flood-opacity="0" result="BackgroundImageFix"/>
<feBlend mode="normal" in="SourceGraphic" in2="BackgroundImageFix" result="shape"/>
<feTurbulence type="fractalNoise" baseFrequency="2.9941515922546387 2.9941515922546387" stitchTiles="stitch" numOctaves="3" result="noise" seed="3048" />
<feComponentTransfer in="noise" result="coloredNoise1">
<feFuncR type="linear" slope="2" intercept="-0.5" />
<feFuncG type="linear" slope="2" intercept="-0.5" />
<feFuncB type="linear" slope="2" intercept="-0.5" />
<feFuncA type="discrete" tableValues="0 1 1 1 1 1 1 1 1 1 1 1 1 1 1 1 1 1 1 1 1 1 1 1 1 1 1 1 1 1 1 1 1 1 1 1 1 1 1 1 1 1 1 1 1 1 1 1 1 0 0 0 0 0 0 0 0 0 0 0 0 0 0 0 0 0 0 0 0 0 0 0 0 0 0 0 0 0 0 0 0 0 0 0 0 0 0 0 0 0 0 0 0 0 0 0 0 0 0 0 "/>
</feComponentTransfer>
<feComposite operator="in" in2="shape" in="coloredNoise1" result="noise1Clipped" />
<feComponentTransfer in="noise1Clipped" result="color1">
<feFuncA type="table" tableValues="0 0.2" />
</feComponentTransfer>
<feMerge result="effect1_noise_826_1989">
<feMergeNode in="shape" />
<feMergeNode in="color1" />
</feMerge>
</filter>
<filter id="filter5_i_826_1989" x="148.242" y="11.3979" width="48.8837" height="96.0682" filterUnits="userSpaceOnUse" color-interpolation-filters="sRGB">
<feFlood flood-opacity="0" result="BackgroundImageFix"/>
<feBlend mode="normal" in="SourceGraphic" in2="BackgroundImageFix" result="shape"/>
<feColorMatrix in="SourceAlpha" type="matrix" values="0 0 0 0 0 0 0 0 0 0 0 0 0 0 0 0 0 0 127 0" result="hardAlpha"/>
<feOffset dx="12.0751" dy="24.1502"/>
<feGaussianBlur stdDeviation="24.1502"/>
<feComposite in2="hardAlpha" operator="arithmetic" k2="-1" k3="1"/>
<feColorMatrix type="matrix" values="0 0 0 0 0 0 0 0 0 0.941176 0 0 0 0 1 0 0 0 0.07 0"/>
<feBlend mode="plus-lighter" in2="shape" result="effect1_innerShadow_826_1989"/>
</filter>
<filter id="filter6_i_826_1989" x="162.193" y="17.2159" width="46.161" height="83.5656" filterUnits="userSpaceOnUse" color-interpolation-filters="sRGB">
<feFlood flood-opacity="0" result="BackgroundImageFix"/>
<feBlend mode="normal" in="SourceGraphic" in2="BackgroundImageFix" result="shape"/>
<feColorMatrix in="SourceAlpha" type="matrix" values="0 0 0 0 0 0 0 0 0 0 0 0 0 0 0 0 0 0 127 0" result="hardAlpha"/>
<feOffset dx="12.0751" dy="24.1502"/>
<feGaussianBlur stdDeviation="24.1502"/>
<feComposite in2="hardAlpha" operator="arithmetic" k2="-1" k3="1"/>
<feColorMatrix type="matrix" values="0 0 0 0 0 0 0 0 0 0.941176 0 0 0 0 1 0 0 0 0.07 0"/>
<feBlend mode="plus-lighter" in2="shape" result="effect1_innerShadow_826_1989"/>
</filter>
<filter id="filter7_i_826_1989" x="168.957" y="44.8057" width="41.3915" height="63.9076" filterUnits="userSpaceOnUse" color-interpolation-filters="sRGB">
<feFlood flood-opacity="0" result="BackgroundImageFix"/>
<feBlend mode="normal" in="SourceGraphic" in2="BackgroundImageFix" result="shape"/>
<feColorMatrix in="SourceAlpha" type="matrix" values="0 0 0 0 0 0 0 0 0 0 0 0 0 0 0 0 0 0 127 0" result="hardAlpha"/>
<feOffset dx="12.0751" dy="24.1502"/>
<feGaussianBlur stdDeviation="24.1502"/>
<feComposite in2="hardAlpha" operator="arithmetic" k2="-1" k3="1"/>
<feColorMatrix type="matrix" values="0 0 0 0 0 0 0 0 0 0.941176 0 0 0 0 1 0 0 0 0.07 0"/>
<feBlend mode="plus-lighter" in2="shape" result="effect1_innerShadow_826_1989"/>
</filter>
<linearGradient id="paint0_linear_826_1989" x1="55.9272" y1="283.341" x2="207.077" y2="36.9117" gradientUnits="userSpaceOnUse">
<stop stop-color="#986B9C"/>
<stop offset="0.581514" stop-color="#430D4B"/>
<stop offset="1" stop-color="#7B337D"/>
</linearGradient>
<linearGradient id="paint1_linear_826_1989" x1="66.3627" y1="215.321" x2="217.513" y2="-31.1089" gradientUnits="userSpaceOnUse">
<stop stop-color="#986B9C"/>
<stop offset="0.581514" stop-color="#430D4B"/>
<stop offset="1" stop-color="#7B337D"/>
</linearGradient>
<linearGradient id="paint2_linear_826_1989" x1="213.474" y1="32.4923" x2="175.492" y2="200.513" gradientUnits="userSpaceOnUse">
<stop offset="0.475712" stop-color="#CFBCDA"/>
<stop offset="1" stop-color="#5A2B6F"/>
</linearGradient>
<linearGradient id="paint3_linear_826_1989" x1="213.474" y1="32.4923" x2="175.492" y2="200.513" gradientUnits="userSpaceOnUse">
<stop stop-color="#56205F"/>
<stop offset="1" stop-color="#280636"/>
</linearGradient>
<linearGradient id="paint4_linear_826_1989" x1="143.434" y1="16.6593" x2="105.452" y2="184.68" gradientUnits="userSpaceOnUse">
<stop offset="0.475712" stop-color="#CFBCDA"/>
<stop offset="1" stop-color="#5A2B6F"/>
</linearGradient>
<linearGradient id="paint5_linear_826_1989" x1="143.434" y1="16.6593" x2="105.452" y2="184.68" gradientUnits="userSpaceOnUse">
<stop stop-color="#56205F"/>
<stop offset="1" stop-color="#280636"/>
</linearGradient>
<linearGradient id="paint6_linear_826_1989" x1="145.075" y1="180.415" x2="124.662" y2="270.714" gradientUnits="userSpaceOnUse">
<stop stop-color="#6E4481"/>
<stop offset="1" stop-color="#5F1F61"/>
</linearGradient>
<linearGradient id="paint7_linear_826_1989" x1="184.207" y1="8.75523" x2="166.064" y2="89.0169" gradientUnits="userSpaceOnUse">
<stop stop-color="#F8F0FC"/>
<stop offset="1" stop-color="#D3B7D8"/>
</linearGradient>
<linearGradient id="paint8_linear_826_1989" x1="184.207" y1="8.75523" x2="166.064" y2="89.0169" gradientUnits="userSpaceOnUse">
<stop stop-color="#56205F"/>
<stop offset="1" stop-color="#280636"/>
</linearGradient>
<linearGradient id="paint9_linear_826_1989" x1="175.037" y1="10.7708" x2="158.869" y2="82.2913" gradientUnits="userSpaceOnUse">
<stop stop-color="#986B9C"/>
<stop offset="0.581514" stop-color="#430D4B"/>
<stop offset="1" stop-color="#7B337D"/>
</linearGradient>
<linearGradient id="paint10_linear_826_1989" x1="187.994" y1="17.1391" x2="173.982" y2="79.1235" gradientUnits="userSpaceOnUse">
<stop stop-color="#986B9C"/>
<stop offset="0.581514" stop-color="#430D4B"/>
<stop offset="1" stop-color="#7B337D"/>
</linearGradient>
<linearGradient id="paint11_linear_826_1989" x1="188.596" y1="42.7268" x2="178.705" y2="86.4806" gradientUnits="userSpaceOnUse">
<stop stop-color="#986B9C"/>
<stop offset="0.581514" stop-color="#430D4B"/>
<stop offset="1" stop-color="#7B337D"/>
</linearGradient>
</defs>
</svg>
