<svg width="229" height="240" viewBox="0 0 229 240" fill="none" xmlns="http://www.w3.org/2000/svg">
<g filter="url(#filter0_d_663_1226)">
<path d="M157.656 42.4961L123.216 184.402L136.244 187.347L197.588 24.607L157.656 42.4961Z" fill="url(#paint0_linear_663_1226)" stroke="url(#paint1_linear_663_1226)" stroke-width="2.26825"/>
<path d="M119.513 33.8736L89.5659 176.795L76.5375 173.85L91.1588 0.54778L119.513 33.8736Z" fill="url(#paint2_linear_663_1226)" stroke="url(#paint3_linear_663_1226)" stroke-width="2.26825"/>
<path d="M159.849 179.46C161.648 179.867 162.776 181.655 162.37 183.455L159.653 195.472L170.856 198.004C173.105 198.512 174.516 200.748 174.007 202.997L164.273 246.059L177.103 248.997C178.449 249.305 179.292 250.644 178.987 251.991L173.795 274.958C173.49 276.31 172.144 277.157 170.793 276.848L10.4526 240.143C9.1067 239.835 8.26394 238.496 8.56839 237.149L13.7603 214.182C14.0661 212.83 15.4116 211.983 16.7625 212.292L29.5796 215.226L39.2314 172.529C39.7398 170.281 41.9751 168.87 44.224 169.378L52.731 171.301L55.4476 159.284C55.8544 157.485 57.6426 156.356 59.4416 156.763L159.849 179.46Z" fill="url(#paint4_linear_663_1226)"/>
<path d="M159.849 179.46L160.099 178.354L159.849 179.46ZM162.37 183.455L163.476 183.705L163.476 183.705L162.37 183.455ZM159.653 195.472L158.547 195.222C158.409 195.833 158.792 196.44 159.403 196.578L159.653 195.472ZM164.273 246.059L163.167 245.809C163.029 246.419 163.41 247.025 164.02 247.165L164.273 246.059ZM177.103 248.997L177.356 247.891L177.356 247.891L177.103 248.997ZM178.987 251.991L180.093 252.241L180.093 252.241L178.987 251.991ZM173.795 274.958L172.689 274.708L173.795 274.958ZM170.793 276.848L170.54 277.953L170.54 277.953L170.793 276.848ZM10.4526 240.143L10.7057 239.037L10.7057 239.037L10.4526 240.143ZM13.7603 214.182L12.6542 213.931L12.6541 213.931L13.7603 214.182ZM16.7625 212.292L16.5095 213.398L16.5095 213.398L16.7625 212.292ZM29.5796 215.226L29.3266 216.331C29.6203 216.398 29.9287 216.346 30.1837 216.185C30.4387 216.025 30.6194 215.77 30.6858 215.476L29.5796 215.226ZM44.224 169.378L44.4741 168.272L44.224 169.378ZM52.731 171.301L52.4809 172.407C52.7743 172.474 53.082 172.421 53.3364 172.26C53.5907 172.1 53.7709 171.844 53.8372 171.551L52.731 171.301ZM55.4476 159.284L54.3414 159.034L54.3414 159.034L55.4476 159.284ZM59.4416 156.763L59.1916 157.869L59.4416 156.763ZM159.849 179.46L159.598 180.567C160.786 180.835 161.532 182.016 161.264 183.205L162.37 183.455L163.476 183.705C164.021 181.295 162.509 178.899 160.099 178.354L159.849 179.46ZM162.37 183.455L161.264 183.204L158.547 195.222L159.653 195.472L160.759 195.722L163.476 183.705L162.37 183.455ZM159.653 195.472L159.403 196.578L170.606 199.11L170.856 198.004L171.106 196.898L159.903 194.365L159.653 195.472ZM170.856 198.004L170.606 199.11C172.244 199.481 173.271 201.109 172.901 202.747L174.007 202.997L175.114 203.247C175.76 200.387 173.966 197.544 171.106 196.898L170.856 198.004ZM174.007 202.997L172.901 202.747L163.167 245.809L164.273 246.059L165.379 246.31L175.114 203.247L174.007 202.997ZM164.273 246.059L164.02 247.165L176.85 250.102L177.103 248.997L177.356 247.891L164.526 244.954L164.273 246.059ZM177.103 248.997L176.85 250.102C177.586 250.271 178.048 251.004 177.881 251.741L178.987 251.991L180.093 252.241C180.536 250.285 179.311 248.339 177.356 247.891L177.103 248.997ZM178.987 251.991L177.881 251.741L172.689 274.708L173.795 274.958L174.901 275.208L180.093 252.241L178.987 251.991ZM173.795 274.958L172.689 274.708C172.522 275.448 171.785 275.911 171.046 275.742L170.793 276.848L170.54 277.953C172.503 278.403 174.457 277.172 174.901 275.208L173.795 274.958ZM170.793 276.848L171.046 275.742L10.7057 239.037L10.4526 240.143L10.1996 241.248L170.54 277.953L170.793 276.848ZM10.4526 240.143L10.7057 239.037C9.96919 238.869 9.50799 238.136 9.6746 237.399L8.56839 237.149L7.46217 236.899C7.01989 238.855 8.24422 240.801 10.1996 241.248L10.4526 240.143ZM8.56839 237.149L9.6746 237.399L14.8665 214.432L13.7603 214.182L12.6541 213.931L7.46217 236.899L8.56839 237.149ZM13.7603 214.182L14.8665 214.432C15.0339 213.692 15.7704 213.228 16.5095 213.398L16.7625 212.292L17.0156 211.187C15.0527 210.737 13.0984 211.968 12.6542 213.931L13.7603 214.182ZM16.7625 212.292L16.5095 213.398L29.3266 216.331L29.5796 215.226L29.8327 214.12L17.0156 211.187L16.7625 212.292ZM29.5796 215.226L30.6858 215.476L40.3376 172.78L39.2314 172.529L38.1252 172.279L28.4734 214.976L29.5796 215.226ZM39.2314 172.529L40.3376 172.78C40.7079 171.142 42.3359 170.114 43.9739 170.484L44.224 169.378L44.4741 168.272C41.6142 167.625 38.7717 169.42 38.1252 172.279L39.2314 172.529ZM44.224 169.378L43.9739 170.484L52.4809 172.407L52.731 171.301L52.9811 170.195L44.4741 168.272L44.224 169.378ZM52.731 171.301L53.8372 171.551L56.5538 159.534L55.4476 159.284L54.3414 159.034L51.6248 171.051L52.731 171.301ZM55.4476 159.284L56.5538 159.534C56.8225 158.346 58.0036 157.6 59.1916 157.869L59.4416 156.763L59.6917 155.657C57.2816 155.112 54.8863 156.624 54.3414 159.034L55.4476 159.284ZM59.4416 156.763L59.1916 157.869L159.598 180.567L159.849 179.46L160.099 178.354L59.6917 155.657L59.4416 156.763Z" fill="#430D4B"/>
<g filter="url(#filter1_d_663_1226)">
<rect x="59.1619" y="206.466" width="80.9912" height="12.5244" rx="1.66992" transform="rotate(12.7381 59.1619 206.466)" fill="url(#paint5_linear_663_1226)"/>
</g>
<g filter="url(#filter2_dd_663_1226)">
<g filter="url(#filter3_n_663_1226)">
<path d="M135.501 12.7065C142.192 3.4043 141.183 -3.28632 139.642 -5.61282C165.287 2.29459 173.15 17.2607 170.46 38.414C168.852 51.0658 156.87 60.5321 145.478 66.002C135.27 70.9036 142.256 80.2556 131.304 76.7779C121.214 73.5737 109.058 59.0878 109.283 47.0052C109.556 32.4273 127.423 23.9371 135.501 12.7065Z" fill="url(#paint6_linear_663_1226)"/>
<path d="M135.501 12.7065C142.192 3.4043 141.183 -3.28632 139.642 -5.61282C165.287 2.29459 173.15 17.2607 170.46 38.414C168.852 51.0658 156.87 60.5321 145.478 66.002C135.27 70.9036 142.256 80.2556 131.304 76.7779C121.214 73.5737 109.058 59.0878 109.283 47.0052C109.556 32.4273 127.423 23.9371 135.501 12.7065Z" stroke="url(#paint7_linear_663_1226)" stroke-width="2.26825"/>
</g>
<g filter="url(#filter4_i_663_1226)">
<path d="M114.506 46.7401C115.028 44.3272 116.046 42.3213 117.319 40.4258C118.456 38.7331 119.851 37.2666 121.28 35.8297C125.314 31.7729 129.371 27.7385 133.375 23.6514C135.329 21.6565 137.214 19.591 139.073 17.5061C140.787 15.5852 142.282 13.4952 143.548 11.2491C144.427 9.68682 145.021 8.02559 145.181 6.22733C145.325 4.61132 145.079 3.06031 144.39 1.58509C144.131 1.03347 143.889 0.47453 143.649 -0.0853107C143.599 -0.201764 143.581 -0.336878 143.575 -0.465339C143.573 -0.509888 143.645 -0.585368 143.696 -0.598389C143.744 -0.609608 143.83 -0.571874 143.859 -0.528521C143.942 -0.409354 144.008 -0.279375 144.074 -0.149394C145.16 1.9612 146.136 4.12034 146.996 6.33278C148.004 8.9276 148.923 11.5514 149.674 14.2322C150.374 16.7379 150.85 19.2871 150.96 21.893C150.992 22.6591 150.925 23.4223 150.812 24.1862C150.59 25.7061 149.908 27.0157 149.078 28.2746C147.777 30.2469 146.162 31.9417 144.417 33.5152C141.78 35.8917 139.113 38.2347 136.466 40.6004C134.747 42.1368 133.081 43.7294 131.582 45.487C129.886 47.4767 128.356 49.581 127.14 51.9068C126.015 54.0608 125.547 56.3415 125.639 58.7636C125.757 61.8217 126.564 64.6855 127.942 67.4043C128.414 68.3371 128.869 69.2784 129.318 70.2219C129.431 70.4591 129.507 70.7174 129.572 70.9731C129.637 71.2314 129.523 71.366 129.25 71.3018C128.92 71.2248 128.572 71.129 128.292 70.9494C127.603 70.506 126.935 70.0271 126.282 69.5307C123.731 67.5894 121.422 65.3968 119.415 62.8908C117.564 60.5778 116.054 58.0728 115.092 55.2571C114.47 53.4387 114.115 51.5727 114.165 49.6443C114.192 48.6125 114.244 47.5792 114.501 46.7425L114.506 46.7401Z" fill="url(#paint8_linear_663_1226)"/>
</g>
<g filter="url(#filter5_i_663_1226)">
<path d="M161.522 30.3766C160.888 33.2545 159.649 35.8575 158.04 38.2997C156.619 40.4565 154.933 42.3858 153.023 44.1198C151.826 45.2051 150.661 46.3319 149.408 47.3469C148.114 48.3956 146.736 49.3421 145.381 50.3145C142.544 52.352 139.631 54.2851 136.893 56.4599C135.033 57.9362 133.245 59.4949 131.714 61.3171C131.223 61.9024 130.822 62.5644 130.396 63.2023C130.131 63.6 129.872 63.9991 129.5 64.3092C129.419 64.3764 129.338 64.4463 129.25 64.5047C128.937 64.7142 128.721 64.6715 128.524 64.3456C128.272 63.9287 128.168 63.4646 128.137 62.9828C128.081 62.0954 128.116 61.2074 128.248 60.3305C128.389 59.3896 128.53 58.4436 128.759 57.5226C129.189 55.7917 129.636 54.0607 130.321 52.4058C130.823 51.1916 131.457 50.0475 132.174 48.9469C133.646 46.6914 135.437 44.7136 137.435 42.9174C139.946 40.6597 142.458 38.4008 144.979 36.1524C146.986 34.363 148.763 32.3736 150.267 30.1452C151.455 28.386 152.488 26.5405 153.33 24.5904C153.975 23.0954 154.576 21.5842 155.042 20.0228C155.227 19.4027 155.455 18.7909 155.582 18.1588C155.94 16.3699 156.285 14.5781 156.237 12.7354C156.186 10.7281 155.702 8.83443 154.83 7.03432C154.64 6.6413 154.427 6.2592 154.226 5.87106C154.172 5.76572 154.099 5.66252 154.072 5.5499C154.051 5.46062 154.05 5.31729 154.104 5.26947C154.219 5.16698 154.354 5.23055 154.449 5.33902C154.501 5.39839 154.534 5.47206 154.575 5.54122C155.142 6.51363 155.709 7.48514 156.273 8.45936C157.493 10.5682 158.764 12.6483 159.914 14.794C161.382 17.5328 162.107 20.4905 162.189 23.6001C162.222 24.8066 162.145 26.008 161.997 27.2033C161.866 28.2652 161.682 29.3213 161.521 30.3801L161.522 30.3766Z" fill="url(#paint9_linear_663_1226)"/>
</g>
<g filter="url(#filter6_i_663_1226)">
<path d="M163.689 32.8073C163.983 32.8346 163.999 33.0337 164.014 33.2132C164.067 33.8053 164.114 34.3987 164.151 34.9912C164.254 36.6455 164.154 38.2917 163.91 39.9298C163.809 40.6083 163.72 41.2882 163.604 41.9645C163.398 43.1568 163.009 44.2918 162.495 45.3852C161.872 46.7139 161.251 48.0493 160.324 49.201C159.654 50.0341 158.937 50.8324 158.211 51.6188C156.499 53.4711 154.581 55.0889 152.487 56.497C151.643 57.0648 150.804 57.6435 149.945 58.1897C148.571 59.0631 147.17 59.8948 145.805 60.781C144.152 61.854 142.526 62.9671 141.057 64.2904C139.734 65.4819 138.545 66.7914 137.549 68.2658C136.779 69.4062 136.343 70.6675 136.385 72.0662C136.388 72.1451 136.378 72.2245 136.375 72.3032C136.37 72.4317 136.332 72.5635 136.191 72.5646C136.089 72.566 135.937 72.5171 135.891 72.4406C135.701 72.1254 135.475 71.8078 135.387 71.4605C134.964 69.7852 134.765 68.0823 134.94 66.3541C135.076 65.0214 135.361 63.7187 135.851 62.4698C136.497 60.8271 137.515 59.4323 138.846 58.2866C139.665 57.5812 140.549 56.9491 141.416 56.2996C142.705 55.3315 143.998 54.3677 145.303 53.419C146.061 52.8673 146.849 52.3551 147.619 51.8181C149.061 50.8122 150.516 49.8243 151.932 48.7846C153.381 47.7205 154.81 46.6277 156.21 45.5013C157.459 44.496 158.592 43.3617 159.611 42.1236C160.902 40.5559 161.998 38.8624 162.819 37.0004C163.12 36.3195 163.285 35.5968 163.391 34.8632C163.481 34.2373 163.544 33.6065 163.621 32.9788C163.627 32.929 163.656 32.8829 163.685 32.8089L163.689 32.8073Z" fill="url(#paint10_linear_663_1226)"/>
</g>
</g>
</g>
<defs>
<filter id="filter0_d_663_1226" x="1.16825e-05" y="-8.1981" width="212.652" height="306.091" filterUnits="userSpaceOnUse" color-interpolation-filters="sRGB">
<feFlood flood-opacity="0" result="BackgroundImageFix"/>
<feColorMatrix in="SourceAlpha" type="matrix" values="0 0 0 0 0 0 0 0 0 0 0 0 0 0 0 0 0 0 127 0" result="hardAlpha"/>
<feOffset dx="2.83531" dy="9.64007"/>
<feGaussianBlur stdDeviation="5.10356"/>
<feComposite in2="hardAlpha" operator="out"/>
<feColorMatrix type="matrix" values="0 0 0 0 0 0 0 0 0 0 0 0 0 0 0 0 0 0 0.35 0"/>
<feBlend mode="normal" in2="BackgroundImageFix" result="effect1_dropShadow_663_1226"/>
<feBlend mode="normal" in="SourceGraphic" in2="effect1_dropShadow_663_1226" result="shape"/>
</filter>
<filter id="filter1_d_663_1226" x="53.3872" y="205.958" width="87.7857" height="36.1005" filterUnits="userSpaceOnUse" color-interpolation-filters="sRGB">
<feFlood flood-opacity="0" result="BackgroundImageFix"/>
<feColorMatrix in="SourceAlpha" type="matrix" values="0 0 0 0 0 0 0 0 0 0 0 0 0 0 0 0 0 0 127 0" result="hardAlpha"/>
<feMorphology radius="0.834961" operator="erode" in="SourceAlpha" result="effect1_dropShadow_663_1226"/>
<feOffset dy="2.50488"/>
<feGaussianBlur stdDeviation="2.0874"/>
<feComposite in2="hardAlpha" operator="out"/>
<feColorMatrix type="matrix" values="0 0 0 0 0 0 0 0 0 0 0 0 0 0 0 0 0 0 0.25 0"/>
<feBlend mode="normal" in2="BackgroundImageFix" result="effect1_dropShadow_663_1226"/>
<feBlend mode="normal" in="SourceGraphic" in2="effect1_dropShadow_663_1226" result="shape"/>
</filter>
<filter id="filter2_dd_663_1226" x="99.7966" y="-10.1359" width="80.6475" height="102.999" filterUnits="userSpaceOnUse" color-interpolation-filters="sRGB">
<feFlood flood-opacity="0" result="BackgroundImageFix"/>
<feColorMatrix in="SourceAlpha" type="matrix" values="0 0 0 0 0 0 0 0 0 0 0 0 0 0 0 0 0 0 127 0" result="hardAlpha"/>
<feOffset dy="5.84473"/>
<feGaussianBlur stdDeviation="4.17481"/>
<feComposite in2="hardAlpha" operator="out"/>
<feColorMatrix type="matrix" values="0 0 0 0 0 0 0 0 0 0 0 0 0 0 0 0 0 0 0.1 0"/>
<feBlend mode="normal" in2="BackgroundImageFix" result="effect1_dropShadow_663_1226"/>
<feColorMatrix in="SourceAlpha" type="matrix" values="0 0 0 0 0 0 0 0 0 0 0 0 0 0 0 0 0 0 127 0" result="hardAlpha"/>
<feOffset dy="3.33984"/>
<feGaussianBlur stdDeviation="0.834961"/>
<feComposite in2="hardAlpha" operator="out"/>
<feColorMatrix type="matrix" values="0 0 0 0 0 0 0 0 0 0 0 0 0 0 0 0 0 0 0.31 0"/>
<feBlend mode="normal" in2="effect1_dropShadow_663_1226" result="effect2_dropShadow_663_1226"/>
<feBlend mode="normal" in="SourceGraphic" in2="effect2_dropShadow_663_1226" result="shape"/>
</filter>
<filter id="filter3_n_663_1226" x="108.146" y="-7.63104" width="63.9483" height="86.3002" filterUnits="userSpaceOnUse" color-interpolation-filters="sRGB">
<feFlood flood-opacity="0" result="BackgroundImageFix"/>
<feBlend mode="normal" in="SourceGraphic" in2="BackgroundImageFix" result="shape"/>
<feTurbulence type="fractalNoise" baseFrequency="2.9941515922546387 2.9941515922546387" stitchTiles="stitch" numOctaves="3" result="noise" seed="3048" />
<feComponentTransfer in="noise" result="coloredNoise1">
<feFuncR type="linear" slope="2" intercept="-0.5" />
<feFuncG type="linear" slope="2" intercept="-0.5" />
<feFuncB type="linear" slope="2" intercept="-0.5" />
<feFuncA type="discrete" tableValues="0 1 1 1 1 1 1 1 1 1 1 1 1 1 1 1 1 1 1 1 1 1 1 1 1 1 1 1 1 1 1 1 1 1 1 1 1 1 1 1 1 1 1 1 1 1 1 1 1 0 0 0 0 0 0 0 0 0 0 0 0 0 0 0 0 0 0 0 0 0 0 0 0 0 0 0 0 0 0 0 0 0 0 0 0 0 0 0 0 0 0 0 0 0 0 0 0 0 0 0 "/>
</feComponentTransfer>
<feComposite operator="in" in2="shape" in="coloredNoise1" result="noise1Clipped" />
<feComponentTransfer in="noise1Clipped" result="color1">
<feFuncA type="table" tableValues="0 0.2" />
</feComponentTransfer>
<feMerge result="effect1_noise_663_1226">
<feMergeNode in="shape" />
<feMergeNode in="color1" />
</feMerge>
</filter>
<filter id="filter4_i_663_1226" x="114.161" y="-0.600403" width="48.8826" height="96.0683" filterUnits="userSpaceOnUse" color-interpolation-filters="sRGB">
<feFlood flood-opacity="0" result="BackgroundImageFix"/>
<feBlend mode="normal" in="SourceGraphic" in2="BackgroundImageFix" result="shape"/>
<feColorMatrix in="SourceAlpha" type="matrix" values="0 0 0 0 0 0 0 0 0 0 0 0 0 0 0 0 0 0 127 0" result="hardAlpha"/>
<feOffset dx="12.0751" dy="24.1502"/>
<feGaussianBlur stdDeviation="24.1502"/>
<feComposite in2="hardAlpha" operator="arithmetic" k2="-1" k3="1"/>
<feColorMatrix type="matrix" values="0 0 0 0 0 0 0 0 0 0.941176 0 0 0 0 1 0 0 0 0.07 0"/>
<feBlend mode="plus-lighter" in2="shape" result="effect1_innerShadow_663_1226"/>
</filter>
<filter id="filter5_i_663_1226" x="128.111" y="5.21765" width="46.1603" height="83.5656" filterUnits="userSpaceOnUse" color-interpolation-filters="sRGB">
<feFlood flood-opacity="0" result="BackgroundImageFix"/>
<feBlend mode="normal" in="SourceGraphic" in2="BackgroundImageFix" result="shape"/>
<feColorMatrix in="SourceAlpha" type="matrix" values="0 0 0 0 0 0 0 0 0 0 0 0 0 0 0 0 0 0 127 0" result="hardAlpha"/>
<feOffset dx="12.0751" dy="24.1502"/>
<feGaussianBlur stdDeviation="24.1502"/>
<feComposite in2="hardAlpha" operator="arithmetic" k2="-1" k3="1"/>
<feColorMatrix type="matrix" values="0 0 0 0 0 0 0 0 0 0.941176 0 0 0 0 1 0 0 0 0.07 0"/>
<feBlend mode="plus-lighter" in2="shape" result="effect1_innerShadow_663_1226"/>
</filter>
<filter id="filter6_i_663_1226" x="134.877" y="32.8074" width="41.3899" height="63.9075" filterUnits="userSpaceOnUse" color-interpolation-filters="sRGB">
<feFlood flood-opacity="0" result="BackgroundImageFix"/>
<feBlend mode="normal" in="SourceGraphic" in2="BackgroundImageFix" result="shape"/>
<feColorMatrix in="SourceAlpha" type="matrix" values="0 0 0 0 0 0 0 0 0 0 0 0 0 0 0 0 0 0 127 0" result="hardAlpha"/>
<feOffset dx="12.0751" dy="24.1502"/>
<feGaussianBlur stdDeviation="24.1502"/>
<feComposite in2="hardAlpha" operator="arithmetic" k2="-1" k3="1"/>
<feColorMatrix type="matrix" values="0 0 0 0 0 0 0 0 0 0.941176 0 0 0 0 1 0 0 0 0.07 0"/>
<feBlend mode="plus-lighter" in2="shape" result="effect1_innerShadow_663_1226"/>
</filter>
<linearGradient id="paint0_linear_663_1226" x1="179.393" y1="20.4939" x2="141.41" y2="188.515" gradientUnits="userSpaceOnUse">
<stop offset="0.475712" stop-color="#CFBCDA"/>
<stop offset="1" stop-color="#5A2B6F"/>
</linearGradient>
<linearGradient id="paint1_linear_663_1226" x1="179.393" y1="20.4939" x2="141.41" y2="188.515" gradientUnits="userSpaceOnUse">
<stop stop-color="#56205F"/>
<stop offset="1" stop-color="#280636"/>
</linearGradient>
<linearGradient id="paint2_linear_663_1226" x1="109.354" y1="4.66085" x2="71.3711" y2="172.682" gradientUnits="userSpaceOnUse">
<stop offset="0.475712" stop-color="#CFBCDA"/>
<stop offset="1" stop-color="#5A2B6F"/>
</linearGradient>
<linearGradient id="paint3_linear_663_1226" x1="109.354" y1="4.66085" x2="71.3711" y2="172.682" gradientUnits="userSpaceOnUse">
<stop stop-color="#56205F"/>
<stop offset="1" stop-color="#280636"/>
</linearGradient>
<linearGradient id="paint4_linear_663_1226" x1="110.993" y1="168.416" x2="90.5802" y2="258.715" gradientUnits="userSpaceOnUse">
<stop stop-color="#6E4481"/>
<stop offset="1" stop-color="#5F1F61"/>
</linearGradient>
<linearGradient id="paint5_linear_663_1226" x1="99.6575" y1="206.466" x2="99.6575" y2="218.99" gradientUnits="userSpaceOnUse">
<stop stop-color="#F8F0FC"/>
<stop offset="1" stop-color="#D3B7D8"/>
</linearGradient>
<linearGradient id="paint6_linear_663_1226" x1="150.125" y1="-3.24312" x2="131.981" y2="77.0185" gradientUnits="userSpaceOnUse">
<stop stop-color="#F8F0FC"/>
<stop offset="1" stop-color="#D3B7D8"/>
</linearGradient>
<linearGradient id="paint7_linear_663_1226" x1="150.125" y1="-3.24312" x2="131.981" y2="77.0185" gradientUnits="userSpaceOnUse">
<stop stop-color="#56205F"/>
<stop offset="1" stop-color="#280636"/>
</linearGradient>
<linearGradient id="paint8_linear_663_1226" x1="140.955" y1="-1.22753" x2="124.787" y2="70.293" gradientUnits="userSpaceOnUse">
<stop stop-color="#986B9C"/>
<stop offset="0.581514" stop-color="#430D4B"/>
<stop offset="1" stop-color="#7B337D"/>
</linearGradient>
<linearGradient id="paint9_linear_663_1226" x1="153.912" y1="5.1408" x2="139.9" y2="67.1252" gradientUnits="userSpaceOnUse">
<stop stop-color="#986B9C"/>
<stop offset="0.581514" stop-color="#430D4B"/>
<stop offset="1" stop-color="#7B337D"/>
</linearGradient>
<linearGradient id="paint10_linear_663_1226" x1="154.515" y1="30.7284" x2="144.624" y2="74.4821" gradientUnits="userSpaceOnUse">
<stop stop-color="#986B9C"/>
<stop offset="0.581514" stop-color="#430D4B"/>
<stop offset="1" stop-color="#7B337D"/>
</linearGradient>
</defs>
</svg>
