<svg width="513" height="362" viewBox="0 0 513 362" fill="none" xmlns="http://www.w3.org/2000/svg">
<path d="M138.2 140.927L52.4722 292.353L439.123 299.359L324.701 82.9706L300.439 107.787L254.91 31.9155L158.058 160.049L138.2 140.927Z" fill="url(#paint0_linear_1438_3595)" stroke="#502356" stroke-width="12.1127"/>
<circle cx="49.7536" cy="44.0661" r="39.2513" transform="rotate(1.03811 49.7536 44.0661)" fill="#F3E9F7" stroke="#502356" stroke-width="8.07514"/>
<path d="M49.8184 352.822V130.897" stroke="#2A0A3C" stroke-width="16.1503" stroke-linecap="round"/>
<path d="M482.403 300.137L10.6317 291.588" stroke="#2A0A3C" stroke-width="21.2633" stroke-linecap="round"/>
<rect x="147.099" y="183.22" width="58.5925" height="111.982" rx="6.70161" transform="rotate(1.03811 147.099 183.22)" fill="url(#paint1_linear_1438_3595)" stroke="#2A0A3C" stroke-width="12.1127"/>
<rect x="204.28" y="133.743" width="58.5925" height="162.486" rx="6.70161" transform="rotate(1.03811 204.28 133.743)" fill="url(#paint2_linear_1438_3595)" stroke="#2A0A3C" stroke-width="12.1127"/>
<rect x="262.382" y="113.153" width="58.5925" height="184.13" rx="6.70161" transform="rotate(1.03811 262.382 113.153)" fill="url(#paint3_linear_1438_3595)" stroke="#2A0A3C" stroke-width="12.1127"/>
<path d="M47.4681 62.6032C44.6595 62.5523 42.1115 62.0378 39.824 61.0599C37.5725 60.0826 35.6883 58.7158 34.1713 56.9594C32.6543 55.203 31.6286 53.1673 31.0943 50.8524L38.2196 48.2261C38.9012 50.3636 40.0768 52.0778 41.7463 53.3687C43.4164 54.6236 45.3137 55.2703 47.4381 55.3088C48.6624 55.331 49.7282 55.1522 50.6355 54.7724C51.5795 54.3573 52.3101 53.7942 52.8273 53.0832C53.3804 52.3729 53.6652 51.5676 53.6815 50.6674C53.6971 49.8033 53.4405 49.0602 52.9114 48.4383C52.3824 47.8164 51.5094 47.2963 50.2923 46.8781L43.207 44.3184C40.2727 43.2567 38.1013 41.8306 36.693 40.0402C35.3214 38.2144 34.659 36.0052 34.706 33.4127C34.7491 31.0362 35.4177 28.9232 36.7119 27.0737C38.0427 25.1888 39.7985 23.7078 41.9791 22.6308C44.1958 21.5544 46.6724 21.0409 49.4089 21.0905C51.9654 21.1368 54.262 21.6107 56.2988 22.512C58.3722 23.3781 60.097 24.5979 61.4732 26.1717C62.8494 27.7454 63.7883 29.5994 64.29 31.7336L57.2187 34.3609C56.6758 32.5141 55.6754 31.0733 54.2174 30.0383C52.796 28.968 51.0771 28.4146 49.0607 28.378C47.8725 28.3565 46.8247 28.5356 45.9174 28.9154C45.0467 29.2598 44.3531 29.7695 43.8366 30.4445C43.3561 31.1202 43.1074 31.9261 43.0904 32.8623C43.0728 33.8345 43.3461 34.6498 43.9105 35.3084C44.4749 35.967 45.3653 36.5234 46.5817 36.9777L53.505 39.5344C56.4393 40.5961 58.611 42.0042 60.0199 43.7586C61.4649 45.5137 62.1642 47.6695 62.1179 50.226C62.0748 52.6024 61.3699 54.7328 60.003 56.617C58.6722 58.5019 56.8985 59.9826 54.6818 61.059C52.5012 62.1361 50.0966 62.6508 47.4681 62.6032ZM41.9269 67.2572L49.9811 16.3464L54.8961 16.4355L46.8418 67.3463L41.9269 67.2572Z" fill="url(#paint4_linear_1438_3595)"/>
<path d="M48.8664 93.1162L75.4913 141.224L20.5161 140.228L48.8664 93.1162Z" fill="#2A0A3C"/>
<path d="M507.281 300.582L459.475 327.744L459.855 272.761L507.281 300.582Z" fill="#2A0A3C"/>
<defs>
<linearGradient id="paint0_linear_1438_3595" x1="250.582" y1="31.8371" x2="245.797" y2="295.856" gradientUnits="userSpaceOnUse">
<stop stop-color="#F8F0FC"/>
<stop offset="1" stop-color="#D3B7D8"/>
</linearGradient>
<linearGradient id="paint1_linear_1438_3595" x1="176.506" y1="177.055" x2="176.506" y2="301.149" gradientUnits="userSpaceOnUse">
<stop stop-color="#210535"/>
<stop offset="1" stop-color="#7B337D"/>
</linearGradient>
<linearGradient id="paint2_linear_1438_3595" x1="233.687" y1="127.578" x2="233.687" y2="302.177" gradientUnits="userSpaceOnUse">
<stop stop-color="#210535"/>
<stop offset="1" stop-color="#7B337D"/>
</linearGradient>
<linearGradient id="paint3_linear_1438_3595" x1="291.789" y1="106.988" x2="291.789" y2="303.231" gradientUnits="userSpaceOnUse">
<stop stop-color="#210535"/>
<stop offset="1" stop-color="#7B337D"/>
</linearGradient>
<linearGradient id="paint4_linear_1438_3595" x1="48.2349" y1="5.95952" x2="47.3915" y2="52.504" gradientUnits="userSpaceOnUse">
<stop stop-color="#210535"/>
<stop offset="1" stop-color="#7B337D"/>
</linearGradient>
</defs>
</svg>
