<svg width="178" height="168" viewBox="0 0 178 168" fill="none" xmlns="http://www.w3.org/2000/svg">
<path d="M101.431 131.31V134.999C101.431 137.115 102.169 138.984 103.654 140.469C105.138 141.953 107.005 142.689 109.119 142.685V142.686H131.873C133.989 142.686 135.858 141.948 137.343 140.463C138.735 139.07 139.471 137.341 139.554 135.388L139.561 134.994V131.31H175.38V152.063C175.38 154.658 174.48 156.831 172.626 158.688C170.773 160.544 168.603 161.443 166.006 161.44H74.9882C72.3937 161.44 70.2237 160.541 68.3701 158.687C66.6323 156.95 65.7305 154.932 65.622 152.544L65.6113 152.061V131.31H101.431ZM124.185 119.934V127.31H116.808V119.934H124.185ZM131.873 57.3603C134.466 57.3604 136.638 58.2611 138.496 60.1191C140.354 61.9771 141.253 64.1464 141.25 66.7343V76.1494C141.25 78.3388 143.024 80.1142 145.214 80.1142H166.003C168.596 80.1142 170.769 81.0148 172.627 82.873C174.485 84.731 175.383 86.9002 175.38 89.4882V115.934H139.561V112.245C139.561 110.129 138.822 108.26 137.335 106.778C135.852 105.3 133.987 104.562 131.877 104.557H109.119C107.003 104.557 105.134 105.296 103.652 106.783C102.174 108.266 101.436 110.13 101.431 112.24V115.934H65.6113V89.4911C65.6113 86.8978 66.512 84.7279 68.3691 82.874C70.1119 81.1342 72.1295 80.2333 74.5097 80.1249L74.9902 80.1142H95.7773C97.9667 80.1142 99.7421 78.3388 99.7421 76.1494V66.7372C99.7421 64.1438 100.643 61.974 102.5 60.1201C104.243 58.3804 106.26 57.4794 108.641 57.371L109.121 57.3603H131.873ZM111.083 64.7372C108.894 64.7374 107.119 66.5119 107.119 68.7011V76.1494C107.119 78.3387 108.894 80.1141 111.083 80.1142H129.908C132.098 80.1142 133.873 78.3388 133.873 76.1494V68.7011C133.873 66.5118 132.097 64.7372 129.908 64.7372H111.083Z" fill="url(#paint0_linear_660_591)" stroke="#4B1553" stroke-width="4" stroke-linejoin="round"/>
<rect x="111.247" y="114.782" width="18.6614" height="18.6614" fill="#4B1553"/>
<g filter="url(#filter0_i_660_591)">
<path d="M0.0431099 120.458C-0.00914241 114.807 1.25866 109.814 3.15625 104.939C4.85032 100.586 7.24018 96.6068 9.72079 92.6771C16.7253 81.5822 23.7932 70.5256 30.7125 59.3788C34.0896 53.938 37.277 48.3741 40.3956 42.7802C43.2695 37.6263 45.5686 32.2046 47.2709 26.5506C48.4535 22.6182 48.943 18.6093 48.3902 14.5129C47.8925 10.8319 46.5532 7.49253 44.2541 4.54665C43.3933 3.44536 42.5655 2.31948 41.7405 1.19086C41.5699 0.955845 41.4599 0.663443 41.3829 0.379239C41.3554 0.280861 41.4792 0.0759067 41.5864 0.0212521C41.6882 -0.027937 41.9 0.0130539 41.988 0.0950358C42.2355 0.319119 42.45 0.575996 42.6645 0.832872C46.1764 4.99755 49.4655 9.32619 52.5209 13.8325C56.1043 19.1176 59.5035 24.512 62.5506 30.1195C65.397 35.3609 67.7621 40.8127 69.3324 46.576C69.7944 48.2703 70.031 50.0083 70.1657 51.7709C70.438 55.277 69.5717 58.5454 68.3451 61.7754C66.4228 66.8364 63.6562 71.4356 60.5348 75.8298C55.8156 82.4677 51.0139 89.0453 46.2672 95.664C43.1843 99.9626 40.2499 104.36 37.7748 109.041C34.9752 114.339 32.6073 119.81 31.0562 125.617C29.6207 130.995 29.7279 136.324 31.1662 141.686C32.9841 148.455 36.2512 154.442 40.7284 159.818C42.263 161.662 43.7645 163.534 45.2524 165.414C45.6264 165.887 45.9289 166.425 46.2039 166.964C46.4817 167.507 46.2947 167.865 45.6484 167.86C44.8673 167.854 44.0368 167.816 43.3163 167.557C41.5424 166.914 39.7989 166.182 38.08 165.403C31.3615 162.356 25.0582 158.626 19.2775 154.043C13.9422 149.813 9.27802 144.982 5.68636 139.18C3.36526 135.433 1.61893 131.446 0.752641 127.115C0.287871 124.798 -0.119147 122.464 0.0321094 120.466L0.0431099 120.458Z" fill="url(#paint1_linear_660_591)"/>
</g>
<path d="M48.1543 9.42285C49.3619 11.0584 50.5375 12.7178 51.6797 14.4023C55.0276 19.3401 58.2077 24.3644 61.0859 29.5625L61.6582 30.6045C64.4765 35.7942 66.8075 41.1724 68.3525 46.8428V46.8438C68.7917 48.4542 69.0205 50.1234 69.1523 51.8486L69.1533 51.8496C69.4086 55.1376 68.6006 58.2416 67.3955 61.415C65.6325 66.0564 63.1363 70.3197 60.2822 74.4229L59.707 75.2412C54.9875 81.8795 50.1967 88.4416 45.4414 95.0723C42.3471 99.3868 39.3829 103.826 36.877 108.565V108.566C34.0536 113.91 31.6516 119.454 30.0752 125.355H30.0742C28.5894 130.918 28.7036 136.429 30.1846 141.949H30.1855C32.045 148.873 35.3859 154.99 39.9473 160.467C41.4744 162.302 42.9707 164.168 44.4561 166.045C44.6415 166.279 44.8086 166.542 44.9717 166.824C44.4767 166.797 44.0362 166.736 43.6602 166.601H43.6592C41.9179 165.97 40.2003 165.248 38.499 164.478H38.498C31.8468 161.461 25.6164 157.772 19.9082 153.247C14.6423 149.072 10.0658 144.325 6.5498 138.646V138.645C4.2788 134.979 2.58682 131.105 1.74902 126.916V126.915C1.29066 124.63 0.921395 122.468 1.03809 120.652C1.05109 120.586 1.05923 120.517 1.05859 120.448C1.00795 114.964 2.23609 110.103 4.10254 105.308C5.75832 101.053 8.10241 97.1447 10.5801 93.2197C17.5804 82.1316 24.6533 71.0659 31.5752 59.915C34.9644 54.4548 38.1613 48.8752 41.2832 43.2754C44.1926 38.0578 46.5206 32.5682 48.2441 26.8438V26.8428C49.3836 23.0535 49.9058 19.1633 49.4922 15.1758L49.3975 14.377L49.2891 13.6592C49.0461 12.1947 48.6689 10.7816 48.1543 9.42285Z" stroke="#461A52" stroke-width="2.0318" stroke-linejoin="round"/>
<g filter="url(#filter1_i_660_591)">
<path d="M97.0948 60.1482C97.1305 66.8894 95.6703 73.3221 93.2971 79.5828C91.2016 85.1118 88.3966 90.2667 84.9866 95.0994C82.8499 98.1246 80.8067 101.226 78.5077 104.123C76.1344 107.116 73.522 109.922 70.9727 112.776C65.6378 118.752 60.0773 124.535 55.0338 130.769C51.6074 135.001 48.3844 139.38 45.8709 144.218C45.0652 145.772 44.5014 147.451 43.8689 149.089C43.4757 150.111 43.0962 151.132 42.4197 152.011C42.2712 152.202 42.1254 152.399 41.9577 152.573C41.3609 153.199 40.8549 153.212 40.2472 152.584C39.4689 151.782 38.9987 150.799 38.6852 149.739C38.1105 147.787 37.7365 145.788 37.588 143.765C37.4285 141.595 37.2635 139.413 37.3102 137.242C37.3982 133.163 37.522 129.076 38.2205 125.038C38.732 122.075 39.5734 119.203 40.6267 116.385C42.7854 110.611 45.8022 105.295 49.3771 100.279C53.8706 93.9745 58.3641 87.6674 62.8823 81.3794C66.4793 76.3747 69.4602 71.0396 71.707 65.3086C73.4807 60.7844 74.8639 56.1455 75.7632 51.3701C76.4534 47.7087 77.0364 44.0337 77.2894 40.3149C77.3912 38.8378 77.5919 37.358 77.5562 35.8836C77.4517 31.7116 77.3169 27.5396 76.2747 23.4523C75.1417 18.9991 73.093 15.0182 70.222 11.4415C69.595 10.6606 68.924 9.91519 68.275 9.15069C68.099 8.94319 67.8845 8.74933 67.7662 8.51179C67.6727 8.3234 67.5985 8.00395 67.6947 7.87016C67.901 7.58347 68.2365 7.65719 68.506 7.85105C68.6517 7.95753 68.7645 8.10497 68.891 8.23876C70.6565 10.1227 72.4247 12.0039 74.1847 13.8933C77.9934 17.9834 81.9039 21.9833 85.5751 26.1908C90.2611 31.5614 93.3906 37.7948 95.1533 44.6917C95.838 47.3674 96.2753 50.0868 96.5503 52.8281C96.795 55.2636 96.9188 57.7127 97.0948 60.1564V60.1482Z" fill="url(#paint2_linear_660_591)"/>
</g>
<path d="M74.019 15.2013C77.6626 19.0967 81.3359 22.877 84.81 26.8585C89.2402 31.936 92.2498 37.8079 94.0033 44.3117L94.1693 44.9435C94.8389 47.56 95.2684 50.2281 95.5395 52.9298C95.7809 55.3323 95.9012 57.7271 96.0775 60.1847C96.1059 66.3497 94.8563 72.269 92.7748 78.0636L92.3471 79.2228C90.4132 84.3254 87.8642 89.1092 84.7807 93.6163L84.1566 94.5138C81.9946 97.5749 79.9876 100.624 77.7123 103.491L77.7113 103.492C75.9498 105.713 74.0589 107.828 72.14 109.958L70.2152 112.099C64.9147 118.037 59.3078 123.871 54.2445 130.129C50.8016 134.381 47.5289 138.823 44.9691 143.75V143.751C44.1293 145.371 43.5316 147.143 42.9213 148.724V148.725C42.5157 149.778 42.1853 150.649 41.6176 151.388C41.4483 151.606 41.3456 151.745 41.225 151.87L41.2231 151.872C41.1721 151.926 41.1296 151.963 41.0971 151.989C41.0658 151.964 41.0254 151.928 40.977 151.878V151.877L40.7514 151.626C40.3212 151.109 40.009 150.498 39.7719 149.805L39.6596 149.451C39.1043 147.565 38.7439 145.638 38.601 143.691C38.4407 141.51 38.2801 139.377 38.3256 137.264C38.4137 133.181 38.5373 129.165 39.2211 125.211V125.21C39.7196 122.323 40.5423 119.513 41.5785 116.741C43.6999 111.066 46.6695 105.828 50.2045 100.868C54.6982 94.5637 59.1907 88.2587 63.7074 81.9728C67.3491 76.9058 70.3724 71.4964 72.6527 65.6798C74.4471 61.1031 75.8489 56.4028 76.7611 51.5587C77.4545 47.8809 78.0462 44.1611 78.3031 40.3849C78.3986 38.9996 78.6089 37.3944 78.5717 35.8585L78.5297 34.2931C78.4274 30.8903 78.2301 27.4228 77.4496 23.9923L77.2592 23.2013C76.534 20.3511 75.4448 17.6898 74.019 15.2013Z" stroke="#461A52" stroke-width="2.0318" stroke-linejoin="round"/>
<g filter="url(#filter2_i_660_591)">
<path d="M103.041 64.1933C103.712 64.1056 103.849 64.544 103.975 64.9385C104.391 66.2398 104.796 67.5467 105.18 68.8562C106.248 72.5137 106.856 76.256 107.138 80.0532C107.256 81.6258 107.401 83.1956 107.483 84.7709C107.625 87.5489 107.329 90.2913 106.732 93.0036C106.01 96.2994 105.295 99.6089 103.805 102.661C102.726 104.869 101.527 107.022 100.3 109.154C97.4051 114.176 93.9327 118.776 89.9591 122.995C88.3571 124.696 86.7715 126.419 85.1257 128.079C82.494 130.734 79.7801 133.309 77.1731 135.989C74.0183 139.233 70.943 142.553 68.325 146.265C65.9671 149.608 63.968 153.147 62.4865 156.958C61.3391 159.906 61.0022 162.955 61.8046 166.07C61.8512 166.246 61.8676 166.429 61.9004 166.607C61.9552 166.898 61.936 167.213 61.6211 167.287C61.3938 167.342 61.0296 167.309 60.8872 167.161C60.3039 166.55 59.6357 165.953 59.2633 165.218C57.4695 161.676 56.1633 157.958 55.6813 153.994C55.3116 150.936 55.2897 147.871 55.7552 144.822C56.3687 140.811 57.9406 137.167 60.3395 133.923C61.8156 131.926 63.4751 130.06 65.0853 128.164C67.4815 125.34 69.8859 122.523 72.3259 119.734C73.7445 118.113 75.2479 116.565 76.6993 114.97C79.4159 111.984 82.1736 109.031 84.8162 105.981C87.5191 102.861 90.1645 99.6856 92.7278 96.4501C95.0144 93.5625 96.9752 90.4447 98.6292 87.1517C100.724 82.9819 102.321 78.6286 103.216 74.0369C103.545 72.3575 103.548 70.6534 103.413 68.9548C103.298 67.5056 103.12 66.059 102.975 64.6125C102.964 64.4974 103.005 64.3796 103.033 64.1988L103.041 64.1933Z" fill="url(#paint3_linear_660_591)"/>
</g>
<path d="M104.5 70.2064C105.363 73.4464 105.874 76.7594 106.124 80.1283V80.1293C106.244 81.7258 106.387 83.2632 106.468 84.8236C106.605 87.4946 106.322 90.145 105.741 92.7855H105.74C105.057 95.8975 104.406 98.8931 103.151 101.664L102.892 102.215C102.094 103.848 101.228 105.455 100.329 107.052L99.4194 108.647C96.745 113.287 93.5687 117.564 89.9497 121.513L89.2192 122.298C87.6065 124.011 86.0373 125.717 84.4038 127.365C82.1417 129.646 79.7315 131.954 77.4262 134.282L76.4448 135.281C73.2829 138.532 70.1609 141.899 67.4946 145.68C65.0981 149.077 63.056 152.689 61.5395 156.59C60.4391 159.418 60.035 162.372 60.6167 165.403C60.4908 165.256 60.3797 165.113 60.2856 164.963L60.1694 164.759C58.5247 161.511 57.3142 158.141 56.7866 154.585L56.6899 153.871C56.3519 151.076 56.3142 148.289 56.6811 145.527L56.7592 144.975C57.3464 141.136 58.8508 137.646 61.1567 134.528V134.527C62.2435 133.056 63.4277 131.662 64.6401 130.247L65.8598 128.822C68.2549 125.998 70.6555 123.187 73.0903 120.404C74.1518 119.19 75.2377 118.044 76.3413 116.858L77.4507 115.654C80.1553 112.681 82.9302 109.708 85.5835 106.647H85.5844C88.2958 103.517 90.9503 100.329 93.5239 97.0804C95.8561 94.1354 97.8534 90.9587 99.5366 87.6078C101.533 83.6342 103.092 79.4824 104.034 75.1087L104.213 74.2318C104.477 72.8828 104.542 71.533 104.5 70.2064Z" stroke="#4E2558" stroke-width="2.0318" stroke-linejoin="round"/>
<defs>
<filter id="filter0_i_660_591" x="0" y="0" width="70.3993" height="168.227" filterUnits="userSpaceOnUse" color-interpolation-filters="sRGB">
<feFlood flood-opacity="0" result="BackgroundImageFix"/>
<feBlend mode="normal" in="SourceGraphic" in2="BackgroundImageFix" result="shape"/>
<feColorMatrix in="SourceAlpha" type="matrix" values="0 0 0 0 0 0 0 0 0 0 0 0 0 0 0 0 0 0 127 0" result="hardAlpha"/>
<feOffset dx="0.183355" dy="0.366711"/>
<feGaussianBlur stdDeviation="0.366711"/>
<feComposite in2="hardAlpha" operator="arithmetic" k2="-1" k3="1"/>
<feColorMatrix type="matrix" values="0 0 0 0 0 0 0 0 0 0.941176 0 0 0 0 1 0 0 0 0.07 0"/>
<feBlend mode="plus-lighter" in2="shape" result="effect1_innerShadow_660_591"/>
</filter>
<filter id="filter1_i_660_591" x="37.3022" y="7.67982" width="59.9766" height="145.736" filterUnits="userSpaceOnUse" color-interpolation-filters="sRGB">
<feFlood flood-opacity="0" result="BackgroundImageFix"/>
<feBlend mode="normal" in="SourceGraphic" in2="BackgroundImageFix" result="shape"/>
<feColorMatrix in="SourceAlpha" type="matrix" values="0 0 0 0 0 0 0 0 0 0 0 0 0 0 0 0 0 0 127 0" result="hardAlpha"/>
<feOffset dx="0.183355" dy="0.366711"/>
<feGaussianBlur stdDeviation="0.366711"/>
<feComposite in2="hardAlpha" operator="arithmetic" k2="-1" k3="1"/>
<feColorMatrix type="matrix" values="0 0 0 0 0 0 0 0 0 0.941176 0 0 0 0 1 0 0 0 0.07 0"/>
<feBlend mode="plus-lighter" in2="shape" result="effect1_innerShadow_660_591"/>
</filter>
<filter id="filter2_i_660_591" x="55.4048" y="64.182" width="52.2967" height="103.496" filterUnits="userSpaceOnUse" color-interpolation-filters="sRGB">
<feFlood flood-opacity="0" result="BackgroundImageFix"/>
<feBlend mode="normal" in="SourceGraphic" in2="BackgroundImageFix" result="shape"/>
<feColorMatrix in="SourceAlpha" type="matrix" values="0 0 0 0 0 0 0 0 0 0 0 0 0 0 0 0 0 0 127 0" result="hardAlpha"/>
<feOffset dx="0.183355" dy="0.366711"/>
<feGaussianBlur stdDeviation="0.366711"/>
<feComposite in2="hardAlpha" operator="arithmetic" k2="-1" k3="1"/>
<feColorMatrix type="matrix" values="0 0 0 0 0 0 0 0 0 0.941176 0 0 0 0 1 0 0 0 0.07 0"/>
<feBlend mode="plus-lighter" in2="shape" result="effect1_innerShadow_660_591"/>
</filter>
<linearGradient id="paint0_linear_660_591" x1="120.496" y1="55.3603" x2="120.496" y2="163.441" gradientUnits="userSpaceOnUse">
<stop stop-color="#9E7DAA"/>
<stop offset="1" stop-color="#DAC6DD"/>
</linearGradient>
<linearGradient id="paint1_linear_660_591" x1="35.108" y1="0" x2="35.108" y2="167.86" gradientUnits="userSpaceOnUse">
<stop stop-color="#815489"/>
<stop offset="1" stop-color="#47114F"/>
</linearGradient>
<linearGradient id="paint2_linear_660_591" x1="67.1988" y1="7.67982" x2="67.1988" y2="153.049" gradientUnits="userSpaceOnUse">
<stop stop-color="#815489"/>
<stop offset="1" stop-color="#47114F"/>
</linearGradient>
<linearGradient id="paint3_linear_660_591" x1="81.4615" y1="64.182" x2="81.4615" y2="167.312" gradientUnits="userSpaceOnUse">
<stop stop-color="#815489"/>
<stop offset="1" stop-color="#47114F"/>
</linearGradient>
</defs>
</svg>
