<svg width="270" height="237" viewBox="0 0 270 237" fill="none" xmlns="http://www.w3.org/2000/svg">
<g filter="url(#filter0_d_663_1011)">
<path d="M158.937 39.8066L163.788 179.107H115.818L120.182 39.8066H158.937Z" fill="url(#paint0_linear_663_1011)"/>
<path d="M158.937 39.8066L163.788 179.107H115.818L120.182 39.8066H158.937Z" fill="url(#paint1_linear_663_1011)"/>
<path d="M158.937 39.8066L163.788 179.107H115.818L120.182 39.8066H158.937Z" stroke="url(#paint2_linear_663_1011)" stroke-width="2.94297"/>
<path d="M230.885 39.8066L235.65 189.897H188.652L192.94 39.8066H230.885Z" fill="url(#paint3_linear_663_1011)"/>
<path d="M230.885 39.8066L235.65 189.897H188.652L192.94 39.8066H230.885Z" fill="url(#paint4_linear_663_1011)"/>
<path d="M230.885 39.8066L235.65 189.897H188.652L192.94 39.8066H230.885Z" stroke="url(#paint5_linear_663_1011)" stroke-width="2.94297"/>
<rect x="24.5392" y="159.012" width="111.833" height="75.5362" fill="url(#paint6_linear_663_1011)"/>
<rect x="24.5392" y="159.012" width="111.833" height="75.5362" fill="url(#paint7_linear_663_1011)"/>
<rect x="24.5392" y="159.012" width="111.833" height="75.5362" stroke="url(#paint8_linear_663_1011)" stroke-width="2.94297"/>
<rect x="8.8433" y="142.335" width="135.377" height="16.6768" fill="url(#paint9_linear_663_1011)"/>
<rect x="8.8433" y="142.335" width="135.377" height="16.6768" fill="url(#paint10_linear_663_1011)"/>
<rect x="8.8433" y="142.335" width="135.377" height="16.6768" stroke="url(#paint11_linear_663_1011)" stroke-width="2.94297"/>
<path d="M215.832 158.365V234.548H139.315V111.605L215.832 158.365Z" fill="#F6EFF7"/>
<path d="M215.832 158.365V234.548H139.315V111.605L215.832 158.365Z" fill="url(#paint12_linear_663_1011)"/>
<path d="M215.832 158.365V234.548H139.315V111.605L215.832 158.365Z" fill="url(#paint13_linear_663_1011)"/>
<path d="M215.832 158.365V234.548H139.315V111.605L215.832 158.365Z" stroke="url(#paint14_linear_663_1011)" stroke-width="2.94297"/>
<path d="M294.311 158.365V234.548H217.794V111.605L294.311 158.365Z" fill="#D2B2D8"/>
<path d="M294.311 158.365V234.548H217.794V111.605L294.311 158.365Z" fill="url(#paint15_linear_663_1011)"/>
<path d="M294.311 158.365V234.548H217.794V111.605L294.311 158.365Z" fill="url(#paint16_linear_663_1011)"/>
<path d="M294.311 158.365V234.548H217.794V111.605L294.311 158.365Z" stroke="url(#paint17_linear_663_1011)" stroke-width="2.94297"/>
<path d="M173.159 17.7343C174.243 17.7343 175.121 16.8559 175.121 15.7723C175.121 14.6888 174.243 13.8104 173.159 13.8104V15.7723V17.7343ZM152.558 15.7723V17.7343H173.159V15.7723V13.8104H152.558V15.7723ZM145.691 30.4872H147.653V22.6393H145.691H143.729V30.4872H145.691ZM152.558 15.7723V13.8104C147.682 13.8104 143.729 17.7632 143.729 22.6393H145.691H147.653C147.653 19.9303 149.849 17.7343 152.558 17.7343V15.7723Z" fill="url(#paint18_linear_663_1011)"/>
<path d="M173.159 17.7343C174.243 17.7343 175.121 16.8559 175.121 15.7723C175.121 14.6888 174.243 13.8104 173.159 13.8104V15.7723V17.7343ZM152.558 15.7723V17.7343H173.159V15.7723V13.8104H152.558V15.7723ZM145.691 30.4872H147.653V22.6393H145.691H143.729V30.4872H145.691ZM152.558 15.7723V13.8104C147.682 13.8104 143.729 17.7632 143.729 22.6393H145.691H147.653C147.653 19.9303 149.849 17.7343 152.558 17.7343V15.7723Z" fill="url(#paint19_linear_663_1011)" fill-opacity="0.6"/>
<path d="M173.159 5.472C174.514 5.472 175.612 4.374 175.612 3.01953C175.612 1.66507 174.514 0.567058 173.159 0.567058V3.01953V5.472ZM138.824 3.01953V5.472H173.159V3.01953V0.567058H138.824V3.01953ZM131.957 30.4872H134.41V9.88646H131.957H129.505V30.4872H131.957ZM138.824 3.01953V0.567058C133.677 0.567058 129.505 4.73949 129.505 9.88646H131.957H134.41C134.41 7.44842 136.386 5.472 138.824 5.472V3.01953Z" fill="url(#paint20_linear_663_1011)"/>
<path d="M173.159 5.472C174.514 5.472 175.612 4.374 175.612 3.01953C175.612 1.66507 174.514 0.567058 173.159 0.567058V3.01953V5.472ZM138.824 3.01953V5.472H173.159V3.01953V0.567058H138.824V3.01953ZM131.957 30.4872H134.41V9.88646H131.957H129.505V30.4872H131.957ZM138.824 3.01953V0.567058C133.677 0.567058 129.505 4.73949 129.505 9.88646H131.957H134.41C134.41 7.44842 136.386 5.472 138.824 5.472V3.01953Z" fill="url(#paint21_linear_663_1011)" fill-opacity="0.6"/>
<path d="M243.79 17.7343C244.874 17.7343 245.752 16.8559 245.752 15.7723C245.752 14.6888 244.874 13.8104 243.79 13.8104V15.7723V17.7343ZM223.19 15.7723V17.7343H243.79V15.7723V13.8104H223.19V15.7723ZM216.323 30.4872H218.285V22.6393H216.323H214.361V30.4872H216.323ZM223.19 15.7723V13.8104C218.313 13.8104 214.361 17.7632 214.361 22.6393H216.323H218.285C218.285 19.9303 220.481 17.7343 223.19 17.7343V15.7723Z" fill="url(#paint22_linear_663_1011)"/>
<path d="M243.79 17.7343C244.874 17.7343 245.752 16.8559 245.752 15.7723C245.752 14.6888 244.874 13.8104 243.79 13.8104V15.7723V17.7343ZM223.19 15.7723V17.7343H243.79V15.7723V13.8104H223.19V15.7723ZM216.323 30.4872H218.285V22.6393H216.323H214.361V30.4872H216.323ZM223.19 15.7723V13.8104C218.313 13.8104 214.361 17.7632 214.361 22.6393H216.323H218.285C218.285 19.9303 220.481 17.7343 223.19 17.7343V15.7723Z" fill="url(#paint23_linear_663_1011)" fill-opacity="0.6"/>
<path d="M243.79 5.472C245.145 5.472 246.243 4.374 246.243 3.01953C246.243 1.66507 245.145 0.567058 243.79 0.567058V3.01953V5.472ZM209.456 3.01953V5.472H243.79V3.01953V0.567058H209.456V3.01953ZM202.589 30.4872H205.041V9.88646H202.589H200.136V30.4872H202.589ZM209.456 3.01953V0.567058C204.309 0.567058 200.136 4.73949 200.136 9.88646H202.589H205.041C205.041 7.44842 207.018 5.472 209.456 5.472V3.01953Z" fill="url(#paint24_linear_663_1011)"/>
<path d="M243.79 5.472C245.145 5.472 246.243 4.374 246.243 3.01953C246.243 1.66507 245.145 0.567058 243.79 0.567058V3.01953V5.472ZM209.456 3.01953V5.472H243.79V3.01953V0.567058H209.456V3.01953ZM202.589 30.4872H205.041V9.88646H202.589H200.136V30.4872H202.589ZM209.456 3.01953V0.567058C204.309 0.567058 200.136 4.73949 200.136 9.88646H202.589H205.041C205.041 7.44842 207.018 5.472 209.456 5.472V3.01953Z" fill="url(#paint25_linear_663_1011)" fill-opacity="0.6"/>
<rect x="60.8357" y="192.365" width="38.2586" height="42.1825" fill="white" fill-opacity="0.76" stroke="url(#paint26_linear_663_1011)" stroke-width="2.94297"/>
<rect x="166.292" y="161.464" width="19.6198" height="19.6198" fill="url(#paint27_linear_663_1011)" stroke="url(#paint28_linear_663_1011)" stroke-width="1.96198"/>
<rect x="245.752" y="161.464" width="19.6198" height="19.6198" fill="url(#paint29_linear_663_1011)" stroke="url(#paint30_linear_663_1011)" stroke-width="1.96198"/>
<g filter="url(#filter1_d_663_1011)">
<g filter="url(#filter2_n_663_1011)">
<path d="M72.1648 129.399C75.0429 122.615 73.461 118.561 72.1648 117.32C89.3733 118.643 96.428 126.917 97.7405 140.568C98.5255 148.732 92.3517 156.37 85.9812 161.416C80.2726 165.939 85.9812 170.815 78.618 170.186C71.8339 169.607 62.1541 162.244 60.5822 154.632C58.6857 145.449 68.69 137.589 72.1648 129.399Z" fill="url(#paint31_linear_663_1011)"/>
</g>
<g filter="url(#filter3_i_663_1011)">
<path d="M63.8209 153.725C63.8063 152.137 64.1603 150.735 64.6901 149.365C65.163 148.142 65.8302 147.024 66.5227 145.92C68.4783 142.803 70.4515 139.697 72.3832 136.566C73.326 135.037 74.2159 133.474 75.0865 131.903C75.8889 130.455 76.5307 128.932 77.006 127.343C77.3361 126.238 77.4728 125.112 77.3185 123.961C77.1795 122.927 76.8056 121.989 76.1637 121.161C75.9234 120.852 75.6923 120.536 75.462 120.219C75.4144 120.153 75.3837 120.071 75.3622 119.991C75.3545 119.963 75.389 119.905 75.419 119.89C75.4474 119.876 75.5065 119.888 75.5311 119.911C75.6002 119.974 75.6601 120.046 75.7199 120.118C76.7004 121.288 77.6187 122.504 78.4717 123.77C79.4721 125.255 80.421 126.77 81.2717 128.346C82.0664 129.818 82.7267 131.35 83.1651 132.969C83.2941 133.445 83.3601 133.933 83.3977 134.428C83.4737 135.413 83.2319 136.332 82.8894 137.239C82.3528 138.661 81.5804 139.953 80.709 141.187C79.3915 143.052 78.0509 144.9 76.7257 146.76C75.8651 147.967 75.0458 149.202 74.3548 150.518C73.5732 152.006 72.9122 153.543 72.4792 155.175C72.0784 156.685 72.1083 158.182 72.5099 159.689C73.0174 161.59 73.9295 163.272 75.1794 164.783C75.6079 165.301 76.0271 165.827 76.4424 166.355C76.5468 166.488 76.6313 166.639 76.7081 166.79C76.7856 166.943 76.7334 167.043 76.553 167.042C76.3349 167.04 76.1031 167.03 75.9019 166.957C75.4067 166.776 74.9199 166.571 74.4401 166.352C72.5644 165.496 70.8046 164.448 69.1908 163.16C67.7013 161.972 66.3991 160.615 65.3964 158.985C64.7484 157.932 64.2609 156.812 64.019 155.595C63.8893 154.944 63.7756 154.289 63.8179 153.727L63.8209 153.725Z" fill="url(#paint32_linear_663_1011)"/>
</g>
<g filter="url(#filter4_i_663_1011)">
<path d="M90.9938 136.793C91.0038 138.688 90.5958 140.497 89.9327 142.257C89.3473 143.811 88.5636 145.261 87.6109 146.619C87.0139 147.47 86.4431 148.342 85.8007 149.156C85.1377 149.998 84.4078 150.787 83.6956 151.589C82.205 153.269 80.6515 154.895 79.2424 156.648C78.2851 157.838 77.3846 159.069 76.6824 160.429C76.4573 160.866 76.2998 161.338 76.1231 161.799C76.0132 162.086 75.9072 162.373 75.7182 162.62C75.6767 162.674 75.636 162.729 75.5891 162.778C75.4224 162.954 75.281 162.958 75.1112 162.781C74.8938 162.555 74.7624 162.279 74.6748 161.981C74.5142 161.432 74.4097 160.871 74.3682 160.302C74.3237 159.691 74.2776 159.078 74.2906 158.468C74.3152 157.321 74.3498 156.172 74.545 155.037C74.6879 154.204 74.923 153.396 75.2172 152.604C75.8204 150.98 76.6632 149.486 77.662 148.076C78.9174 146.303 80.1729 144.53 81.4352 142.762C82.4401 141.355 83.273 139.855 83.9007 138.244C84.3963 136.972 84.7827 135.668 85.034 134.325C85.2268 133.296 85.3897 132.262 85.4604 131.217C85.4888 130.802 85.5449 130.386 85.5349 129.971C85.5057 128.798 85.4681 127.625 85.1769 126.476C84.8603 125.224 84.2879 124.105 83.4858 123.099C83.3106 122.88 83.1232 122.67 82.9419 122.455C82.8927 122.397 82.8328 122.342 82.7997 122.276C82.7736 122.223 82.7528 122.133 82.7797 122.095C82.8374 122.015 82.9311 122.035 83.0064 122.09C83.0471 122.12 83.0786 122.161 83.114 122.199C83.6072 122.728 84.1012 123.257 84.593 123.789C85.6571 124.939 86.7496 126.063 87.7753 127.246C89.0845 128.756 89.9589 130.508 90.4513 132.447C90.6427 133.2 90.7648 133.964 90.8417 134.735C90.91 135.42 90.9446 136.108 90.9938 136.795V136.793Z" fill="url(#paint33_linear_663_1011)"/>
</g>
<g filter="url(#filter5_i_663_1011)">
<path d="M92.6978 138.011C92.8859 137.986 92.9243 138.109 92.9596 138.219C93.0763 138.583 93.1899 138.949 93.2974 139.315C93.5968 140.338 93.7672 141.385 93.8463 142.447C93.8793 142.887 93.92 143.326 93.943 143.767C93.9829 144.544 93.9 145.311 93.7327 146.07C93.53 146.992 93.3296 147.918 92.912 148.772C92.6095 149.389 92.2732 149.992 91.9293 150.588C91.1178 151.993 90.1443 153.28 89.0304 154.46C88.5813 154.936 88.1367 155.418 87.6753 155.882C86.9376 156.625 86.1767 157.345 85.4459 158.095C84.5615 159.002 83.6993 159.931 82.9654 160.97C82.3044 161.905 81.7439 162.895 81.3286 163.961C81.0069 164.785 80.9125 165.638 81.1374 166.51C81.1505 166.559 81.1551 166.61 81.1643 166.66C81.1796 166.741 81.1743 166.829 81.086 166.85C81.0223 166.865 80.9202 166.856 80.8802 166.815C80.7167 166.644 80.5294 166.477 80.425 166.271C79.9221 165.28 79.5559 164.241 79.4208 163.132C79.3171 162.276 79.311 161.419 79.4415 160.566C79.6135 159.444 80.0542 158.424 80.7267 157.517C81.1405 156.958 81.6057 156.436 82.0571 155.906C82.7289 155.116 83.403 154.328 84.087 153.548C84.4847 153.094 84.9062 152.661 85.3131 152.215C86.0746 151.38 86.8477 150.554 87.5886 149.701C88.3463 148.828 89.0879 147.939 89.8065 147.034C90.4476 146.226 90.9973 145.354 91.461 144.433C92.0483 143.267 92.4959 142.049 92.7469 140.764C92.839 140.295 92.8398 139.818 92.8022 139.343C92.7699 138.937 92.72 138.533 92.6794 138.128C92.6763 138.096 92.6878 138.063 92.6955 138.012L92.6978 138.011Z" fill="url(#paint34_linear_663_1011)"/>
</g>
</g>
</g>
<defs>
<filter id="filter0_d_663_1011" x="1.16825e-05" y="1.52588e-05" width="308.825" height="255.867" filterUnits="userSpaceOnUse" color-interpolation-filters="sRGB">
<feFlood flood-opacity="0" result="BackgroundImageFix"/>
<feColorMatrix in="SourceAlpha" type="matrix" values="0 0 0 0 0 0 0 0 0 0 0 0 0 0 0 0 0 0 127 0" result="hardAlpha"/>
<feOffset dx="2.83531" dy="9.64007"/>
<feGaussianBlur stdDeviation="5.10356"/>
<feComposite in2="hardAlpha" operator="out"/>
<feColorMatrix type="matrix" values="0 0 0 0 0 0 0 0 0 0 0 0 0 0 0 0 0 0 0.35 0"/>
<feBlend mode="normal" in2="BackgroundImageFix" result="effect1_dropShadow_663_1011"/>
<feBlend mode="normal" in="SourceGraphic" in2="effect1_dropShadow_663_1011" result="shape"/>
</filter>
<filter id="filter1_d_663_1011" x="60.3452" y="117.32" width="38.444" height="53.9023" filterUnits="userSpaceOnUse" color-interpolation-filters="sRGB">
<feFlood flood-opacity="0" result="BackgroundImageFix"/>
<feColorMatrix in="SourceAlpha" type="matrix" values="0 0 0 0 0 0 0 0 0 0 0 0 0 0 0 0 0 0 127 0" result="hardAlpha"/>
<feOffset dx="0.98099" dy="0.98099"/>
<feComposite in2="hardAlpha" operator="out"/>
<feColorMatrix type="matrix" values="0 0 0 0 0 0 0 0 0 0 0 0 0 0 0 0 0 0 0.31 0"/>
<feBlend mode="normal" in2="BackgroundImageFix" result="effect1_dropShadow_663_1011"/>
<feBlend mode="normal" in="SourceGraphic" in2="effect1_dropShadow_663_1011" result="shape"/>
</filter>
<filter id="filter2_n_663_1011" x="60.3452" y="117.32" width="37.463" height="52.9213" filterUnits="userSpaceOnUse" color-interpolation-filters="sRGB">
<feFlood flood-opacity="0" result="BackgroundImageFix"/>
<feBlend mode="normal" in="SourceGraphic" in2="BackgroundImageFix" result="shape"/>
<feTurbulence type="fractalNoise" baseFrequency="2.5484471321105957 2.5484471321105957" stitchTiles="stitch" numOctaves="3" result="noise" seed="3048" />
<feComponentTransfer in="noise" result="coloredNoise1">
<feFuncR type="linear" slope="2" intercept="-0.5" />
<feFuncG type="linear" slope="2" intercept="-0.5" />
<feFuncB type="linear" slope="2" intercept="-0.5" />
<feFuncA type="discrete" tableValues="0 1 1 1 1 1 1 1 1 1 1 1 1 1 1 1 1 1 1 1 1 1 1 1 1 1 1 1 1 1 1 1 1 1 1 1 1 1 1 1 1 1 1 1 1 1 1 1 1 0 0 0 0 0 0 0 0 0 0 0 0 0 0 0 0 0 0 0 0 0 0 0 0 0 0 0 0 0 0 0 0 0 0 0 0 0 0 0 0 0 0 0 0 0 0 0 0 0 0 0 "/>
</feComponentTransfer>
<feComposite operator="in" in2="shape" in="coloredNoise1" result="noise1Clipped" />
<feComponentTransfer in="noise1Clipped" result="color1">
<feFuncA type="table" tableValues="0 0.15" />
</feComponentTransfer>
<feMerge result="effect1_noise_663_1011">
<feMergeNode in="shape" />
<feMergeNode in="color1" />
</feMerge>
</filter>
<filter id="filter3_i_663_1011" x="63.8089" y="119.884" width="33.7898" height="75.5316" filterUnits="userSpaceOnUse" color-interpolation-filters="sRGB">
<feFlood flood-opacity="0" result="BackgroundImageFix"/>
<feBlend mode="normal" in="SourceGraphic" in2="BackgroundImageFix" result="shape"/>
<feColorMatrix in="SourceAlpha" type="matrix" values="0 0 0 0 0 0 0 0 0 0 0 0 0 0 0 0 0 0 127 0" result="hardAlpha"/>
<feOffset dx="14.1869" dy="28.3739"/>
<feGaussianBlur stdDeviation="28.3739"/>
<feComposite in2="hardAlpha" operator="arithmetic" k2="-1" k3="1"/>
<feColorMatrix type="matrix" values="0 0 0 0 0 0 0 0 0 0.941176 0 0 0 0 1 0 0 0 0.07 0"/>
<feBlend mode="plus-lighter" in2="shape" result="effect1_innerShadow_663_1011"/>
</filter>
<filter id="filter4_i_663_1011" x="74.2884" y="122.042" width="30.8925" height="69.2439" filterUnits="userSpaceOnUse" color-interpolation-filters="sRGB">
<feFlood flood-opacity="0" result="BackgroundImageFix"/>
<feBlend mode="normal" in="SourceGraphic" in2="BackgroundImageFix" result="shape"/>
<feColorMatrix in="SourceAlpha" type="matrix" values="0 0 0 0 0 0 0 0 0 0 0 0 0 0 0 0 0 0 127 0" result="hardAlpha"/>
<feOffset dx="14.1869" dy="28.3739"/>
<feGaussianBlur stdDeviation="28.3739"/>
<feComposite in2="hardAlpha" operator="arithmetic" k2="-1" k3="1"/>
<feColorMatrix type="matrix" values="0 0 0 0 0 0 0 0 0 0.941176 0 0 0 0 1 0 0 0 0.07 0"/>
<feBlend mode="plus-lighter" in2="shape" result="effect1_innerShadow_663_1011"/>
</filter>
<filter id="filter5_i_663_1011" x="79.3433" y="138.008" width="28.7966" height="57.2233" filterUnits="userSpaceOnUse" color-interpolation-filters="sRGB">
<feFlood flood-opacity="0" result="BackgroundImageFix"/>
<feBlend mode="normal" in="SourceGraphic" in2="BackgroundImageFix" result="shape"/>
<feColorMatrix in="SourceAlpha" type="matrix" values="0 0 0 0 0 0 0 0 0 0 0 0 0 0 0 0 0 0 127 0" result="hardAlpha"/>
<feOffset dx="14.1869" dy="28.3739"/>
<feGaussianBlur stdDeviation="28.3739"/>
<feComposite in2="hardAlpha" operator="arithmetic" k2="-1" k3="1"/>
<feColorMatrix type="matrix" values="0 0 0 0 0 0 0 0 0 0.941176 0 0 0 0 1 0 0 0 0.07 0"/>
<feBlend mode="plus-lighter" in2="shape" result="effect1_innerShadow_663_1011"/>
</filter>
<linearGradient id="paint0_linear_663_1011" x1="119.894" y1="68.6946" x2="165.412" y2="168.953" gradientUnits="userSpaceOnUse">
<stop stop-color="#A68BBA"/>
<stop offset="1" stop-color="#562567"/>
</linearGradient>
<linearGradient id="paint1_linear_663_1011" x1="139.805" y1="38.3349" x2="139.805" y2="180.578" gradientUnits="userSpaceOnUse">
<stop stop-color="#DDCFE4"/>
<stop offset="1" stop-color="#D98EE6"/>
</linearGradient>
<linearGradient id="paint2_linear_663_1011" x1="139.805" y1="38.3349" x2="139.805" y2="180.578" gradientUnits="userSpaceOnUse">
<stop stop-color="#56205F"/>
<stop offset="1" stop-color="#280636"/>
</linearGradient>
<linearGradient id="paint3_linear_663_1011" x1="192.625" y1="70.9978" x2="244.54" y2="175.24" gradientUnits="userSpaceOnUse">
<stop stop-color="#A68BBA"/>
<stop offset="1" stop-color="#562567"/>
</linearGradient>
<linearGradient id="paint4_linear_663_1011" x1="212.153" y1="38.335" x2="212.153" y2="191.369" gradientUnits="userSpaceOnUse">
<stop stop-color="#DDCFE4"/>
<stop offset="1" stop-color="#D98EE6"/>
</linearGradient>
<linearGradient id="paint5_linear_663_1011" x1="212.153" y1="38.335" x2="212.153" y2="191.369" gradientUnits="userSpaceOnUse">
<stop stop-color="#56205F"/>
<stop offset="1" stop-color="#280636"/>
</linearGradient>
<linearGradient id="paint6_linear_663_1011" x1="80.4556" y1="157.54" x2="80.4556" y2="236.02" gradientUnits="userSpaceOnUse">
<stop stop-color="#F8F0FC"/>
<stop offset="1" stop-color="#CFACD5"/>
</linearGradient>
<linearGradient id="paint7_linear_663_1011" x1="29.8413" y1="236.02" x2="142.942" y2="236.106" gradientUnits="userSpaceOnUse">
<stop stop-color="#7B337D"/>
<stop offset="1" stop-color="#210535"/>
</linearGradient>
<linearGradient id="paint8_linear_663_1011" x1="80.4556" y1="157.54" x2="80.4556" y2="236.02" gradientUnits="userSpaceOnUse">
<stop stop-color="#56205F"/>
<stop offset="1" stop-color="#280636"/>
</linearGradient>
<linearGradient id="paint9_linear_663_1011" x1="76.5316" y1="143.807" x2="76.5316" y2="157.54" gradientUnits="userSpaceOnUse">
<stop stop-color="#F8F0FC"/>
<stop offset="1" stop-color="#CFACD5"/>
</linearGradient>
<linearGradient id="paint10_linear_663_1011" x1="18.1305" y1="157.54" x2="154.208" y2="157.604" gradientUnits="userSpaceOnUse">
<stop stop-color="#7B337D"/>
<stop offset="1" stop-color="#210535"/>
</linearGradient>
<linearGradient id="paint11_linear_663_1011" x1="24.8386" y1="146.738" x2="25.0357" y2="158.41" gradientUnits="userSpaceOnUse">
<stop stop-color="#4B1A55"/>
<stop offset="1" stop-color="#541F5D"/>
</linearGradient>
<linearGradient id="paint12_linear_663_1011" x1="177.573" y1="108.981" x2="177.573" y2="236.02" gradientUnits="userSpaceOnUse">
<stop stop-color="#DDCFE4"/>
<stop offset="1" stop-color="#D98EE6"/>
</linearGradient>
<linearGradient id="paint13_linear_663_1011" x1="146.558" y1="136.096" x2="172.886" y2="237.24" gradientUnits="userSpaceOnUse">
<stop stop-color="#A68BBA"/>
<stop offset="1" stop-color="#562567"/>
</linearGradient>
<linearGradient id="paint14_linear_663_1011" x1="177.573" y1="108.981" x2="177.573" y2="236.02" gradientUnits="userSpaceOnUse">
<stop stop-color="#56205F"/>
<stop offset="1" stop-color="#280636"/>
</linearGradient>
<linearGradient id="paint15_linear_663_1011" x1="256.053" y1="108.981" x2="256.053" y2="236.02" gradientUnits="userSpaceOnUse">
<stop stop-color="#DDCFE4"/>
<stop offset="1" stop-color="#D98EE6"/>
</linearGradient>
<linearGradient id="paint16_linear_663_1011" x1="225.037" y1="136.096" x2="251.365" y2="237.24" gradientUnits="userSpaceOnUse">
<stop stop-color="#A68BBA"/>
<stop offset="1" stop-color="#562567"/>
</linearGradient>
<linearGradient id="paint17_linear_663_1011" x1="256.053" y1="108.981" x2="256.053" y2="236.02" gradientUnits="userSpaceOnUse">
<stop stop-color="#56205F"/>
<stop offset="1" stop-color="#280636"/>
</linearGradient>
<linearGradient id="paint18_linear_663_1011" x1="159.425" y1="15.7723" x2="159.425" y2="30.4872" gradientUnits="userSpaceOnUse">
<stop stop-color="#F8F0FC"/>
<stop offset="1" stop-color="#D3B7D8"/>
</linearGradient>
<linearGradient id="paint19_linear_663_1011" x1="148.704" y1="18.913" x2="149.787" y2="31.3279" gradientUnits="userSpaceOnUse">
<stop stop-color="#4B1A55"/>
<stop offset="1" stop-color="#541F5D"/>
</linearGradient>
<linearGradient id="paint20_linear_663_1011" x1="152.558" y1="3.01953" x2="152.558" y2="30.4872" gradientUnits="userSpaceOnUse">
<stop stop-color="#F8F0FC"/>
<stop offset="1" stop-color="#D3B7D8"/>
</linearGradient>
<linearGradient id="paint21_linear_663_1011" x1="136.476" y1="8.8821" x2="138.981" y2="31.9609" gradientUnits="userSpaceOnUse">
<stop stop-color="#4B1A55"/>
<stop offset="1" stop-color="#541F5D"/>
</linearGradient>
<linearGradient id="paint22_linear_663_1011" x1="230.056" y1="15.7723" x2="230.056" y2="30.4872" gradientUnits="userSpaceOnUse">
<stop stop-color="#F8F0FC"/>
<stop offset="1" stop-color="#D3B7D8"/>
</linearGradient>
<linearGradient id="paint23_linear_663_1011" x1="219.335" y1="18.913" x2="220.418" y2="31.3279" gradientUnits="userSpaceOnUse">
<stop stop-color="#4B1A55"/>
<stop offset="1" stop-color="#541F5D"/>
</linearGradient>
<linearGradient id="paint24_linear_663_1011" x1="223.19" y1="3.01953" x2="223.19" y2="30.4872" gradientUnits="userSpaceOnUse">
<stop stop-color="#F8F0FC"/>
<stop offset="1" stop-color="#D3B7D8"/>
</linearGradient>
<linearGradient id="paint25_linear_663_1011" x1="207.107" y1="8.8821" x2="209.612" y2="31.9609" gradientUnits="userSpaceOnUse">
<stop stop-color="#4B1A55"/>
<stop offset="1" stop-color="#541F5D"/>
</linearGradient>
<linearGradient id="paint26_linear_663_1011" x1="79.965" y1="193.837" x2="79.965" y2="233.076" gradientUnits="userSpaceOnUse">
<stop stop-color="#56205F"/>
<stop offset="1" stop-color="#280636"/>
</linearGradient>
<linearGradient id="paint27_linear_663_1011" x1="176.102" y1="162.445" x2="176.102" y2="180.103" gradientUnits="userSpaceOnUse">
<stop stop-color="#F8F0FC"/>
<stop offset="1" stop-color="#D3B7D8"/>
</linearGradient>
<linearGradient id="paint28_linear_663_1011" x1="176.102" y1="162.445" x2="176.102" y2="180.103" gradientUnits="userSpaceOnUse">
<stop stop-color="#210535"/>
<stop offset="1" stop-color="#7B337D"/>
</linearGradient>
<linearGradient id="paint29_linear_663_1011" x1="255.562" y1="162.445" x2="255.562" y2="180.103" gradientUnits="userSpaceOnUse">
<stop stop-color="#F8F0FC"/>
<stop offset="1" stop-color="#D3B7D8"/>
</linearGradient>
<linearGradient id="paint30_linear_663_1011" x1="255.562" y1="162.445" x2="255.562" y2="180.103" gradientUnits="userSpaceOnUse">
<stop stop-color="#210535"/>
<stop offset="1" stop-color="#7B337D"/>
</linearGradient>
<linearGradient id="paint31_linear_663_1011" x1="79.0767" y1="117.32" x2="79.0767" y2="170.241" gradientUnits="userSpaceOnUse">
<stop stop-color="#F8F0FC"/>
<stop offset="1" stop-color="#D3B7D8"/>
</linearGradient>
<linearGradient id="paint32_linear_663_1011" x1="73.6103" y1="119.884" x2="73.6103" y2="167.042" gradientUnits="userSpaceOnUse">
<stop stop-color="#986B9C"/>
<stop offset="0.581514" stop-color="#430D4B"/>
<stop offset="1" stop-color="#7B337D"/>
</linearGradient>
<linearGradient id="paint33_linear_663_1011" x1="82.6412" y1="122.042" x2="82.6412" y2="162.912" gradientUnits="userSpaceOnUse">
<stop stop-color="#986B9C"/>
<stop offset="0.581514" stop-color="#430D4B"/>
<stop offset="1" stop-color="#7B337D"/>
</linearGradient>
<linearGradient id="paint34_linear_663_1011" x1="86.6481" y1="138.008" x2="86.6481" y2="166.857" gradientUnits="userSpaceOnUse">
<stop stop-color="#986B9C"/>
<stop offset="0.581514" stop-color="#430D4B"/>
<stop offset="1" stop-color="#7B337D"/>
</linearGradient>
</defs>
</svg>
