<svg width="270" height="224" viewBox="0 0 270 224" fill="none" xmlns="http://www.w3.org/2000/svg">
<g filter="url(#filter0_d_663_1207)">
<g filter="url(#filter1_i_663_1207)">
<path d="M169.342 108.079C169.321 105.738 169.843 103.67 170.624 101.65C171.321 99.8469 172.305 98.1987 173.326 96.5709C176.209 91.9751 179.119 87.3951 181.967 82.7778C183.357 80.5241 184.669 78.2194 185.953 75.9022C187.136 73.7673 188.082 71.5215 188.783 69.1794C189.27 67.5505 189.471 65.8899 189.244 64.1931C189.039 62.6683 188.488 61.285 187.541 60.0647C187.187 59.6086 186.846 59.1422 186.507 58.6747C186.436 58.5773 186.391 58.4562 186.359 58.3385C186.348 58.2977 186.399 58.2128 186.443 58.1902C186.485 58.1698 186.572 58.1868 186.608 58.2208C186.71 58.3136 186.799 58.42 186.887 58.5264C188.333 60.2515 189.687 62.0446 190.944 63.9112C192.419 66.1004 193.819 68.335 195.073 70.6578C196.245 72.8289 197.218 75.0872 197.865 77.4745C198.055 78.1763 198.152 78.8963 198.208 79.6264C198.32 81.0787 197.963 82.4326 197.458 83.7706C196.667 85.867 195.528 87.7721 194.243 89.5923C192.3 92.3419 190.324 95.0665 188.37 97.8082C187.101 99.5888 185.893 101.41 184.874 103.349C183.722 105.544 182.747 107.81 182.109 110.216C181.518 112.443 181.562 114.651 182.154 116.872C182.902 119.676 184.247 122.156 186.09 124.382C186.722 125.146 187.34 125.922 187.952 126.701C188.106 126.897 188.231 127.12 188.344 127.343C188.458 127.568 188.381 127.716 188.115 127.714C187.794 127.712 187.452 127.696 187.155 127.588C186.425 127.322 185.707 127.019 185 126.696C182.234 125.434 179.639 123.889 177.26 121.991C175.064 120.238 173.144 118.237 171.665 115.834C170.71 114.282 169.991 112.63 169.634 110.836C169.443 109.876 169.275 108.909 169.338 108.082L169.342 108.079Z" fill="#EACAED"/>
<path d="M169.342 108.079C169.321 105.738 169.843 103.67 170.624 101.65C171.321 99.8469 172.305 98.1987 173.326 96.5709C176.209 91.9751 179.119 87.3951 181.967 82.7778C183.357 80.5241 184.669 78.2194 185.953 75.9022C187.136 73.7673 188.082 71.5215 188.783 69.1794C189.27 67.5505 189.471 65.8899 189.244 64.1931C189.039 62.6683 188.488 61.285 187.541 60.0647C187.187 59.6086 186.846 59.1422 186.507 58.6747C186.436 58.5773 186.391 58.4562 186.359 58.3385C186.348 58.2977 186.399 58.2128 186.443 58.1902C186.485 58.1698 186.572 58.1868 186.608 58.2208C186.71 58.3136 186.799 58.42 186.887 58.5264C188.333 60.2515 189.687 62.0446 190.944 63.9112C192.419 66.1004 193.819 68.335 195.073 70.6578C196.245 72.8289 197.218 75.0872 197.865 77.4745C198.055 78.1763 198.152 78.8963 198.208 79.6264C198.32 81.0787 197.963 82.4326 197.458 83.7706C196.667 85.867 195.528 87.7721 194.243 89.5923C192.3 92.3419 190.324 95.0665 188.37 97.8082C187.101 99.5888 185.893 101.41 184.874 103.349C183.722 105.544 182.747 107.81 182.109 110.216C181.518 112.443 181.562 114.651 182.154 116.872C182.902 119.676 184.247 122.156 186.09 124.382C186.722 125.146 187.34 125.922 187.952 126.701C188.106 126.897 188.231 127.12 188.344 127.343C188.458 127.568 188.381 127.716 188.115 127.714C187.794 127.712 187.452 127.696 187.155 127.588C186.425 127.322 185.707 127.019 185 126.696C182.234 125.434 179.639 123.889 177.26 121.991C175.064 120.238 173.144 118.237 171.665 115.834C170.71 114.282 169.991 112.63 169.634 110.836C169.443 109.876 169.275 108.909 169.338 108.082L169.342 108.079Z" fill="#461A52"/>
</g>
<g filter="url(#filter2_i_663_1207)">
<path d="M209.408 83.1126C209.422 85.9071 208.821 88.5738 207.843 91.1691C206.98 93.4611 205.825 95.598 204.42 97.6013C203.54 98.8554 202.698 100.141 201.751 101.342C200.773 102.583 199.697 103.746 198.647 104.929C196.449 107.407 194.158 109.804 192.081 112.388C190.669 114.142 189.342 115.958 188.306 117.963C187.974 118.607 187.742 119.303 187.481 119.982C187.319 120.406 187.163 120.829 186.884 121.193C186.823 121.273 186.763 121.354 186.694 121.427C186.448 121.686 186.24 121.692 185.989 121.431C185.669 121.098 185.475 120.691 185.346 120.252C185.109 119.443 184.955 118.614 184.894 117.775C184.828 116.876 184.76 115.971 184.78 115.071C184.816 113.38 184.867 111.686 185.155 110.012C185.365 108.784 185.712 107.593 186.146 106.425C187.035 104.031 188.278 101.828 189.751 99.7485C191.602 97.135 193.453 94.5205 195.314 91.9138C196.796 89.8392 198.024 87.6275 198.949 85.2518C199.68 83.3763 200.25 81.4533 200.62 79.4737C200.905 77.9559 201.145 76.4325 201.249 74.8909C201.291 74.2786 201.374 73.6651 201.359 73.0539C201.316 71.3245 201.26 69.595 200.831 67.9006C200.364 66.0546 199.52 64.4044 198.338 62.9217C198.079 62.598 197.803 62.289 197.535 61.972C197.463 61.886 197.375 61.8057 197.326 61.7072C197.287 61.6291 197.257 61.4967 197.296 61.4412C197.381 61.3224 197.52 61.3529 197.631 61.4333C197.691 61.4774 197.737 61.5385 197.789 61.594C198.517 62.375 199.245 63.1548 199.97 63.9381C201.539 65.6336 203.15 67.2917 204.662 69.0359C206.593 71.2622 207.882 73.8462 208.608 76.7052C208.89 77.8145 209.07 78.9418 209.183 80.0781C209.284 81.0877 209.335 82.103 209.408 83.116V83.1126Z" fill="#EACAED"/>
<path d="M209.408 83.1126C209.422 85.9071 208.821 88.5738 207.843 91.1691C206.98 93.4611 205.825 95.598 204.42 97.6013C203.54 98.8554 202.698 100.141 201.751 101.342C200.773 102.583 199.697 103.746 198.647 104.929C196.449 107.407 194.158 109.804 192.081 112.388C190.669 114.142 189.342 115.958 188.306 117.963C187.974 118.607 187.742 119.303 187.481 119.982C187.319 120.406 187.163 120.829 186.884 121.193C186.823 121.273 186.763 121.354 186.694 121.427C186.448 121.686 186.24 121.692 185.989 121.431C185.669 121.098 185.475 120.691 185.346 120.252C185.109 119.443 184.955 118.614 184.894 117.775C184.828 116.876 184.76 115.971 184.78 115.071C184.816 113.38 184.867 111.686 185.155 110.012C185.365 108.784 185.712 107.593 186.146 106.425C187.035 104.031 188.278 101.828 189.751 99.7485C191.602 97.135 193.453 94.5205 195.314 91.9138C196.796 89.8392 198.024 87.6275 198.949 85.2518C199.68 83.3763 200.25 81.4533 200.62 79.4737C200.905 77.9559 201.145 76.4325 201.249 74.8909C201.291 74.2786 201.374 73.6651 201.359 73.0539C201.316 71.3245 201.26 69.595 200.831 67.9006C200.364 66.0546 199.52 64.4044 198.338 62.9217C198.079 62.598 197.803 62.289 197.535 61.972C197.463 61.886 197.375 61.8057 197.326 61.7072C197.287 61.6291 197.257 61.4967 197.296 61.4412C197.381 61.3224 197.52 61.3529 197.631 61.4333C197.691 61.4774 197.737 61.5385 197.789 61.594C198.517 62.375 199.245 63.1548 199.97 63.9381C201.539 65.6336 203.15 67.2917 204.662 69.0359C206.593 71.2622 207.882 73.8462 208.608 76.7052C208.89 77.8145 209.07 78.9418 209.183 80.0781C209.284 81.0877 209.335 82.103 209.408 83.116V83.1126Z" fill="#461A52"/>
</g>
<g filter="url(#filter3_i_663_1207)">
<path d="M211.92 84.9087C212.198 84.8726 212.254 85.0534 212.306 85.2161C212.478 85.7528 212.646 86.2919 212.804 86.832C213.246 88.3406 213.497 89.8842 213.614 91.4504C213.662 92.099 213.722 92.7465 213.756 93.3963C213.815 94.5421 213.693 95.6733 213.446 96.792C213.147 98.1514 212.852 99.5165 212.236 100.775C211.79 101.686 211.294 102.574 210.787 103.453C209.591 105.525 208.155 107.422 206.513 109.162C205.851 109.864 205.195 110.575 204.515 111.26C203.427 112.355 202.305 113.417 201.228 114.522C199.923 115.86 198.652 117.229 197.57 118.761C196.595 120.139 195.769 121.599 195.157 123.171C194.682 124.387 194.543 125.645 194.875 126.93C194.894 127.002 194.901 127.078 194.914 127.151C194.937 127.271 194.929 127.401 194.799 127.431C194.705 127.454 194.555 127.44 194.496 127.379C194.255 127.127 193.978 126.881 193.824 126.578C193.083 125.117 192.543 123.584 192.344 121.948C192.191 120.687 192.182 119.423 192.374 118.165C192.628 116.511 193.278 115.008 194.269 113.67C194.879 112.846 195.565 112.077 196.231 111.295C197.221 110.13 198.215 108.968 199.224 107.818C199.81 107.149 200.432 106.51 201.032 105.852C202.155 104.621 203.295 103.403 204.387 102.145C205.504 100.858 206.598 99.5481 207.657 98.2135C208.602 97.0225 209.413 95.7365 210.097 94.3783C210.963 92.6584 211.622 90.8628 211.993 88.9689C212.128 88.2762 212.13 87.5733 212.074 86.8727C212.027 86.2749 211.953 85.6783 211.893 85.0816C211.888 85.0342 211.905 84.9856 211.917 84.911L211.92 84.9087Z" fill="#EACAED"/>
<path d="M211.92 84.9087C212.198 84.8726 212.254 85.0534 212.306 85.2161C212.478 85.7528 212.646 86.2919 212.804 86.832C213.246 88.3406 213.497 89.8842 213.614 91.4504C213.662 92.099 213.722 92.7465 213.756 93.3963C213.815 94.5421 213.693 95.6733 213.446 96.792C213.147 98.1514 212.852 99.5165 212.236 100.775C211.79 101.686 211.294 102.574 210.787 103.453C209.591 105.525 208.155 107.422 206.513 109.162C205.851 109.864 205.195 110.575 204.515 111.26C203.427 112.355 202.305 113.417 201.228 114.522C199.923 115.86 198.652 117.229 197.57 118.761C196.595 120.139 195.769 121.599 195.157 123.171C194.682 124.387 194.543 125.645 194.875 126.93C194.894 127.002 194.901 127.078 194.914 127.151C194.937 127.271 194.929 127.401 194.799 127.431C194.705 127.454 194.555 127.44 194.496 127.379C194.255 127.127 193.978 126.881 193.824 126.578C193.083 125.117 192.543 123.584 192.344 121.948C192.191 120.687 192.182 119.423 192.374 118.165C192.628 116.511 193.278 115.008 194.269 113.67C194.879 112.846 195.565 112.077 196.231 111.295C197.221 110.13 198.215 108.968 199.224 107.818C199.81 107.149 200.432 106.51 201.032 105.852C202.155 104.621 203.295 103.403 204.387 102.145C205.504 100.858 206.598 99.5481 207.657 98.2135C208.602 97.0225 209.413 95.7365 210.097 94.3783C210.963 92.6584 211.622 90.8628 211.993 88.9689C212.128 88.2762 212.13 87.5733 212.074 86.8727C212.027 86.2749 211.953 85.6783 211.893 85.0816C211.888 85.0342 211.905 84.9856 211.917 84.911L211.92 84.9087Z" fill="#461A52"/>
</g>
<path d="M36.9066 59.8232H48.9906L68.8083 96.5585L87.1759 59.8232H98.7765V242.291C98.7765 249.899 92.6089 256.067 85.0008 256.067C77.3927 256.067 71.2251 249.899 71.2251 242.291V175.829C71.2251 174.228 69.9267 172.929 68.3249 172.929C66.7232 172.929 65.4248 174.228 65.4248 175.829V241.808C65.4248 249.683 59.0408 256.067 51.1657 256.067C43.2906 256.067 36.9066 249.683 36.9066 241.808V59.8232Z" fill="url(#paint0_linear_663_1207)" stroke="#461A52" stroke-width="3"/>
<path d="M98.7766 59.8232H157.263C165.005 59.8232 171.28 66.0991 171.28 73.8406C171.28 81.5822 165.005 87.8581 157.263 87.8581H98.7766V59.8232Z" fill="url(#paint1_linear_663_1207)" stroke="#461A52" stroke-width="3"/>
<path d="M8.87183 83.0245C8.87183 70.2108 19.2594 59.8232 32.073 59.8232V165.195C32.073 171.602 26.8793 176.796 20.4724 176.796C14.0656 176.796 8.87183 171.602 8.87183 165.195V83.0245Z" fill="url(#paint2_linear_663_1207)" stroke="#461A52" stroke-width="3"/>
<rect x="32.0729" y="59.8232" width="4.83359" height="37.702" fill="url(#paint3_linear_663_1207)" stroke="#461A52" stroke-width="3"/>
<circle cx="67.6167" cy="29.2475" r="27.1805" fill="url(#paint4_linear_663_1207)" stroke="#461A52" stroke-width="3"/>
<path d="M157.263 97.5772L157.263 143.23C157.263 144.683 158.441 145.861 159.893 145.861L223.27 145.861C224.722 145.861 225.9 144.683 225.9 143.23L225.9 40.2188C225.9 38.7661 224.722 37.5885 223.27 37.5885L159.893 37.5885C158.441 37.5885 157.263 38.7661 157.263 40.2188L157.263 46.3673" stroke="url(#paint5_linear_663_1207)" stroke-width="6.13753" stroke-linecap="round"/>
<path d="M157.263 97.5772L157.263 143.23C157.263 144.683 158.441 145.861 159.893 145.861L223.27 145.861C224.722 145.861 225.9 144.683 225.9 143.23L225.9 40.2188C225.9 38.7661 224.722 37.5885 223.27 37.5885L159.893 37.5885C158.441 37.5885 157.263 38.7661 157.263 40.2188L157.263 46.3673" stroke="url(#paint6_linear_663_1207)" stroke-width="6.13753" stroke-linecap="round"/>
<path d="M132.612 46.7726L132.612 46.2892L132.612 18.9514C132.612 17.4986 133.789 16.321 135.242 16.321L250.821 16.321C252.274 16.321 253.451 17.4987 253.451 18.9514L253.451 207.731L132.612 207.731L132.612 98.0086" stroke="url(#paint7_linear_663_1207)" stroke-width="6.13753" stroke-linecap="round"/>
<path d="M132.612 46.7726L132.612 46.2892L132.612 18.9514C132.612 17.4986 133.789 16.321 135.242 16.321L250.821 16.321C252.274 16.321 253.451 17.4987 253.451 18.9514L253.451 207.731L132.612 207.731L132.612 98.0086" stroke="url(#paint8_linear_663_1207)" stroke-width="6.13753" stroke-linecap="round"/>
<path d="M129.618 207.731H256.451L272.786 245.433H114.244L129.618 207.731Z" fill="#D5B1DB"/>
<path d="M129.618 207.731H256.451L272.786 245.433H114.244L129.618 207.731Z" fill="url(#paint9_linear_663_1207)"/>
</g>
<defs>
<filter id="filter0_d_663_1207" x="1.16825e-05" y="-4.57764e-05" width="285.828" height="277.414" filterUnits="userSpaceOnUse" color-interpolation-filters="sRGB">
<feFlood flood-opacity="0" result="BackgroundImageFix"/>
<feColorMatrix in="SourceAlpha" type="matrix" values="0 0 0 0 0 0 0 0 0 0 0 0 0 0 0 0 0 0 127 0" result="hardAlpha"/>
<feOffset dx="2.83531" dy="9.64007"/>
<feGaussianBlur stdDeviation="5.10356"/>
<feComposite in2="hardAlpha" operator="out"/>
<feColorMatrix type="matrix" values="0 0 0 0 0 0 0 0 0 0 0 0 0 0 0 0 0 0 0.35 0"/>
<feBlend mode="normal" in2="BackgroundImageFix" result="effect1_dropShadow_663_1207"/>
<feBlend mode="normal" in="SourceGraphic" in2="effect1_dropShadow_663_1207" result="shape"/>
</filter>
<filter id="filter1_i_663_1207" x="169.325" y="58.1814" width="41.5837" height="94.8925" filterUnits="userSpaceOnUse" color-interpolation-filters="sRGB">
<feFlood flood-opacity="0" result="BackgroundImageFix"/>
<feBlend mode="normal" in="SourceGraphic" in2="BackgroundImageFix" result="shape"/>
<feColorMatrix in="SourceAlpha" type="matrix" values="0 0 0 0 0 0 0 0 0 0 0 0 0 0 0 0 0 0 127 0" result="hardAlpha"/>
<feOffset dx="12.68" dy="25.36"/>
<feGaussianBlur stdDeviation="25.36"/>
<feComposite in2="hardAlpha" operator="arithmetic" k2="-1" k3="1"/>
<feColorMatrix type="matrix" values="0 0 0 0 0 0 0 0 0 0.941176 0 0 0 0 1 0 0 0 0.07 0"/>
<feBlend mode="plus-lighter" in2="shape" result="effect1_innerShadow_663_1207"/>
</filter>
<filter id="filter2_i_663_1207" x="184.776" y="61.3623" width="37.3118" height="85.6215" filterUnits="userSpaceOnUse" color-interpolation-filters="sRGB">
<feFlood flood-opacity="0" result="BackgroundImageFix"/>
<feBlend mode="normal" in="SourceGraphic" in2="BackgroundImageFix" result="shape"/>
<feColorMatrix in="SourceAlpha" type="matrix" values="0 0 0 0 0 0 0 0 0 0 0 0 0 0 0 0 0 0 127 0" result="hardAlpha"/>
<feOffset dx="12.68" dy="25.36"/>
<feGaussianBlur stdDeviation="25.36"/>
<feComposite in2="hardAlpha" operator="arithmetic" k2="-1" k3="1"/>
<feColorMatrix type="matrix" values="0 0 0 0 0 0 0 0 0 0.941176 0 0 0 0 1 0 0 0 0.07 0"/>
<feBlend mode="plus-lighter" in2="shape" result="effect1_innerShadow_663_1207"/>
</filter>
<filter id="filter3_i_663_1207" x="192.229" y="84.9041" width="34.2215" height="67.8975" filterUnits="userSpaceOnUse" color-interpolation-filters="sRGB">
<feFlood flood-opacity="0" result="BackgroundImageFix"/>
<feBlend mode="normal" in="SourceGraphic" in2="BackgroundImageFix" result="shape"/>
<feColorMatrix in="SourceAlpha" type="matrix" values="0 0 0 0 0 0 0 0 0 0 0 0 0 0 0 0 0 0 127 0" result="hardAlpha"/>
<feOffset dx="12.68" dy="25.36"/>
<feGaussianBlur stdDeviation="25.36"/>
<feComposite in2="hardAlpha" operator="arithmetic" k2="-1" k3="1"/>
<feColorMatrix type="matrix" values="0 0 0 0 0 0 0 0 0 0.941176 0 0 0 0 1 0 0 0 0.07 0"/>
<feBlend mode="plus-lighter" in2="shape" result="effect1_innerShadow_663_1207"/>
</filter>
<linearGradient id="paint0_linear_663_1207" x1="67.8416" y1="59.8232" x2="67.8416" y2="256.067" gradientUnits="userSpaceOnUse">
<stop stop-color="#815489"/>
<stop offset="1" stop-color="#47114F"/>
</linearGradient>
<linearGradient id="paint1_linear_663_1207" x1="135.028" y1="59.8232" x2="135.028" y2="87.8581" gradientUnits="userSpaceOnUse">
<stop stop-color="#815489"/>
<stop offset="1" stop-color="#47114F"/>
</linearGradient>
<linearGradient id="paint2_linear_663_1207" x1="20.4724" y1="59.8232" x2="20.4724" y2="176.796" gradientUnits="userSpaceOnUse">
<stop stop-color="#815489"/>
<stop offset="1" stop-color="#47114F"/>
</linearGradient>
<linearGradient id="paint3_linear_663_1207" x1="34.4897" y1="59.8232" x2="34.4897" y2="97.5252" gradientUnits="userSpaceOnUse">
<stop stop-color="#815489"/>
<stop offset="1" stop-color="#47114F"/>
</linearGradient>
<linearGradient id="paint4_linear_663_1207" x1="67.6167" y1="2.06702" x2="67.6167" y2="56.428" gradientUnits="userSpaceOnUse">
<stop stop-color="#815489"/>
<stop offset="1" stop-color="#47114F"/>
</linearGradient>
<linearGradient id="paint5_linear_663_1207" x1="225.9" y1="141.038" x2="225.9" y2="-23.7981" gradientUnits="userSpaceOnUse">
<stop stop-color="#C8C7C9"/>
<stop offset="1" stop-color="#C683D0"/>
</linearGradient>
<linearGradient id="paint6_linear_663_1207" x1="157.263" y1="91.7246" x2="225.9" y2="91.7246" gradientUnits="userSpaceOnUse">
<stop stop-color="#815489"/>
<stop offset="1" stop-color="#47114F"/>
</linearGradient>
<linearGradient id="paint7_linear_663_1207" x1="132.499" y1="197.153" x2="228.946" y2="9.51994" gradientUnits="userSpaceOnUse">
<stop stop-color="#C8A8CD"/>
<stop offset="1" stop-color="white" stop-opacity="0.76"/>
</linearGradient>
<linearGradient id="paint8_linear_663_1207" x1="132.612" y1="112.026" x2="253.451" y2="112.026" gradientUnits="userSpaceOnUse">
<stop stop-color="#815489"/>
<stop offset="1" stop-color="#47114F"/>
</linearGradient>
<linearGradient id="paint9_linear_663_1207" x1="193.515" y1="207.731" x2="193.515" y2="245.433" gradientUnits="userSpaceOnUse">
<stop stop-color="#815489"/>
<stop offset="1" stop-color="#47114F"/>
</linearGradient>
</defs>
</svg>
