<svg width="114" height="106" viewBox="0 0 114 106" fill="none" xmlns="http://www.w3.org/2000/svg">
<g filter="url(#filter0_i_6_4291)">
<path d="M0.0220221 61.7412C-0.00467027 58.8446 0.64297 56.2856 1.61232 53.7868C2.47772 51.5555 3.69854 49.5162 4.96572 47.502C8.5439 41.8153 12.1544 36.1482 15.689 30.4348C17.4142 27.6461 19.0424 24.7943 20.6355 21.9272C22.1036 19.2855 23.2781 16.5066 24.1477 13.6086C24.7518 11.593 25.0018 9.53825 24.7195 7.43865C24.4652 5.55194 23.781 3.84032 22.6065 2.3304C22.1668 1.76593 21.744 1.18886 21.3225 0.61038C21.2354 0.489922 21.1792 0.34005 21.1399 0.194381C21.1258 0.143956 21.189 0.0389062 21.2438 0.0108928C21.2958 -0.0143192 21.404 0.00669083 21.4489 0.0487109C21.5754 0.163566 21.685 0.295229 21.7945 0.426892C23.5885 2.56151 25.2688 4.78017 26.8296 7.08988C28.6601 9.79877 30.3965 12.5637 31.9531 15.4379C33.4071 18.1244 34.6153 20.9187 35.4175 23.8727C35.6535 24.7411 35.7743 25.6319 35.8431 26.5354C35.9822 28.3324 35.5397 30.0076 34.9131 31.6632C33.9311 34.2573 32.5178 36.6146 30.9233 38.8669C28.5126 42.2691 26.0597 45.6405 23.6349 49.0329C22.0601 51.2362 20.5611 53.4899 19.2967 55.8892C17.8666 58.6051 16.657 61.4093 15.8646 64.3857C15.1313 67.1422 15.1861 69.8735 15.9208 72.6216C16.8494 76.0911 18.5184 79.16 20.8055 81.9151C21.5894 82.8605 22.3565 83.82 23.1165 84.7836C23.3076 85.026 23.4621 85.3019 23.6026 85.5778C23.7445 85.8566 23.649 86.04 23.3188 86.0372C22.9198 86.0344 22.4956 86.0148 22.1275 85.8818C21.2214 85.5526 20.3307 85.1772 19.4526 84.778C16.0206 83.2163 12.8006 81.3044 9.84761 78.9555C7.12218 76.7872 4.73954 74.3108 2.90479 71.3372C1.71909 69.4169 0.827007 67.3733 0.384476 65.1533C0.147055 63.9655 -0.0608647 62.7693 0.0164026 61.7454L0.0220221 61.7412Z" fill="url(#paint0_linear_6_4291)"/>
</g>
<g filter="url(#filter1_i_6_4291)">
<path d="M49.7543 30.8562C49.7725 34.3145 49.0266 37.6144 47.8142 40.8262C46.7437 43.6625 45.3107 46.307 43.5687 48.7862C42.4771 50.3381 41.4333 51.9293 40.2588 53.4154C39.0464 54.9505 37.7118 56.3904 36.4095 57.8541C33.6841 60.9202 30.8434 63.8868 28.2669 67.0845C26.5165 69.2556 24.87 71.5022 23.5859 73.9842C23.1743 74.7812 22.8863 75.6426 22.5632 76.483C22.3623 77.0069 22.1684 77.5307 21.8228 77.9817C21.747 78.0798 21.6725 78.1806 21.5868 78.2703C21.282 78.591 21.0235 78.598 20.713 78.2759C20.3154 77.8641 20.0752 77.3598 19.915 76.8164C19.6214 75.8149 19.4304 74.7896 19.3545 73.7517C19.273 72.6382 19.1887 71.5191 19.2126 70.4055C19.2576 68.3129 19.3208 66.2161 19.6776 64.1445C19.9389 62.6248 20.3688 61.1513 20.9069 59.7058C22.0097 56.7434 23.5508 54.0163 25.3771 51.4432C27.6727 48.2091 29.9682 44.9736 32.2764 41.7478C34.114 39.1804 35.6368 36.4435 36.7846 33.5035C37.6907 31.1826 38.3974 28.8028 38.8568 26.3531C39.2094 24.4748 39.5072 22.5895 39.6365 20.6817C39.6884 19.924 39.791 19.1648 39.7727 18.4085C39.7194 16.2682 39.6505 14.128 39.1181 12.0312C38.5393 9.74671 37.4927 7.70454 36.026 5.86966C35.7057 5.46907 35.3629 5.08668 35.0313 4.6945C34.9414 4.58805 34.8318 4.4886 34.7714 4.36674C34.7237 4.27009 34.6857 4.10622 34.7349 4.03758C34.8403 3.89051 35.0117 3.92833 35.1493 4.02778C35.2238 4.08241 35.2814 4.15804 35.346 4.22667C36.2479 5.19314 37.1513 6.1582 38.0504 7.12746C39.9961 9.22566 41.9938 11.2776 43.8693 13.4361C46.2632 16.1912 47.8619 19.3889 48.7624 22.927C49.1122 24.2997 49.3356 25.6947 49.4761 27.101C49.6011 28.3504 49.6644 29.6068 49.7543 30.8604V30.8562Z" fill="url(#paint1_linear_6_4291)"/>
</g>
<g filter="url(#filter2_i_6_4291)">
<path d="M52.8213 33.0602C53.1655 33.0154 53.2357 33.2395 53.3004 33.4412C53.5139 34.1065 53.7218 34.7746 53.9185 35.4442C54.4664 37.3141 54.7783 39.2274 54.923 41.1687C54.9834 41.9727 55.0578 42.7753 55.1 43.5807C55.173 45.0009 55.0213 46.403 54.7151 47.7897C54.3442 49.4747 53.9775 51.1667 53.2133 52.727C52.6597 53.856 52.0444 54.9569 51.415 56.0466C49.9301 58.614 48.1487 60.9658 46.1103 63.1228C45.2885 63.9926 44.475 64.8736 43.6307 65.7224C42.2806 67.0797 40.8884 68.3963 39.551 69.7662C37.9326 71.4246 36.3549 73.1222 35.0119 75.0201C33.8023 76.7289 32.7768 78.5386 32.0167 80.4869C31.4281 81.994 31.2553 83.553 31.6669 85.1455C31.6908 85.2352 31.6992 85.329 31.7161 85.4201C31.7442 85.5685 31.7344 85.7296 31.5728 85.7674C31.4562 85.7954 31.2694 85.7786 31.1963 85.703C30.8971 85.3907 30.5543 85.0853 30.3632 84.7099C29.443 82.8989 28.7729 80.9981 28.5257 78.9714C28.336 77.4082 28.3248 75.8409 28.5636 74.2819C28.8783 72.2314 29.6847 70.3685 30.9153 68.7101C31.6725 67.689 32.5239 66.7351 33.35 65.7659C34.5792 64.3218 35.8127 62.8819 37.0644 61.456C37.7921 60.6268 38.5634 59.8354 39.308 59.0202C40.7016 57.4935 42.1163 55.9836 43.472 54.4246C44.8586 52.8293 46.2157 51.2059 47.5306 49.5517C48.7037 48.0754 49.7095 46.4814 50.5581 44.7978C51.6328 42.666 52.4518 40.4404 52.9112 38.0928C53.0798 37.2342 53.0812 36.363 53.0124 35.4946C52.9534 34.7536 52.862 34.0141 52.7876 33.2745C52.782 33.2157 52.803 33.1555 52.8171 33.063L52.8213 33.0602Z" fill="url(#paint2_linear_6_4291)"/>
</g>
<path fill-rule="evenodd" clip-rule="evenodd" d="M88.5348 68.6337C89.7891 68.0638 91.098 67.7641 92.4801 67.8368C93.5997 67.8956 94.6704 68.1393 95.6158 68.7821C96.5907 69.446 97.2217 70.3729 97.6432 71.454C97.764 71.7622 97.7096 71.882 97.3668 72.0263C96.9229 72.214 96.4687 72.3785 96.0191 72.5536C95.4966 72.7567 94.9766 72.9667 94.4498 73.1571C94.0524 73.3013 93.9595 73.2698 93.7096 72.9198C93.3415 72.4044 92.8118 72.1537 92.2203 72.036C91.4619 71.8849 90.7331 71.9992 90.0533 72.3827C89.4564 72.7202 89.1114 73.2358 89.0172 73.9052C88.7587 75.7343 88.5035 77.5639 88.2633 79.3944C88.1144 80.5345 88.6902 81.2367 89.8463 81.3544C90.9618 81.4664 91.9074 81.1512 92.607 80.2323C92.8515 79.9116 92.9641 79.8819 93.3209 80.0556C94.2466 80.5023 95.1678 80.9567 96.0865 81.4188C96.442 81.5981 96.4718 81.7161 96.233 82.0341C95.0445 83.6167 93.5791 84.841 91.6236 85.3466C91.0154 85.5034 90.3622 85.4902 89.7301 85.5546C89.7287 85.5351 89.7256 85.5155 89.7242 85.496L89.7232 85.495C89.3328 85.495 88.9405 85.5283 88.5543 85.4892C86.9949 85.3323 85.6975 84.6486 84.6832 83.4608C83.9065 82.5519 83.602 81.458 83.6988 80.2929C83.814 78.902 84.0219 77.5176 84.2018 76.1337C84.2973 75.3957 84.4227 74.6604 84.5309 73.9237C84.8961 71.4306 86.2407 69.6758 88.5348 68.6337ZM46.6129 67.9716C47.4277 68.0122 48.2469 67.9712 49.0631 67.9853C49.6726 67.9951 49.8211 68.1216 49.9518 68.7196C50.2131 69.9186 50.4637 71.1189 50.7193 72.3192C51.603 76.4498 52.488 80.5803 53.3717 84.7108C53.3815 84.7556 53.3984 84.8004 53.4068 84.8466C53.4771 85.25 53.3953 85.3605 52.9879 85.3661C52.3487 85.3745 51.7091 85.369 51.0699 85.369V85.372L51.0689 85.3749C50.4917 85.3749 49.9158 85.3763 49.3385 85.3749C48.7499 85.3721 48.6146 85.2558 48.5064 84.6649C48.3772 83.9618 48.248 83.2597 48.1188 82.5565C48.0106 81.9657 47.9277 81.8959 47.317 81.8944C46.3365 81.893 45.3542 81.9082 44.3736 81.8886C43.8918 81.8788 43.5879 82.0427 43.4039 82.5077C43.0949 83.2864 42.7256 84.0418 42.4039 84.8163C42.2395 85.2139 41.9809 85.3877 41.5455 85.3808C40.3599 85.364 39.1755 85.3749 37.9898 85.3749C37.9126 85.3749 37.8323 85.3788 37.7564 85.369C37.4938 85.3354 37.4043 85.2135 37.4703 84.953C37.504 84.8187 37.5652 84.6899 37.6256 84.5653C38.4292 82.9168 39.2375 81.271 40.0397 79.621C41.4853 76.6432 42.9279 73.6637 44.3707 70.6845C44.6615 70.0836 44.9494 69.4799 45.2359 68.8749C45.5113 68.295 45.9048 67.9366 46.6129 67.9716ZM60.8111 67.9872C61.8365 67.9634 62.8618 67.974 63.8844 68.0272C65.1993 68.0959 66.44 68.4001 67.4684 69.2909C68.5557 70.2322 69.0631 71.4551 69.1656 72.8544C69.2569 74.091 69.1357 75.3024 68.6217 76.455C68.0021 77.8444 66.9809 78.8522 65.6617 79.5819C64.6573 80.1379 63.5615 80.3407 62.4293 80.3729C61.6819 80.394 60.933 80.376 60.1842 80.3788C59.6618 80.3816 59.5903 80.4417 59.5201 80.9413C59.353 82.1233 59.1868 83.3072 59.0211 84.4892C59.0042 84.6124 58.9897 84.7364 58.9645 84.8583C58.8844 85.2362 58.7453 85.362 58.3619 85.369C57.786 85.3788 57.2087 85.372 56.6314 85.372C56.1023 85.372 55.5717 85.3734 55.0426 85.372C54.4344 85.3706 54.3348 85.2587 54.4176 84.6483C54.5061 84.0027 54.6123 83.3594 54.7008 82.7138C55.007 80.4853 55.3048 78.2553 55.6139 76.0282C55.9566 73.5548 56.3055 71.0813 56.6539 68.6093C56.7255 68.1024 56.8364 67.9983 57.3502 67.994C58.5036 67.987 59.6592 68.0138 60.8111 67.9872ZM81.732 59.5087C84.6372 59.5255 87.5145 59.8191 90.3551 60.4228C91.6952 60.7071 93.0353 61.0084 94.3473 61.3964C96.6512 62.0799 98.6984 63.2381 100.449 64.8993C102.035 66.405 103.37 68.0947 104.175 70.1425C104.538 71.0641 104.767 72.0376 105.058 72.9872C105.124 73.2009 105.11 73.4518 105.354 73.6337C105.445 73.5202 105.538 73.423 105.61 73.3134C106.52 71.9015 107.427 70.4864 108.336 69.0731C108.538 68.7596 108.726 68.4254 109.073 68.2489C109.277 68.1453 109.506 68.0352 109.728 68.0282C110.943 67.9904 112.158 67.9769 113.375 67.9755C113.576 67.9755 113.85 67.9236 113.963 68.1562C114.082 68.4011 113.891 68.5933 113.757 68.7851C112.038 71.246 110.322 73.7115 108.594 76.1669C108.319 76.5576 108.253 76.9089 108.454 77.371C109.482 79.7366 110.48 82.1162 111.484 84.4931C111.556 84.6639 111.623 84.8413 111.658 85.0233C111.693 85.201 111.606 85.3252 111.408 85.3378C111.283 85.3448 111.16 85.3466 111.035 85.3466H107.384C106.689 85.3466 106.596 85.2792 106.359 84.6405C105.829 83.2133 105.299 81.7861 104.763 80.3603C104.696 80.181 104.595 80.0138 104.465 79.7519C104.311 79.9606 104.203 80.0867 104.118 80.2226C103.153 81.7464 102.181 83.268 101.233 84.8017C100.996 85.1853 100.721 85.3641 100.253 85.3544C98.9742 85.3264 97.694 85.3446 96.4156 85.3446C96.3062 85.3446 96.1965 85.3517 96.0885 85.3378C95.868 85.3084 95.795 85.1857 95.8834 84.9784C95.9255 84.8804 95.9964 84.7932 96.0582 84.705C97.7594 82.2876 99.4538 79.8659 101.168 77.4569C101.534 76.9415 101.567 76.4577 101.316 75.8876C100.706 74.5093 100.119 73.1212 99.5426 71.7304C99.0228 70.4769 98.2399 69.408 97.3492 68.3954C96.6609 67.614 95.7771 67.1447 94.8922 66.6503C92.5841 65.3618 90.1705 64.3324 87.6236 63.6181C85.8816 63.1306 84.1157 62.7469 82.3287 62.4794C80.4211 62.1951 78.5079 61.9287 76.5904 61.7284C75.138 61.5772 73.6724 61.5362 72.2115 61.455C71.4655 61.413 70.7173 61.387 69.9713 61.3632C69.7762 61.3575 69.6299 61.312 69.5934 61.1034C69.5556 60.8893 69.6504 60.7256 69.8512 60.664C70.118 60.5828 70.3962 60.5284 70.6715 60.4794C72.7577 60.1054 74.8594 59.8528 76.9723 59.6806C78.5569 59.5517 80.1432 59.5003 81.732 59.5087ZM82.5895 68.1894C83.3128 68.1894 83.3692 68.2509 83.2906 68.9677C83.1937 69.8473 83.0928 70.7262 82.9889 71.6044C82.9397 72.0215 82.8466 72.1009 82.4254 72.1093C81.2102 72.1303 79.9961 72.1572 78.7809 72.1698C77.8186 72.1796 76.8559 72.1642 75.8922 72.1698C75.4542 72.1727 75.3404 72.2627 75.2828 72.6981C75.214 73.2205 75.1658 73.7458 75.1363 74.2724C75.1068 74.7892 75.2339 74.9166 75.7467 74.9208C76.8072 74.9278 77.8678 74.9233 78.9283 74.9247C79.6926 74.9247 80.4571 74.922 81.2213 74.9276C81.7198 74.9318 81.8477 75.0525 81.7916 75.5409C81.6961 76.3883 81.5753 77.2338 81.4488 78.0771C81.3871 78.4939 81.3405 78.5204 80.8941 78.5204C79.1479 78.5232 77.4001 78.5229 75.6539 78.5243H75.232C74.6563 78.5314 74.4805 78.6917 74.399 79.2421C74.3386 79.6566 74.2701 80.07 74.19 80.4804C74.0524 81.1861 74.1703 81.3335 74.9078 81.3349C76.5768 81.3377 78.2461 81.3374 79.9137 81.3388C80.3041 81.3388 80.6932 81.3347 81.0836 81.3417C81.5064 81.3487 81.5694 81.4064 81.5231 81.8476C81.4641 82.402 81.3697 82.9537 81.2897 83.5067C81.2377 83.8597 81.1792 84.2114 81.1315 84.5644C81.0668 85.0448 80.9642 85.1459 80.4684 85.1474C79.0031 85.1516 77.5362 85.1499 76.0709 85.1513H75.2291V85.1542L75.2311 85.1571H69.9449C69.6037 85.1403 69.5248 85.0688 69.5641 84.7274C69.6217 84.219 69.7082 83.7129 69.7799 83.206C70.103 80.9313 70.4231 78.6564 70.7477 76.3817C71.0609 74.1855 71.3816 71.9891 71.6949 69.7929C71.7413 69.4722 71.7581 69.1468 71.8072 68.8261C71.8845 68.3293 72.0392 68.2031 72.5475 68.203C74.6351 68.203 76.723 68.2078 78.8092 68.205C80.0693 68.205 81.3294 68.1908 82.5895 68.1894ZM47.0289 73.4159C46.7339 73.7899 45.3789 77.4415 45.3873 77.8505C45.5292 77.8687 45.6788 77.9004 45.8277 77.9032C46.2322 77.9116 46.6381 77.9122 47.0426 77.9052C47.4709 77.8982 47.5187 77.8463 47.4752 77.4013C47.3726 76.3676 47.2629 75.3344 47.152 74.3007C47.1211 74.0166 47.0738 73.7339 47.0289 73.4149V73.4159ZM62.1598 72.2655C62.1598 72.2753 62.1592 72.286 62.1578 72.2958C61.8615 72.2958 61.5665 72.2944 61.2701 72.2958C60.7659 72.3 60.7153 72.343 60.6324 72.8261C60.5509 73.2995 60.4568 73.7717 60.3922 74.2479C60.3276 74.7242 60.2717 75.2035 60.2506 75.6825C60.2324 76.1051 60.3655 76.235 60.7809 76.2938C60.8876 76.3092 60.9989 76.3071 61.107 76.3085C61.5749 76.3099 62.0416 76.3113 62.5094 76.3085C63.3733 76.3057 64.0194 75.9217 64.358 75.1347C64.5322 74.7299 64.6432 74.2757 64.6783 73.8358C64.7414 73.0488 64.3254 72.5171 63.5514 72.37C63.0977 72.2846 62.6257 72.2968 62.1607 72.2646L62.1598 72.2655Z" fill="url(#paint3_linear_6_4291)"/>
<path d="M39.5647 97.8852C40.6879 97.106 41.5987 96.4533 42.2969 95.9271C43.0052 95.3908 43.6175 94.8444 44.1335 94.2878C44.6496 93.7313 44.9481 93.2152 45.0291 92.7396C45.0493 92.5777 45.0595 92.4664 45.0595 92.4056C45.0595 91.9503 44.8318 91.7226 44.3764 91.7226C44.083 91.7226 43.8451 91.8339 43.663 92.0565C43.4809 92.2792 43.3392 92.6536 43.238 93.1798H40.354C40.6373 91.844 41.2091 90.8523 42.0692 90.2047C42.9294 89.547 43.916 89.2181 45.0291 89.2181C46.1119 89.2181 46.9062 89.4559 47.4122 89.9315C47.9182 90.4071 48.1711 91.0294 48.1711 91.7985C48.1711 92.0413 48.1509 92.264 48.1104 92.4664C47.9283 93.458 47.4122 94.3991 46.5622 95.2896C45.7223 96.17 44.7154 96.9745 43.5416 97.7031H47.3363L46.9113 100.117H39.17L39.5647 97.8852ZM48.8289 94.7432C49.1325 93.0735 49.7245 91.7479 50.6049 90.7663C51.4852 89.7848 52.6844 89.294 54.2023 89.294C55.4469 89.294 56.3577 89.633 56.9345 90.311C57.5214 90.9788 57.8148 91.9047 57.8148 93.0887C57.8148 93.6453 57.7642 94.1968 57.663 94.7432C57.3696 96.4129 56.7776 97.7436 55.8871 98.7352C54.9966 99.7168 53.7975 100.208 52.2897 100.208C51.045 100.208 50.1293 99.8737 49.5423 99.2058C48.9655 98.5379 48.6771 97.6069 48.6771 96.4129C48.6771 95.8664 48.7277 95.3099 48.8289 94.7432ZM54.7183 94.7432C54.8094 94.1968 54.8549 93.7768 54.8549 93.4833C54.8549 93.0482 54.7689 92.7092 54.5969 92.4664C54.4249 92.2235 54.1314 92.1021 53.7165 92.1021C53.1195 92.1021 52.6793 92.3348 52.396 92.8003C52.1126 93.2658 51.9001 93.9134 51.7585 94.7432C51.6674 95.2896 51.6218 95.7146 51.6218 96.0182C51.6218 96.4533 51.7079 96.7923 51.8799 97.0352C52.0519 97.2781 52.3504 97.3995 52.7754 97.3995C53.3725 97.3995 53.8025 97.1718 54.0656 96.7164C54.3389 96.251 54.5564 95.5932 54.7183 94.7432ZM58.1826 97.8852C59.3058 97.106 60.2165 96.4533 60.9148 95.9271C61.6231 95.3908 62.2353 94.8444 62.7514 94.2878C63.2675 93.7313 63.566 93.2152 63.647 92.7396C63.6672 92.5777 63.6773 92.4664 63.6773 92.4056C63.6773 91.9503 63.4496 91.7226 62.9943 91.7226C62.7008 91.7226 62.463 91.8339 62.2809 92.0565C62.0987 92.2792 61.957 92.6536 61.8559 93.1798H58.9719C59.2552 91.844 59.8269 90.8523 60.6871 90.2047C61.5472 89.547 62.5338 89.2181 63.647 89.2181C64.7297 89.2181 65.5241 89.4559 66.0301 89.9315C66.536 90.4071 66.789 91.0294 66.789 91.7985C66.789 92.0413 66.7688 92.264 66.7283 92.4664C66.5461 93.458 66.0301 94.3991 65.18 95.2896C64.3401 96.17 63.3333 96.9745 62.1594 97.7031H65.9542L65.5291 100.117H57.7879L58.1826 97.8852ZM73.1389 92.3601C73.1288 92.0161 73.0579 91.7631 72.9264 91.6012C72.7948 91.4393 72.5773 91.3583 72.2737 91.3583C71.788 91.3583 71.4085 91.586 71.1353 92.0413C70.862 92.4866 70.6445 93.1798 70.4826 94.1209C70.7457 93.8072 71.0847 93.5592 71.4996 93.3771C71.9144 93.1949 72.3546 93.1039 72.8201 93.1039C73.66 93.1039 74.3228 93.3316 74.8086 93.7869C75.2943 94.2322 75.5371 94.8798 75.5371 95.7298C75.5371 96.003 75.5068 96.3016 75.4461 96.6254C75.2437 97.7587 74.7377 98.6644 73.9282 99.3424C73.1288 100.01 72.132 100.344 70.9379 100.344C69.7135 100.344 68.8382 100.046 68.312 99.4487C67.7858 98.8516 67.5227 97.9965 67.5227 96.8834C67.5227 96.3066 67.5986 95.5882 67.7504 94.728C68.0944 92.7446 68.6712 91.2875 69.4808 90.3565C70.2903 89.4255 71.4135 88.96 72.8505 88.96C73.913 88.96 74.6922 89.2383 75.188 89.7949C75.694 90.3413 75.947 91.0395 75.947 91.8896C75.947 91.9806 75.9369 92.1375 75.9166 92.3601H73.1389ZM71.6817 95.4111C71.287 95.4111 70.9481 95.5426 70.6647 95.8057C70.3814 96.0587 70.2397 96.4179 70.2397 96.8834C70.2397 97.187 70.3308 97.4197 70.5129 97.5816C70.6951 97.7334 70.9531 97.8093 71.287 97.8093C71.6513 97.8093 71.9499 97.7081 72.1826 97.5058C72.4255 97.2932 72.5823 96.9947 72.6531 96.6102C72.6734 96.4685 72.6835 96.3673 72.6835 96.3066C72.6835 96.0233 72.5975 95.8057 72.4255 95.6539C72.2534 95.492 72.0055 95.4111 71.6817 95.4111Z" fill="url(#paint4_linear_6_4291)"/>
<defs>
<filter id="filter0_i_6_4291" x="0" y="0" width="36.6083" height="87.5165" filterUnits="userSpaceOnUse" color-interpolation-filters="sRGB">
<feFlood flood-opacity="0" result="BackgroundImageFix"/>
<feBlend mode="normal" in="SourceGraphic" in2="BackgroundImageFix" result="shape"/>
<feColorMatrix in="SourceAlpha" type="matrix" values="0 0 0 0 0 0 0 0 0 0 0 0 0 0 0 0 0 0 127 0" result="hardAlpha"/>
<feOffset dx="0.739565" dy="1.47913"/>
<feGaussianBlur stdDeviation="1.47913"/>
<feComposite in2="hardAlpha" operator="arithmetic" k2="-1" k3="1"/>
<feColorMatrix type="matrix" values="0 0 0 0 0 0 0 0 0 0.941176 0 0 0 0 1 0 0 0 0.07 0"/>
<feBlend mode="plus-lighter" in2="shape" result="effect1_innerShadow_6_4291"/>
</filter>
<filter id="filter1_i_6_4291" x="19.2085" y="3.93994" width="31.2856" height="76.0533" filterUnits="userSpaceOnUse" color-interpolation-filters="sRGB">
<feFlood flood-opacity="0" result="BackgroundImageFix"/>
<feBlend mode="normal" in="SourceGraphic" in2="BackgroundImageFix" result="shape"/>
<feColorMatrix in="SourceAlpha" type="matrix" values="0 0 0 0 0 0 0 0 0 0 0 0 0 0 0 0 0 0 127 0" result="hardAlpha"/>
<feOffset dx="0.739565" dy="1.47913"/>
<feGaussianBlur stdDeviation="1.47913"/>
<feComposite in2="hardAlpha" operator="arithmetic" k2="-1" k3="1"/>
<feColorMatrix type="matrix" values="0 0 0 0 0 0 0 0 0 0.941176 0 0 0 0 1 0 0 0 0.07 0"/>
<feBlend mode="plus-lighter" in2="shape" result="effect1_innerShadow_6_4291"/>
</filter>
<filter id="filter2_i_6_4291" x="28.3838" y="33.0544" width="27.4739" height="54.205" filterUnits="userSpaceOnUse" color-interpolation-filters="sRGB">
<feFlood flood-opacity="0" result="BackgroundImageFix"/>
<feBlend mode="normal" in="SourceGraphic" in2="BackgroundImageFix" result="shape"/>
<feColorMatrix in="SourceAlpha" type="matrix" values="0 0 0 0 0 0 0 0 0 0 0 0 0 0 0 0 0 0 127 0" result="hardAlpha"/>
<feOffset dx="0.739565" dy="1.47913"/>
<feGaussianBlur stdDeviation="1.47913"/>
<feComposite in2="hardAlpha" operator="arithmetic" k2="-1" k3="1"/>
<feColorMatrix type="matrix" values="0 0 0 0 0 0 0 0 0 0.941176 0 0 0 0 1 0 0 0 0.07 0"/>
<feBlend mode="plus-lighter" in2="shape" result="effect1_innerShadow_6_4291"/>
</filter>
<linearGradient id="paint0_linear_6_4291" x1="17.9344" y1="0" x2="17.9344" y2="86.0373" gradientUnits="userSpaceOnUse">
<stop stop-color="#986B9C"/>
<stop offset="0.581514" stop-color="#430D4B"/>
<stop offset="1" stop-color="#7B337D"/>
</linearGradient>
<linearGradient id="paint1_linear_6_4291" x1="34.4815" y1="3.93994" x2="34.4815" y2="78.5142" gradientUnits="userSpaceOnUse">
<stop stop-color="#986B9C"/>
<stop offset="0.581514" stop-color="#430D4B"/>
<stop offset="1" stop-color="#7B337D"/>
</linearGradient>
<linearGradient id="paint2_linear_6_4291" x1="41.7509" y1="33.0544" x2="41.7509" y2="85.7802" gradientUnits="userSpaceOnUse">
<stop stop-color="#986B9C"/>
<stop offset="0.581514" stop-color="#430D4B"/>
<stop offset="1" stop-color="#7B337D"/>
</linearGradient>
<linearGradient id="paint3_linear_6_4291" x1="144.531" y1="58.6327" x2="37.4603" y2="72.6142" gradientUnits="userSpaceOnUse">
<stop offset="0.200088" stop-color="#AB8CB0"/>
<stop offset="0.755951" stop-color="#773179"/>
<stop offset="1" stop-color="#440F4D"/>
</linearGradient>
<linearGradient id="paint4_linear_6_4291" x1="76.8449" y1="94.6342" x2="38.8454" y2="94.6342" gradientUnits="userSpaceOnUse">
<stop stop-color="#89528D"/>
<stop offset="0.572487" stop-color="#68276C"/>
<stop offset="1" stop-color="#440F4D"/>
</linearGradient>
</defs>
</svg>
