<svg width="182" height="169" viewBox="0 0 182 169" fill="none" xmlns="http://www.w3.org/2000/svg">
<path d="M113.418 141.493L73.956 146.352C70.8461 146.574 64.4682 145.735 63.8359 140.6L50.6634 33.6248C50.5426 31.9906 50.8954 28.649 53.2726 28.3563L144.32 17.145C145.543 17.276 148.136 18.3404 148.724 21.55C149.312 24.7596 156.765 86.2007 160.418 116.52L173.968 114.852C175.27 114.973 177.84 116.112 177.703 119.701L179.005 130.28C179.216 131.34 178.651 133.678 174.705 134.55C170.758 135.422 132.202 139.542 113.418 141.493Z" fill="url(#paint0_linear_647_2443)"/>
<path d="M73.956 146.352L113.418 141.493C132.202 139.542 170.758 135.422 174.705 134.55C178.651 133.678 179.216 131.34 179.005 130.28L177.703 119.701C177.84 116.112 175.27 114.973 173.968 114.852L160.418 116.52M73.956 146.352C70.8461 146.574 64.4682 145.735 63.8359 140.6L50.6634 33.6248C50.5426 31.9906 50.8954 28.649 53.2726 28.3563L144.32 17.145C145.543 17.276 148.136 18.3404 148.724 21.55C149.312 24.7596 156.765 86.2007 160.418 116.52M73.956 146.352C78.9939 145.129 79.6392 141.55 80.206 140.273C80.6594 139.252 80.1776 134.163 79.88 131.746C80.7532 128.646 82.7452 127.251 83.6321 126.941L160.418 116.52" stroke="#4F1B57" stroke-width="5.89304"/>
<path d="M70.4367 101.217L147.368 91.9848" stroke="#4F1B57" stroke-width="3.43761" stroke-linecap="round"/>
<path d="M71.1907 107.341L148.093 97.8717" stroke="#4F1B57" stroke-width="3.43761" stroke-linecap="round"/>
<path d="M71.9097 113.18L148.812 103.711" stroke="#4F1B57" stroke-width="3.43761" stroke-linecap="round"/>
<path d="M72.6252 118.99L149.528 109.521" stroke="#4F1B57" stroke-width="3.43761" stroke-linecap="round"/>
<path d="M67.2421 75.8486L144.174 66.6168" stroke="#4F1B57" stroke-width="3.43761" stroke-linecap="round"/>
<path d="M67.9961 81.9732L144.899 72.5037" stroke="#4F1B57" stroke-width="3.43761" stroke-linecap="round"/>
<path d="M68.7149 87.8121L145.617 78.3426" stroke="#4F1B57" stroke-width="3.43761" stroke-linecap="round"/>
<path d="M69.4304 93.622L146.333 84.1526" stroke="#4F1B57" stroke-width="3.43761" stroke-linecap="round"/>
<path d="M64.4563 50.777L141.388 41.5453" stroke="#4F1B57" stroke-width="3.43761" stroke-linecap="round"/>
<path d="M65.2103 56.9017L142.113 47.4322" stroke="#4F1B57" stroke-width="3.43761" stroke-linecap="round"/>
<path d="M65.9292 62.7407L142.832 53.2712" stroke="#4F1B57" stroke-width="3.43761" stroke-linecap="round"/>
<path d="M66.6448 68.5506L143.547 59.0811" stroke="#4F1B57" stroke-width="3.43761" stroke-linecap="round"/>
<g filter="url(#filter0_i_647_2443)">
<path d="M0.0433665 121.175C-0.00919683 115.49 1.26616 110.468 3.17503 105.564C4.87919 101.184 7.28327 97.1818 9.77865 93.2288C16.8249 82.0679 23.9348 70.9454 30.8953 59.7323C34.2925 54.259 37.4989 48.6621 40.6361 43.0349C43.5271 37.8503 45.8399 32.3963 47.5523 26.7086C48.7419 22.7528 49.2343 18.72 48.6783 14.5993C48.1775 10.8964 46.8303 7.53713 44.5175 4.57371C43.6516 3.46587 42.8189 2.33328 41.9889 1.19795C41.8174 0.961535 41.7067 0.667392 41.6293 0.381497C41.6016 0.282533 41.7261 0.0763585 41.834 0.0213786C41.9363 -0.0281033 42.1494 0.0131316 42.2379 0.0956014C42.4869 0.321019 42.7027 0.579424 42.9184 0.83783C46.4513 5.0273 49.76 9.3817 52.8336 13.9148C56.4383 19.2314 59.8577 24.6579 62.9229 30.2988C65.7863 35.5714 68.1655 41.0556 69.7451 46.8532C70.2099 48.5576 70.4478 50.306 70.5834 52.0791C70.8572 55.606 69.9858 58.8938 68.7519 62.1432C66.8182 67.2343 64.0351 71.8608 60.8951 76.2812C56.1478 82.9585 51.3175 89.5754 46.5425 96.2334C43.4413 100.558 40.4895 104.981 37.9996 109.69C35.1833 115.02 32.8014 120.524 31.2411 126.365C29.797 131.775 29.9049 137.136 31.3517 142.529C33.1804 149.339 36.467 155.362 40.9708 160.769C42.5145 162.624 44.025 164.507 45.5217 166.399C45.898 166.874 46.2023 167.416 46.4789 167.957C46.7583 168.504 46.5702 168.865 45.9201 168.859C45.1344 168.854 44.2989 168.815 43.5741 168.554C41.7897 167.908 40.0358 167.171 38.3067 166.388C31.5482 163.323 25.2074 159.57 19.3922 154.96C14.0252 150.705 9.33324 145.845 5.72021 140.008C3.38529 136.24 1.62857 132.229 0.757121 127.872C0.289584 125.54 -0.119856 123.193 0.0323005 121.183L0.0433665 121.175Z" fill="url(#paint1_linear_647_2443)"/>
</g>
<path d="M48.4414 9.47852C49.6562 11.1239 50.8383 12.7936 51.9873 14.4883C55.5795 19.7864 58.9798 25.1834 62.0244 30.7861C64.6824 35.6806 66.9103 40.7419 68.459 46.0557L68.7588 47.1221C69.2006 48.7423 69.4318 50.4215 69.5645 52.1572V52.1582C69.8213 55.4657 69.0091 58.588 67.7969 61.7803C66.0233 66.4496 63.5118 70.7384 60.6406 74.8662L60.0615 75.6895C55.314 82.367 50.4954 88.9678 45.7119 95.6377C42.5991 99.978 39.6177 104.444 37.0967 109.212H37.0957C34.4331 114.251 32.1431 119.468 30.5605 124.992L30.2539 126.102C28.7602 131.697 28.8746 137.241 30.3643 142.794H30.3652C32.1774 149.542 35.388 155.528 39.7588 160.904L40.1855 161.423C41.7216 163.269 43.2267 165.145 44.7207 167.033C44.9073 167.269 45.0752 167.533 45.2393 167.817C44.7416 167.79 44.299 167.729 43.9209 167.593H43.9219C42.6073 167.117 41.3064 166.59 40.0156 166.028L38.7285 165.457C32.0373 162.422 25.7699 158.712 20.0273 154.159C14.7299 149.959 10.1259 145.184 6.58887 139.471V139.47C4.44717 136.013 2.81755 132.371 1.92773 128.458L1.75879 127.671C1.29749 125.371 0.927056 123.196 1.04492 121.368C1.05767 121.302 1.06604 121.235 1.06543 121.166C1.01442 115.649 2.24937 110.758 4.12695 105.935C5.79258 101.654 8.15018 97.7228 10.6426 93.7744C17.6846 82.6201 24.8005 71.4889 31.7637 60.2715C35.1731 54.7787 38.3878 49.1655 41.5283 43.5322C44.2721 38.6116 46.5017 33.4508 48.1982 28.0801L48.5312 27.0029C49.754 22.937 50.2706 18.7555 49.6914 14.4629V14.4619L49.582 13.7402C49.3376 12.2671 48.9591 10.8454 48.4414 9.47852Z" stroke="#461A52" stroke-width="2.04389" stroke-linejoin="round"/>
<g filter="url(#filter1_i_647_2443)">
<path d="M97.6727 60.5062C97.7087 67.2876 96.2397 73.7586 93.8524 80.0566C91.7444 85.6184 88.9227 90.804 85.4925 95.6655C83.343 98.7087 81.2876 101.829 78.975 104.743C76.5876 107.753 73.9596 110.577 71.3952 113.447C66.0284 119.459 60.4349 125.277 55.3614 131.547C51.9145 135.804 48.6724 140.21 46.1439 145.077C45.3334 146.64 44.7663 148.329 44.13 149.977C43.7344 151.004 43.3527 152.031 42.6722 152.916C42.5228 153.108 42.3762 153.306 42.2074 153.482C41.6071 154.11 41.0981 154.124 40.4867 153.492C39.7039 152.685 39.2308 151.696 38.9155 150.631C38.3373 148.667 37.9611 146.656 37.8117 144.621C37.6512 142.437 37.4853 140.243 37.5323 138.059C37.6208 133.956 37.7453 129.844 38.4479 125.782C38.9625 122.802 39.809 119.913 40.8685 117.078C43.0401 111.269 46.0748 105.921 49.671 100.876C54.1912 94.5339 58.7115 88.1893 63.2566 81.8638C66.8749 76.8293 69.8737 71.4624 72.1338 65.6973C73.9181 61.1462 75.3095 56.4797 76.2141 51.6759C76.9085 47.9927 77.495 44.2958 77.7495 40.5549C77.8518 39.069 78.0538 37.5803 78.0178 36.0972C77.9127 31.9004 77.7771 27.7036 76.7287 23.5919C75.5889 19.1122 73.528 15.1076 70.6399 11.5096C70.0092 10.7241 69.3342 9.97423 68.6814 9.20518C68.5043 8.99644 68.2885 8.80143 68.1696 8.56248C68.0755 8.37296 68.0009 8.05161 68.0977 7.91702C68.3051 7.62863 68.6426 7.70279 68.9137 7.8978C69.0604 8.00492 69.1738 8.15323 69.301 8.28782C71.077 10.183 72.8558 12.0754 74.6263 13.976C78.4576 18.0904 82.3914 22.1142 86.0845 26.3467C90.7983 31.7493 93.9464 38.0198 95.7197 44.9577C96.4085 47.6494 96.8483 50.385 97.125 53.1426C97.3712 55.5926 97.4957 58.0563 97.6727 60.5145V60.5062Z" fill="url(#paint2_linear_647_2443)"/>
</g>
<path d="M74.4607 15.2939C78.1255 19.2119 81.82 23.0139 85.3142 27.0185C89.7708 32.1262 92.7992 38.0327 94.5632 44.5752L94.7292 45.2109C95.3187 47.5141 95.7232 49.857 95.9978 52.2275L96.1082 53.2451C96.3515 55.6665 96.4722 58.0803 96.6501 60.5576C96.6784 67.168 95.246 73.498 92.8972 79.6943C90.8221 85.1695 88.0417 90.2792 84.657 95.0761C82.482 98.1555 80.4634 101.223 78.1746 104.107V104.108C75.8118 107.088 73.2168 109.875 70.6335 112.767H70.6326C65.6336 118.367 60.3641 123.875 55.5281 129.728L54.5671 130.904C51.1038 135.182 47.812 139.649 45.2371 144.605V144.606C44.3922 146.235 43.7904 148.018 43.1765 149.608V149.609C42.7684 150.669 42.4363 151.545 41.865 152.289C41.6949 152.508 41.5916 152.647 41.4705 152.773L41.4685 152.776C41.4172 152.83 41.3743 152.868 41.3416 152.895C41.3101 152.869 41.2701 152.832 41.2214 152.782L41.2205 152.781L40.9939 152.529C40.4891 151.923 40.1456 151.187 39.8953 150.342H39.8962C39.3375 148.444 38.9746 146.505 38.8308 144.546C38.6696 142.352 38.5087 140.207 38.5544 138.081C38.6375 134.231 38.752 130.439 39.3328 126.703L39.4548 125.956C39.9563 123.052 40.7835 120.224 41.8259 117.436C43.96 111.727 46.9477 106.458 50.5037 101.469C55.0241 95.1265 59.543 88.7833 64.0867 82.4599C67.75 77.3628 70.7918 71.9215 73.0857 66.0703C74.7779 61.754 76.1231 57.3288 77.0408 52.7773L77.2185 51.8652C77.916 48.1654 78.5108 44.4238 78.7693 40.625C78.8653 39.2315 79.0773 37.6172 79.0398 36.0722V36.0713L78.9968 34.497C78.886 30.8108 78.6643 27.0491 77.7185 23.3398H77.7195C76.9902 20.4733 75.8945 17.7967 74.4607 15.2939Z" stroke="#461A52" stroke-width="2.04389" stroke-linejoin="round"/>
<g filter="url(#filter2_i_647_2443)">
<path d="M103.654 64.5754C104.329 64.4872 104.467 64.9282 104.594 65.3251C105.012 66.6341 105.42 67.9487 105.806 69.2661C106.88 72.9453 107.492 76.71 107.776 80.5297C107.894 82.1117 108.04 83.6908 108.123 85.2755C108.266 88.0701 107.968 90.8288 107.368 93.5572C106.641 96.8726 105.922 100.202 104.423 103.272C103.338 105.493 102.131 107.659 100.897 109.804C97.9849 114.855 94.4919 119.483 90.4946 123.727C88.8831 125.438 87.288 127.172 85.6324 128.842C82.985 131.512 80.255 134.103 77.6325 136.798C74.4589 140.061 71.3653 143.402 68.7317 147.136C66.3598 150.498 64.3488 154.059 62.8584 157.893C61.7042 160.858 61.3653 163.925 62.1725 167.059C62.2193 167.235 62.2359 167.42 62.2689 167.599C62.324 167.891 62.3047 168.208 61.9879 168.283C61.7593 168.338 61.3929 168.305 61.2496 168.156C60.6629 167.541 59.9907 166.94 59.616 166.202C57.8116 162.638 56.4976 158.898 56.0128 154.911C55.6409 151.835 55.6188 148.751 56.0871 145.684C56.7042 141.649 58.2855 137.983 60.6987 134.72C62.1835 132.711 63.8529 130.834 65.4728 128.927C67.8832 126.086 70.3019 123.253 72.7565 120.447C74.1834 118.816 75.6958 117.259 77.1559 115.655C79.8886 112.651 82.6627 109.68 85.3211 106.612C88.0401 103.473 90.7012 100.279 93.2797 97.0242C95.58 94.1194 97.5524 90.9831 99.2163 87.6705C101.324 83.4759 102.93 79.0966 103.831 74.4776C104.161 72.7882 104.164 71.074 104.029 69.3653C103.913 67.9074 103.734 66.4523 103.588 64.9971C103.577 64.8813 103.619 64.7628 103.646 64.5809L103.654 64.5754Z" fill="url(#paint3_linear_647_2443)"/>
</g>
<path d="M105.123 70.6266C105.991 73.885 106.504 77.217 106.756 80.6051V80.606C106.876 82.2122 107.02 83.7589 107.102 85.3287C107.239 88.0156 106.954 90.6813 106.369 93.3375V93.3385C105.683 96.4687 105.027 99.4815 103.765 102.269L103.504 102.824C102.702 104.466 101.831 106.082 100.926 107.689L100.011 109.294C97.1413 114.272 93.6973 118.836 89.7512 123.026H89.7502C88.1279 124.749 86.5497 126.465 84.9064 128.123C82.3057 130.746 79.5094 133.403 76.8996 136.086C73.719 139.356 70.5787 142.743 67.8967 146.546C65.4858 149.964 63.431 153.598 61.9055 157.522C60.7984 160.366 60.3925 163.339 60.9777 166.387C60.8512 166.24 60.7393 166.096 60.6447 165.946L60.5275 165.74C58.8731 162.472 57.655 159.082 57.1242 155.505L57.0275 154.788C56.6648 151.788 56.6458 148.798 57.0978 145.837L57.0969 145.837C57.6877 141.975 59.2013 138.464 61.5207 135.328C62.614 133.848 63.8059 132.446 65.0256 131.023L66.2521 129.588C68.6615 126.748 71.0762 123.919 73.5256 121.12C74.9493 119.492 76.4158 117.985 77.9113 116.342H77.9123C80.633 113.352 83.424 110.361 86.093 107.282L86.0939 107.281C88.4804 104.526 90.8239 101.727 93.1066 98.8814L94.0812 97.6588C96.4272 94.6962 98.4359 91.5003 100.129 88.1295C102.271 83.8659 103.912 79.3973 104.833 74.6725C105.098 73.3165 105.165 71.96 105.123 70.6266Z" stroke="#4E2558" stroke-width="2.04389" stroke-linejoin="round"/>
<path d="M143.308 98.1656L162.838 117.695L113.3 167.579H93.7701V148.045L143.308 98.1656ZM145.859 95.9559L155.624 86.1909C156.487 85.3278 157.658 84.843 158.879 84.843C160.1 84.843 161.271 85.3278 162.134 86.1909L175.158 99.2109C175.587 99.6384 175.926 100.146 176.158 100.705C176.389 101.264 176.509 101.863 176.509 102.468C176.509 103.073 176.389 103.672 176.158 104.231C175.926 104.79 175.587 105.298 175.158 105.725L165.389 115.49L145.859 95.9559Z" fill="#3E1A44"/>
<defs>
<filter id="filter0_i_647_2443" x="0" y="0" width="70.8184" height="169.228" filterUnits="userSpaceOnUse" color-interpolation-filters="sRGB">
<feFlood flood-opacity="0" result="BackgroundImageFix"/>
<feBlend mode="normal" in="SourceGraphic" in2="BackgroundImageFix" result="shape"/>
<feColorMatrix in="SourceAlpha" type="matrix" values="0 0 0 0 0 0 0 0 0 0 0 0 0 0 0 0 0 0 127 0" result="hardAlpha"/>
<feOffset dx="0.184447" dy="0.368893"/>
<feGaussianBlur stdDeviation="0.368893"/>
<feComposite in2="hardAlpha" operator="arithmetic" k2="-1" k3="1"/>
<feColorMatrix type="matrix" values="0 0 0 0 0 0 0 0 0 0.941176 0 0 0 0 1 0 0 0 0.07 0"/>
<feBlend mode="plus-lighter" in2="shape" result="effect1_innerShadow_647_2443"/>
</filter>
<filter id="filter1_i_647_2443" x="37.5242" y="7.72556" width="60.3336" height="146.603" filterUnits="userSpaceOnUse" color-interpolation-filters="sRGB">
<feFlood flood-opacity="0" result="BackgroundImageFix"/>
<feBlend mode="normal" in="SourceGraphic" in2="BackgroundImageFix" result="shape"/>
<feColorMatrix in="SourceAlpha" type="matrix" values="0 0 0 0 0 0 0 0 0 0 0 0 0 0 0 0 0 0 127 0" result="hardAlpha"/>
<feOffset dx="0.184447" dy="0.368893"/>
<feGaussianBlur stdDeviation="0.368893"/>
<feComposite in2="hardAlpha" operator="arithmetic" k2="-1" k3="1"/>
<feColorMatrix type="matrix" values="0 0 0 0 0 0 0 0 0 0.941176 0 0 0 0 1 0 0 0 0.07 0"/>
<feBlend mode="plus-lighter" in2="shape" result="effect1_innerShadow_647_2443"/>
</filter>
<filter id="filter2_i_647_2443" x="55.7346" y="64.5641" width="52.608" height="104.112" filterUnits="userSpaceOnUse" color-interpolation-filters="sRGB">
<feFlood flood-opacity="0" result="BackgroundImageFix"/>
<feBlend mode="normal" in="SourceGraphic" in2="BackgroundImageFix" result="shape"/>
<feColorMatrix in="SourceAlpha" type="matrix" values="0 0 0 0 0 0 0 0 0 0 0 0 0 0 0 0 0 0 127 0" result="hardAlpha"/>
<feOffset dx="0.184447" dy="0.368893"/>
<feGaussianBlur stdDeviation="0.368893"/>
<feComposite in2="hardAlpha" operator="arithmetic" k2="-1" k3="1"/>
<feColorMatrix type="matrix" values="0 0 0 0 0 0 0 0 0 0.941176 0 0 0 0 1 0 0 0 0.07 0"/>
<feBlend mode="plus-lighter" in2="shape" result="effect1_innerShadow_647_2443"/>
</filter>
<linearGradient id="paint0_linear_647_2443" x1="107.457" y1="21.6842" x2="166.805" y2="142.756" gradientUnits="userSpaceOnUse">
<stop stop-color="#E4D1E5"/>
<stop offset="1" stop-color="#7B548B"/>
</linearGradient>
<linearGradient id="paint1_linear_647_2443" x1="35.317" y1="0" x2="35.317" y2="168.859" gradientUnits="userSpaceOnUse">
<stop stop-color="#815489"/>
<stop offset="1" stop-color="#47114F"/>
</linearGradient>
<linearGradient id="paint2_linear_647_2443" x1="67.5988" y1="7.72556" x2="67.5988" y2="153.96" gradientUnits="userSpaceOnUse">
<stop stop-color="#815489"/>
<stop offset="1" stop-color="#47114F"/>
</linearGradient>
<linearGradient id="paint3_linear_647_2443" x1="81.9464" y1="64.5641" x2="81.9464" y2="168.308" gradientUnits="userSpaceOnUse">
<stop stop-color="#815489"/>
<stop offset="1" stop-color="#47114F"/>
</linearGradient>
</defs>
</svg>
