<svg width="145" height="168" viewBox="0 0 145 168" fill="none" xmlns="http://www.w3.org/2000/svg">
<path d="M118.238 94.321C118.238 94.321 113.551 97.8072 109.958 97.8072C106.365 97.8072 101.678 94.321 101.678 94.321" stroke="#D9C2E0" stroke-width="5.49668" stroke-linecap="round" stroke-linejoin="round"/>
<path d="M118.238 94.321C118.238 94.321 113.551 97.8072 109.958 97.8072C106.365 97.8072 101.678 94.321 101.678 94.321" stroke="#461A52" stroke-width="5.49668" stroke-linecap="round" stroke-linejoin="round"/>
<path d="M120.417 125.697V120.468C120.417 114.149 127.289 108.173 131.747 103.908C138.031 97.9012 141.334 89.8305 141.334 80.3763C141.334 62.9451 127.448 49.0001 109.958 49.0001C105.834 48.9886 101.749 49.7923 97.9373 51.3651C94.1254 52.9378 90.6619 55.2485 87.7461 58.1643C84.8302 61.0802 82.5195 64.5436 80.9468 68.3556C79.3741 72.1675 78.5703 76.2527 78.5818 80.3763C78.5818 89.4928 82.0267 98.1104 88.169 103.908C92.6031 108.094 99.4993 114.084 99.4993 120.468V125.697M102.986 146.615H116.93M99.4993 136.156H120.417M109.958 125.697V97.8075" stroke="#D9C2E0" stroke-width="5.49668" stroke-linecap="round" stroke-linejoin="round"/>
<path d="M120.417 125.697V120.468C120.417 114.149 127.289 108.173 131.747 103.908C138.031 97.9012 141.334 89.8305 141.334 80.3763C141.334 62.9451 127.448 49.0001 109.958 49.0001C105.834 48.9886 101.749 49.7923 97.9373 51.3651C94.1254 52.9378 90.6619 55.2485 87.7461 58.1643C84.8302 61.0802 82.5195 64.5436 80.9468 68.3556C79.3741 72.1675 78.5703 76.2527 78.5818 80.3763C78.5818 89.4928 82.0267 98.1104 88.169 103.908C92.6031 108.094 99.4993 114.084 99.4993 120.468V125.697M102.986 146.615H116.93M99.4993 136.156H120.417M109.958 125.697V97.8075" stroke="#461A52" stroke-width="5.49668" stroke-linecap="round" stroke-linejoin="round"/>
<g filter="url(#filter0_i_660_695)">
<path d="M0.0431097 120.457C-0.00914237 114.806 1.25866 109.814 3.15623 104.938C4.8503 100.585 7.24014 96.6063 9.72074 92.6767C16.7253 81.5819 23.793 70.5253 30.7123 59.3785C34.0894 53.9377 37.2768 48.3739 40.3954 42.78C43.2693 37.6261 45.5684 32.2044 47.2707 26.5504C48.4533 22.6181 48.9428 18.6092 48.39 14.5128C47.8922 10.8319 46.5529 7.49249 44.2538 4.54663C43.3931 3.44534 42.5653 2.31946 41.7402 1.19085C41.5697 0.95584 41.4597 0.66344 41.3827 0.379238C41.3552 0.28086 41.479 0.0759063 41.5862 0.021252C41.688 -0.0279369 41.8997 0.0130539 41.9878 0.0950353C42.2353 0.319118 42.4498 0.575993 42.6643 0.832868C46.1762 4.99753 49.4653 9.32615 52.5207 13.8324C56.1041 19.1175 59.5032 24.5118 62.5503 30.1194C65.3967 35.3607 67.7618 40.8125 69.3321 46.5758C69.7941 48.2701 70.0306 50.0081 70.1654 51.7707C70.4376 55.2767 69.5713 58.5451 68.3448 61.7751C66.4225 66.8361 63.6558 71.4353 60.5345 75.8295C55.8153 82.4673 51.0136 89.0449 46.2669 95.6635C43.184 99.9621 40.2497 104.359 37.7746 109.04C34.975 114.339 32.6071 119.81 31.0561 125.617C29.6205 130.995 29.7278 136.324 31.1661 141.685C32.9839 148.454 36.251 154.442 40.7282 159.817C42.2628 161.661 43.7643 163.533 45.2521 165.413C45.6261 165.886 45.9287 166.424 46.2037 166.963C46.4814 167.507 46.2944 167.865 45.6481 167.859C44.8671 167.854 44.0366 167.815 43.3161 167.556C41.5422 166.914 39.7987 166.181 38.0798 165.402C31.3613 162.355 25.0581 158.625 19.2774 154.043C13.9422 149.812 9.27797 144.981 5.68633 139.179C3.36524 135.433 1.61892 131.446 0.752637 127.114C0.287869 124.797 -0.119147 122.463 0.0321092 120.466L0.0431097 120.457Z" fill="url(#paint0_linear_660_695)"/>
</g>
<path d="M48.1543 9.42188C49.362 11.0576 50.5373 12.7175 51.6797 14.4023C55.2508 19.6693 58.6306 25.0347 61.6572 30.6045C64.4756 35.7943 66.8065 41.1723 68.3516 46.8428C68.7907 48.4533 69.0204 50.1224 69.1523 51.8477V51.8496C69.4076 55.1373 68.6004 58.2409 67.3955 61.4141C65.515 66.365 62.7996 70.8862 59.7061 75.2412C54.9867 81.8792 50.1965 88.4409 45.4414 95.0713C42.347 99.386 39.383 103.826 36.877 108.565H36.876C34.0527 113.909 31.6506 119.453 30.0742 125.354C28.5894 130.917 28.7037 136.428 30.1846 141.948C31.986 148.656 35.1785 154.607 39.5234 159.951L39.9473 160.467C41.4743 162.302 42.9699 164.167 44.4551 166.044C44.6407 166.279 44.8085 166.54 44.9717 166.823C44.4767 166.796 44.0362 166.735 43.6602 166.6H43.6592C41.9178 165.969 40.2003 165.248 38.499 164.478C31.8474 161.461 25.6168 157.772 19.9082 153.246C14.8068 149.201 10.3528 144.62 6.88281 139.174L6.5498 138.645C4.42066 135.208 2.80058 131.588 1.91602 127.697L1.74902 126.915L1.57812 126.047C1.20365 124.084 0.936375 122.237 1.03809 120.652C1.05116 120.586 1.05922 120.518 1.05859 120.448C1.00788 114.964 2.23598 110.102 4.10254 105.307C5.75833 101.052 8.10239 97.1438 10.5801 93.2188C17.5804 82.1306 24.6534 71.0649 31.5752 59.9141C34.9644 54.4538 38.1612 48.8743 41.2832 43.2744C44.1924 38.0571 46.5197 32.5679 48.2432 26.8438V26.8428C49.4587 22.8008 49.9723 18.6442 49.3965 14.377L49.2891 13.6592C49.046 12.1944 48.6691 10.7809 48.1543 9.42188Z" stroke="#461A52" stroke-width="2.03179" stroke-linejoin="round"/>
<g filter="url(#filter1_i_660_695)">
<path d="M97.0943 60.1479C97.1301 66.8891 95.6699 73.3218 93.2966 79.5824C91.2012 85.1114 88.3962 90.2663 84.9862 95.0989C82.8495 98.1242 80.8063 101.226 78.5073 104.123C76.1341 107.115 73.5216 109.922 70.9724 112.775C65.6375 118.752 60.077 124.535 55.0336 130.768C51.6071 135 48.3842 139.38 45.8707 144.218C45.065 145.771 44.5012 147.45 43.8687 149.089C43.4755 150.11 43.096 151.131 42.4195 152.01C42.271 152.201 42.1253 152.398 41.9575 152.573C41.3608 153.198 40.8548 153.211 40.247 152.583C39.4688 151.781 38.9985 150.798 38.685 149.738C38.1103 147.786 37.7363 145.788 37.5878 143.764C37.4283 141.594 37.2633 139.412 37.3101 137.242C37.3981 133.163 37.5218 129.075 38.2203 125.037C38.7318 122.075 39.5733 119.202 40.6265 116.385C42.7852 110.61 45.802 105.294 49.3769 100.278C53.8704 93.974 58.3638 87.667 62.882 81.379C66.479 76.3743 69.4599 71.0392 71.7066 65.3082C73.4804 60.7841 74.8636 56.1452 75.7628 51.3699C76.4531 47.7085 77.0361 44.0334 77.2891 40.3147C77.3908 38.8376 77.5916 37.3578 77.5558 35.8834C77.4513 31.7114 77.3166 27.5395 76.2743 23.4522C75.1414 18.999 73.0926 15.0181 70.2217 11.4414C69.5947 10.6605 68.9237 9.91514 68.2747 9.15064C68.0987 8.94314 67.8842 8.74928 67.7659 8.51174C67.6724 8.32335 67.5982 8.0039 67.6944 7.87011C67.9007 7.58343 68.2362 7.65715 68.5057 7.851C68.6514 7.95748 68.7642 8.10492 68.8907 8.23871C70.6562 10.1226 72.4244 12.0038 74.1844 13.8932C77.9931 17.9833 81.9035 21.9832 85.5747 26.1907C90.2607 31.5613 93.3901 37.7946 95.1529 44.6914C95.8376 47.3672 96.2749 50.0866 96.5499 52.8279C96.7946 55.2633 96.9183 57.7124 97.0943 60.1561V60.1479Z" fill="url(#paint1_linear_660_695)"/>
</g>
<path d="M74.0188 15.2013C77.6623 19.0965 81.3349 22.8771 84.8088 26.8585C89.382 32.0998 92.4416 38.1879 94.1682 44.9435C94.8378 47.5598 95.2683 50.2272 95.5393 52.9288V52.9298C95.7807 55.3319 95.9011 57.7265 96.0774 60.1837C96.1078 66.7605 94.6837 73.0583 92.3469 79.2227C90.2842 84.6652 87.521 89.7445 84.1565 94.5128C82.2646 97.1914 80.4911 99.8609 78.553 102.407L77.7112 103.491C75.3624 106.453 72.7831 109.224 70.2151 112.099H70.2141C64.9135 118.037 59.3067 123.871 54.2434 130.129C50.8007 134.381 47.5287 138.822 44.969 143.749V143.75C44.1291 145.37 43.5314 147.142 42.9211 148.723V148.724C42.5155 149.777 42.1852 150.647 41.6174 151.387C41.4481 151.605 41.3455 151.744 41.2249 151.869L41.2229 151.871C41.1724 151.924 41.1303 151.962 41.0979 151.988C41.0665 151.963 41.0256 151.927 40.9768 151.877V151.876L40.7512 151.626C40.3209 151.109 40.0089 150.497 39.7717 149.804L39.6594 149.45C39.1043 147.564 38.7438 145.638 38.6008 143.691C38.4406 141.509 38.2799 139.377 38.3254 137.264C38.408 133.436 38.5224 129.666 39.0999 125.952L39.2209 125.21C39.7194 122.323 40.5421 119.513 41.5784 116.74C43.6998 111.066 46.6694 105.828 50.2043 100.868C54.6981 94.5635 59.1904 88.2578 63.7073 81.9718C67.349 76.9048 70.3723 71.4954 72.6526 65.6788C74.4469 61.102 75.8488 56.4019 76.761 51.5577C77.4543 47.8801 78.046 44.1609 78.303 40.3849C78.3984 38.9996 78.6088 37.3944 78.5715 35.8585V35.8575L78.5295 34.2921C78.4273 30.8896 78.2298 27.4224 77.4495 23.9923L77.259 23.2013C76.5338 20.3511 75.4446 17.6897 74.0188 15.2013Z" stroke="#461A52" stroke-width="2.03179" stroke-linejoin="round"/>
<g filter="url(#filter2_i_660_695)">
<path d="M103.041 64.193C103.711 64.1053 103.848 64.5437 103.974 64.9382C104.391 66.2395 104.796 67.5463 105.179 68.8559C106.247 72.5133 106.855 76.2557 107.137 80.0528C107.255 81.6254 107.4 83.1952 107.482 84.7705C107.625 87.5485 107.329 90.2909 106.732 93.0032C106.009 96.299 105.294 99.6084 103.805 102.66C102.726 104.869 101.526 107.022 100.299 109.153C97.4047 114.175 93.9323 118.775 89.9588 122.994C88.3568 124.695 86.7712 126.419 85.1253 128.079C82.4936 130.734 79.7798 133.309 77.1728 135.988C74.018 139.232 70.9427 142.552 68.3247 146.265C65.9669 149.607 63.9678 153.147 62.4862 156.957C61.3388 159.905 61.002 162.955 61.8044 166.07C61.8509 166.245 61.8673 166.428 61.9002 166.607C61.955 166.897 61.9358 167.212 61.6209 167.286C61.3936 167.341 61.0294 167.308 60.887 167.16C60.3037 166.549 59.6355 165.952 59.263 165.218C57.4693 161.675 56.1631 157.957 55.6811 153.993C55.3114 150.936 55.2895 147.87 55.755 144.821C56.3685 140.81 57.9403 137.166 60.3393 133.923C61.8153 131.925 63.4748 130.06 65.0851 128.164C67.4812 125.339 69.8856 122.523 72.3256 119.734C73.7442 118.112 75.2476 116.564 76.699 114.97C79.4156 111.983 82.1732 109.03 84.8159 105.981C87.5188 102.86 90.1642 99.6852 92.7274 96.4496C95.014 93.562 96.9748 90.4443 98.6288 87.1513C100.724 82.9815 102.32 78.6282 103.216 74.0366C103.544 72.3572 103.547 70.6531 103.413 68.9545C103.298 67.5053 103.12 66.0587 102.975 64.6122C102.964 64.4971 103.005 64.3793 103.032 64.1985L103.041 64.193Z" fill="url(#paint2_linear_660_695)"/>
</g>
<path d="M104.5 70.2061C105.363 73.4461 105.874 76.7592 106.124 80.128V80.129C106.214 81.3265 106.317 82.4907 106.397 83.6563L106.468 84.8233C106.588 87.1604 106.385 89.4814 105.944 91.794L105.74 92.7852C105.011 96.1045 104.319 99.2913 102.892 102.215C102.094 103.848 101.227 105.453 100.327 107.051L99.4192 108.646C96.5665 113.595 93.142 118.132 89.219 122.298C87.6063 124.011 86.0371 125.716 84.4036 127.363C81.8182 129.971 79.039 132.613 76.4446 135.279V135.28C73.2828 138.531 70.1606 141.898 67.4944 145.679C65.0979 149.076 63.0558 152.688 61.5393 156.589C60.4385 159.417 60.0353 162.372 60.6174 165.403C60.4912 165.256 60.3797 165.113 60.2854 164.963L60.1692 164.758C58.5246 161.51 57.3139 158.14 56.7864 154.584L56.6897 153.87C56.3293 150.889 56.3098 147.918 56.759 144.975C57.3095 141.375 58.6653 138.082 60.7327 135.115L61.1565 134.526C62.2433 133.056 63.4275 131.662 64.6399 130.247L65.8596 128.821C68.2547 125.998 70.6552 123.186 73.0901 120.402C74.1516 119.189 75.2375 118.044 76.3411 116.857L77.4504 115.653C80.155 112.68 82.93 109.708 85.5833 106.647L85.5842 106.646C87.9565 103.907 90.2857 101.125 92.5549 98.296L93.5237 97.0801C95.8558 94.1351 97.8532 90.9584 99.5364 87.6075C101.533 83.634 103.091 79.482 104.032 75.1085L104.213 74.2315C104.477 72.8825 104.542 71.5327 104.5 70.2061Z" stroke="#4E2558" stroke-width="2.03179" stroke-linejoin="round"/>
<defs>
<filter id="filter0_i_660_695" x="0" y="0" width="70.3989" height="168.226" filterUnits="userSpaceOnUse" color-interpolation-filters="sRGB">
<feFlood flood-opacity="0" result="BackgroundImageFix"/>
<feBlend mode="normal" in="SourceGraphic" in2="BackgroundImageFix" result="shape"/>
<feColorMatrix in="SourceAlpha" type="matrix" values="0 0 0 0 0 0 0 0 0 0 0 0 0 0 0 0 0 0 127 0" result="hardAlpha"/>
<feOffset dx="0.183354" dy="0.366709"/>
<feGaussianBlur stdDeviation="0.366709"/>
<feComposite in2="hardAlpha" operator="arithmetic" k2="-1" k3="1"/>
<feColorMatrix type="matrix" values="0 0 0 0 0 0 0 0 0 0.941176 0 0 0 0 1 0 0 0 0.07 0"/>
<feBlend mode="plus-lighter" in2="shape" result="effect1_innerShadow_660_695"/>
</filter>
<filter id="filter1_i_660_695" x="37.302" y="7.67978" width="59.9763" height="145.735" filterUnits="userSpaceOnUse" color-interpolation-filters="sRGB">
<feFlood flood-opacity="0" result="BackgroundImageFix"/>
<feBlend mode="normal" in="SourceGraphic" in2="BackgroundImageFix" result="shape"/>
<feColorMatrix in="SourceAlpha" type="matrix" values="0 0 0 0 0 0 0 0 0 0 0 0 0 0 0 0 0 0 127 0" result="hardAlpha"/>
<feOffset dx="0.183354" dy="0.366709"/>
<feGaussianBlur stdDeviation="0.366709"/>
<feComposite in2="hardAlpha" operator="arithmetic" k2="-1" k3="1"/>
<feColorMatrix type="matrix" values="0 0 0 0 0 0 0 0 0 0.941176 0 0 0 0 1 0 0 0 0.07 0"/>
<feBlend mode="plus-lighter" in2="shape" result="effect1_innerShadow_660_695"/>
</filter>
<filter id="filter2_i_660_695" x="55.4045" y="64.1817" width="52.2965" height="103.496" filterUnits="userSpaceOnUse" color-interpolation-filters="sRGB">
<feFlood flood-opacity="0" result="BackgroundImageFix"/>
<feBlend mode="normal" in="SourceGraphic" in2="BackgroundImageFix" result="shape"/>
<feColorMatrix in="SourceAlpha" type="matrix" values="0 0 0 0 0 0 0 0 0 0 0 0 0 0 0 0 0 0 127 0" result="hardAlpha"/>
<feOffset dx="0.183354" dy="0.366709"/>
<feGaussianBlur stdDeviation="0.366709"/>
<feComposite in2="hardAlpha" operator="arithmetic" k2="-1" k3="1"/>
<feColorMatrix type="matrix" values="0 0 0 0 0 0 0 0 0 0.941176 0 0 0 0 1 0 0 0 0.07 0"/>
<feBlend mode="plus-lighter" in2="shape" result="effect1_innerShadow_660_695"/>
</filter>
<linearGradient id="paint0_linear_660_695" x1="35.1078" y1="0" x2="35.1078" y2="167.859" gradientUnits="userSpaceOnUse">
<stop stop-color="#815489"/>
<stop offset="1" stop-color="#47114F"/>
</linearGradient>
<linearGradient id="paint1_linear_660_695" x1="67.1985" y1="7.67978" x2="67.1985" y2="153.048" gradientUnits="userSpaceOnUse">
<stop stop-color="#815489"/>
<stop offset="1" stop-color="#47114F"/>
</linearGradient>
<linearGradient id="paint2_linear_660_695" x1="81.4611" y1="64.1817" x2="81.4611" y2="167.311" gradientUnits="userSpaceOnUse">
<stop stop-color="#815489"/>
<stop offset="1" stop-color="#47114F"/>
</linearGradient>
</defs>
</svg>
