<svg width="200" height="175" viewBox="0 0 200 175" fill="none" xmlns="http://www.w3.org/2000/svg">
<path d="M110.525 162.889L69.8437 167.898C66.6377 168.127 60.0628 167.262 59.411 161.968L45.8316 51.6885C45.7071 50.0038 46.0707 46.559 48.5214 46.2573L142.382 34.6996C143.642 34.8347 146.315 35.9319 146.921 39.2407C147.528 42.5494 155.211 105.889 158.977 137.145L172.946 135.424C174.288 135.549 176.937 136.724 176.795 140.424L178.138 151.329C178.356 152.422 177.773 154.832 173.705 155.731C169.636 156.63 129.889 160.878 110.525 162.889Z" fill="url(#paint0_linear_660_630)"/>
<path d="M69.8437 167.898L110.525 162.889C129.889 160.878 169.636 156.63 173.705 155.731C177.773 154.832 178.356 152.422 178.138 151.329L176.795 140.424C176.937 136.724 174.288 135.549 172.946 135.424L158.977 137.145M69.8437 167.898C66.6377 168.127 60.0628 167.262 59.411 161.968L45.8316 51.6885C45.7071 50.0038 46.0707 46.559 48.5214 46.2573L142.382 34.6996C143.642 34.8347 146.315 35.9319 146.921 39.2407C147.528 42.5494 155.211 105.889 158.977 137.145M69.8437 167.898C75.0372 166.637 75.7024 162.948 76.2868 161.632C76.7542 160.579 76.2575 155.333 75.9507 152.841C76.8508 149.646 78.9044 148.207 79.8187 147.887L158.977 137.145" stroke="#4F1B57" stroke-width="5.74356"/>
<rect x="57.1027" y="55.9474" width="81.6203" height="30.499" rx="10.5299" transform="rotate(-7.01985 57.1027 55.9474)" fill="#E4D1E5" stroke="#4F1B57" stroke-width="2.87178"/>
<rect x="1.24964" y="-1.60061" width="47.1844" height="21.9788" rx="10.5299" transform="matrix(0.992504 -0.122213 -0.122213 -0.992504 63.1741 112.574)" fill="#DAC5DC" stroke="#4F1B57" stroke-width="2.87178"/>
<path d="M114.668 87.4338L142.115 84.054" stroke="#4F1B57" stroke-width="3.35041" stroke-linecap="round"/>
<path d="M115.697 93.775L143.145 90.3952" stroke="#4F1B57" stroke-width="3.35041" stroke-linecap="round"/>
<path d="M116.422 99.6566L143.869 96.2768" stroke="#4F1B57" stroke-width="3.35041" stroke-linecap="round"/>
<path d="M117.146 105.538L144.593 102.158" stroke="#4F1B57" stroke-width="3.35041" stroke-linecap="round"/>
<path d="M66.2157 121.369L145.524 111.852" stroke="#4F1B57" stroke-width="3.35041" stroke-linecap="round"/>
<path d="M66.993 127.682L146.271 117.92" stroke="#4F1B57" stroke-width="3.35041" stroke-linecap="round"/>
<path d="M67.7341 133.702L147.012 123.94" stroke="#4F1B57" stroke-width="3.35041" stroke-linecap="round"/>
<path d="M68.4718 139.691L147.75 129.929" stroke="#4F1B57" stroke-width="3.35041" stroke-linecap="round"/>
<rect x="69.3918" y="98.663" width="8.45599" height="10.6782" rx="2.87178" transform="rotate(-7.01985 69.3918 98.663)" fill="url(#paint1_linear_660_630)" stroke="#4F1B57" stroke-width="1.91452"/>
<rect x="94.8422" y="99.1065" width="8.43818" height="7.18331" rx="2.87178" transform="rotate(-7.01985 94.8422 99.1065)" fill="url(#paint2_linear_660_630)" stroke="#4F1B57" stroke-width="1.91452"/>
<rect x="81.4636" y="95.0305" width="8.73574" height="12.6408" rx="2.87178" transform="rotate(-7.01985 81.4636 95.0305)" fill="url(#paint3_linear_660_630)" stroke="#4F1B57" stroke-width="1.91452"/>
<path d="M145.71 102.425L158.725 105.103C158.766 105.111 158.804 105.134 158.831 105.168C158.856 105.199 158.868 105.239 158.868 105.279L158.302 114.105L158.245 114.977L158.975 115.456C160.709 116.594 162.139 117.958 163.516 119.514L164.075 120.147L164.906 119.996L173.675 118.41L173.684 118.409C173.688 118.409 173.715 118.405 173.753 118.428C173.788 118.449 173.803 118.475 173.81 118.497L173.815 118.514L173.822 118.532L178.001 131.096C178.018 131.159 178.012 131.212 177.996 131.249C177.981 131.286 177.96 131.303 177.941 131.312L170.003 135.195L169.24 135.569L169.167 136.414C169.071 137.526 168.954 138.552 168.751 139.54C168.548 140.526 168.258 141.481 167.923 142.468L167.65 143.271L168.196 143.918L173.947 150.728L173.947 150.729C173.96 150.745 173.972 150.768 173.971 150.809C173.97 150.849 173.956 150.9 173.915 150.95L165.114 160.844L165.101 160.857L165.089 160.871C165.085 160.876 165.073 160.891 165.027 160.897C164.977 160.903 164.927 160.89 164.895 160.872L157.512 155.948L156.797 155.471L156.024 155.847C154.163 156.752 152.312 157.416 150.239 157.811L149.395 157.973L149.107 158.782L146.143 167.117C146.117 167.184 146.035 167.24 145.937 167.219L132.927 164.542C132.831 164.522 132.778 164.442 132.778 164.372L133.346 155.538L133.402 154.668L132.673 154.188L132.351 153.973C130.762 152.88 129.428 151.591 128.151 150.111L127.589 149.46L126.743 149.616L118.015 151.225C117.979 151.228 117.928 151.221 117.884 151.195C117.845 151.172 117.838 151.153 117.837 151.147L117.831 151.129L117.826 151.112L113.637 138.519L113.634 138.511L113.632 138.505C113.617 138.463 113.622 138.433 113.633 138.407C113.646 138.377 113.669 138.348 113.704 138.33L121.677 134.345L122.435 133.966L122.501 133.121C122.583 132.081 122.694 131.089 122.897 130.103C123.1 129.115 123.398 128.126 123.749 127.067L124.016 126.262L123.462 125.617L117.701 118.915C117.676 118.885 117.664 118.85 117.664 118.817C117.665 118.789 117.672 118.76 117.702 118.727L117.707 118.721L117.712 118.716L126.533 108.8L126.545 108.786L126.557 108.772C126.571 108.755 126.597 108.738 126.637 108.732C126.681 108.726 126.705 108.74 126.708 108.742L126.716 108.746L134.146 113.666L134.85 114.132L135.614 113.772C137.493 112.886 139.346 112.197 141.388 111.837L142.248 111.684L142.54 110.861L145.507 102.521C145.535 102.457 145.615 102.405 145.71 102.425ZM148.469 121.968C145.06 121.266 141.512 121.948 138.605 123.862C135.699 125.777 133.672 128.767 132.97 132.176C132.269 135.585 132.95 139.134 134.864 142.041C136.779 144.947 139.77 146.975 143.178 147.676C146.587 148.378 150.135 147.696 153.042 145.782C155.949 143.867 157.976 140.876 158.678 137.467C159.379 134.058 158.698 130.51 156.783 127.603C154.869 124.697 151.878 122.669 148.469 121.968Z" fill="#67366F" stroke="#4E2558" stroke-width="3"/>
<path d="M178.366 61.4436L178.344 67.3232L178.341 68.1969L179.099 68.6301C180.309 69.3229 181.33 70.185 182.338 71.1937L182.935 71.7903L183.755 71.5902L189.484 70.1906L192.716 78.2403L187.618 81.1292L186.879 81.5482L186.857 82.3964C186.837 83.1688 186.8 83.8679 186.704 84.5389C186.608 85.2081 186.452 85.8652 186.262 86.5592L186.038 87.3766L186.623 87.9902L190.707 92.2701L185.343 99.0898L180.245 96.1176L179.502 95.6845L178.753 96.1069C177.523 96.7999 176.299 97.3247 174.917 97.6763L174.084 97.8873L173.845 98.7134L172.214 104.362L163.594 103.127L163.616 97.2473L163.619 96.3746L162.861 95.9405L162.417 95.6726C161.399 95.0306 160.51 94.2615 159.638 93.3673L159.038 92.7515L158.203 92.9584L152.474 94.3787L149.242 86.3269L154.364 83.3665L155.098 82.9419L155.114 82.0947C155.127 81.3754 155.161 80.7008 155.256 80.0316C155.353 79.3606 155.513 78.6791 155.711 77.9323L155.929 77.1122L155.337 76.5025L151.255 72.2977L156.617 65.4798L161.723 68.4324L162.454 68.8548L163.195 68.4499C164.445 67.7649 165.668 67.2246 167.024 66.8994L167.873 66.6965L168.115 65.8572L169.746 60.2081L178.366 61.4436ZM172.344 72.7703C169.821 72.4086 167.256 73.0641 165.216 74.5928C163.176 76.1214 161.826 78.398 161.465 80.9214C161.103 83.4449 161.759 86.0088 163.287 88.049C164.816 90.0892 167.093 91.4387 169.617 91.8004C172.14 92.162 174.704 91.5064 176.744 89.9778C178.784 88.4491 180.134 86.1726 180.496 83.6491C180.857 81.1256 180.202 78.5617 178.673 76.5216C177.144 74.4814 174.868 73.1321 172.344 72.7703Z" fill="#8E3793" stroke="#4E2558" stroke-width="3"/>
<g filter="url(#filter0_i_660_630)">
<path d="M0.0423629 118.2C-0.00891002 112.655 1.23513 107.756 3.09715 102.972C4.75947 98.7003 7.10453 94.7961 9.53865 90.94C16.4119 80.0531 23.3473 69.2037 30.1369 58.2659C33.4507 52.927 36.5784 47.4674 39.6385 41.9784C42.4586 36.9211 44.7146 31.601 46.385 26.0529C47.5454 22.1942 48.0257 18.2605 47.4833 14.2409C46.9949 10.6289 45.6807 7.35209 43.4247 4.46143C42.58 3.38078 41.7677 2.276 40.9582 1.16854C40.7908 0.937929 40.6829 0.651008 40.6073 0.372131C40.5804 0.275597 40.7018 0.0744839 40.807 0.0208538C40.9069 -0.0274134 41.1147 0.0128092 41.201 0.0932545C41.4439 0.313138 41.6544 0.5652 41.8649 0.817262C45.311 4.90388 48.5384 9.15139 51.5366 13.5732C55.0528 18.7592 58.3882 24.0525 61.3783 29.555C64.1713 34.6981 66.4921 40.0477 68.033 45.703C68.4863 47.3655 68.7184 49.071 68.8506 50.8006C69.1178 54.2409 68.2677 57.448 67.0642 60.6176C65.1779 65.5837 62.4631 70.0967 59.4002 74.4086C54.7695 80.9219 50.0577 87.3763 45.4 93.8709C42.3749 98.0889 39.4955 102.403 37.0668 106.997C34.3197 112.196 31.9962 117.565 30.4742 123.263C29.0655 128.54 29.1708 133.769 30.5821 139.03C32.3659 145.672 35.5718 151.547 39.9651 156.822C41.4709 158.632 42.9443 160.469 44.4042 162.314C44.7712 162.778 45.0681 163.306 45.3379 163.834C45.6105 164.368 45.427 164.719 44.7928 164.714C44.0264 164.708 43.2115 164.671 42.5044 164.416C40.7639 163.786 39.053 163.067 37.3663 162.303C30.7737 159.313 24.5886 155.653 18.9162 151.156C13.681 147.005 9.10418 142.264 5.57984 136.571C3.30224 132.895 1.58865 128.983 0.738595 124.732C0.282536 122.458 -0.116853 120.168 0.0315686 118.208L0.0423629 118.2Z" fill="url(#paint4_linear_660_630)"/>
</g>
<path d="M47.252 9.24512C48.4372 10.8503 49.59 12.4795 50.711 14.1328C54.2151 19.3009 57.5322 24.565 60.502 30.0303C63.2676 35.1228 65.5553 40.4006 67.0714 45.9648C67.5023 47.5453 67.7271 49.1839 67.8565 50.877V50.8779C68.0913 53.9026 67.4101 56.7685 66.3497 59.6807L66.1319 60.2637C64.4019 64.8182 61.9531 69.002 59.1524 73.0283L58.588 73.8311C53.9569 80.3449 49.2561 86.7837 44.5899 93.29C41.5535 97.5239 38.6447 101.88 36.1856 106.531C33.4152 111.775 31.0577 117.215 29.5108 123.006C28.0538 128.464 28.1661 133.871 29.6192 139.288V139.289C31.4438 146.083 34.7225 152.085 39.1983 157.459V157.46C40.6968 159.261 42.1647 161.091 43.6221 162.933C43.8042 163.163 43.9689 163.42 44.129 163.697C43.6435 163.671 43.2117 163.611 42.8428 163.479H42.8438C41.1344 162.86 39.4484 162.152 37.7784 161.396C31.2513 158.435 25.1369 154.816 19.5352 150.375C14.368 146.278 9.87792 141.62 6.4278 136.047L6.42682 136.046C4.19838 132.449 2.53796 128.647 1.71588 124.537V124.536C1.26619 122.294 0.904251 120.173 1.01862 118.392C1.03144 118.326 1.03973 118.259 1.03912 118.191C0.989364 112.81 2.1949 108.04 4.02643 103.334V103.333C5.65115 99.1582 7.95079 95.3239 10.3819 91.4727C17.251 80.5923 24.1913 69.7339 30.9835 58.792C33.8934 54.1039 36.6585 49.3257 39.3565 44.5234L40.5089 42.4639C43.3637 37.344 45.6487 31.957 47.3399 26.3398C48.458 22.6216 48.9703 18.8044 48.5645 14.8916L48.4708 14.1074C48.2423 12.4181 47.8392 10.7953 47.252 9.24512Z" stroke="#461A52" stroke-width="1.99372" stroke-linejoin="round"/>
<g filter="url(#filter1_i_660_630)">
<path d="M95.275 59.0208C95.3101 65.6357 93.8772 71.9478 91.5485 78.0912C89.4923 83.5165 86.7399 88.5748 83.3938 93.3169C81.2971 96.2855 79.2922 99.329 77.0363 102.172C74.7075 105.108 72.144 107.862 69.6426 110.662C64.4076 116.527 58.9514 122.201 54.0024 128.318C50.6402 132.47 47.4776 136.768 45.0112 141.515C44.2206 143.04 43.6674 144.687 43.0468 146.295C42.6609 147.297 42.2885 148.299 41.6247 149.162C41.479 149.349 41.336 149.542 41.1714 149.714C40.5858 150.327 40.0893 150.34 39.4929 149.724C38.7293 148.937 38.2679 147.972 37.9602 146.933C37.3963 145.017 37.0293 143.056 36.8836 141.071C36.727 138.941 36.5651 136.8 36.611 134.67C36.6974 130.667 36.8188 126.657 37.5042 122.694C38.0061 119.787 38.8318 116.969 39.8653 114.204C41.9836 108.537 44.9438 103.321 48.4518 98.3993C52.861 92.2131 57.2702 86.0242 61.7038 79.8541C65.2333 74.9432 68.1584 69.708 70.3631 64.0845C72.1035 59.6451 73.4609 55.0931 74.3433 50.4073C75.0206 46.8145 75.5926 43.2083 75.8409 39.5593C75.9407 38.1098 76.1377 36.6577 76.1026 35.211C76.0001 31.1172 75.8679 27.0234 74.8452 23.0127C73.7334 18.643 71.7231 14.7367 68.9059 11.227C68.2907 10.4608 67.6322 9.72934 66.9954 8.97917C66.8227 8.77556 66.6122 8.58534 66.4962 8.35225C66.4045 8.16738 66.3316 7.85392 66.426 7.72264C66.6284 7.44133 66.9576 7.51367 67.2221 7.70389C67.3651 7.80838 67.4757 7.95305 67.5999 8.08433C69.3323 9.93296 71.0673 11.7789 72.7943 13.6329C76.5317 17.6463 80.3689 21.5713 83.9713 25.6999C88.5694 30.9698 91.6402 37.0864 93.3699 43.854C94.0418 46.4796 94.4709 49.1481 94.7407 51.8379C94.9809 54.2278 95.1023 56.631 95.275 59.0289V59.0208Z" fill="url(#paint5_linear_660_630)"/>
</g>
<path d="M72.6304 14.9138C76.2064 18.7369 79.8107 22.4476 83.2203 26.3552C87.7078 31.4983 90.7096 37.4724 92.4039 44.1013C93.0609 46.6687 93.4827 49.2863 93.7486 51.9372C93.9855 54.2943 94.1039 56.6443 94.2769 59.0554C94.3068 65.5092 92.9098 71.6889 90.6168 77.738C88.7191 82.745 86.2167 87.4384 83.191 91.8611L82.5797 92.7419C80.458 95.7458 78.4882 98.738 76.2554 101.551V101.552C74.5269 103.732 72.6707 105.806 70.7877 107.897L68.899 109.998C63.6978 115.825 58.1965 121.55 53.2281 127.69C49.8498 131.863 46.6383 136.221 44.1265 141.055V141.056C43.5084 142.248 43.0242 143.525 42.5679 144.743L42.1168 145.936C41.7181 146.971 41.3933 147.827 40.8345 148.553C40.67 148.765 40.5695 148.901 40.4517 149.023L40.4498 149.025C40.3999 149.077 40.3586 149.114 40.3267 149.14C40.2961 149.115 40.257 149.08 40.2095 149.031L40.2086 149.03C39.6698 148.474 39.2983 147.791 39.0269 146.997L38.9166 146.65C38.3717 144.799 38.0178 142.908 37.8775 140.998C37.7203 138.858 37.5633 136.765 37.608 134.691C37.689 130.935 37.8003 127.237 38.3668 123.593L38.4869 122.864C38.976 120.031 39.7825 117.273 40.7994 114.552C42.881 108.984 45.7947 103.845 49.2633 98.9783C52.5704 94.3383 55.8767 89.6975 59.1929 85.0652L62.5133 80.4363C66.0868 75.4641 69.054 70.1557 71.2916 64.448C73.0523 59.957 74.4277 55.3449 75.3228 50.5915C76.0032 46.9827 76.5834 43.3331 76.8355 39.6277C76.9292 38.2685 77.1357 36.6942 77.0992 35.1872V35.1863L77.0582 33.6501C76.9578 30.3112 76.7644 26.9087 75.9986 23.5427L75.8111 22.7663C75.0993 19.9687 74.0303 17.3563 72.6304 14.9138Z" stroke="#461A52" stroke-width="1.99372" stroke-linejoin="round"/>
<g filter="url(#filter2_i_660_630)">
<path d="M101.11 62.9901C101.768 62.9041 101.902 63.3342 102.026 63.7213C102.435 64.9983 102.832 66.2806 103.208 67.5656C104.256 71.1545 104.853 74.8267 105.13 78.5527C105.245 80.0958 105.388 81.6362 105.468 83.182C105.608 85.9079 105.318 88.5989 104.732 91.2604C104.023 94.4944 103.321 97.7419 101.859 100.737C100.801 102.903 99.6237 105.016 98.4199 107.108C95.5795 112.036 92.1722 116.549 88.2731 120.689C86.7011 122.359 85.1452 124.05 83.5302 125.679C80.9479 128.284 78.2849 130.811 75.7267 133.44C72.6311 136.623 69.6134 139.881 67.0444 143.524C64.7308 146.804 62.7691 150.277 61.3154 154.016C60.1894 156.909 59.8589 159.901 60.6463 162.958C60.6919 163.13 60.7081 163.31 60.7403 163.485C60.7941 163.769 60.7753 164.079 60.4662 164.151C60.2432 164.205 59.8858 164.173 59.7461 164.028C59.1737 163.428 58.518 162.842 58.1526 162.122C56.3925 158.646 55.1107 154.998 54.6377 151.108C54.275 148.107 54.2535 145.099 54.7103 142.107C55.3122 138.171 56.8547 134.596 59.2086 131.413C60.657 129.453 62.2854 127.622 63.8655 125.762C66.2168 122.991 68.5761 120.227 70.9704 117.49C72.3623 115.899 73.8376 114.38 75.2618 112.815C77.9275 109.885 80.6335 106.987 83.2266 103.995C85.8788 100.933 88.4746 97.8172 90.9898 94.6423C93.2336 91.8088 95.1577 88.7495 96.7807 85.5181C98.8364 81.4265 100.403 77.1548 101.282 72.6492C101.604 71.0013 101.607 69.3291 101.475 67.6624C101.362 66.2403 101.188 64.8208 101.045 63.4014C101.035 63.2885 101.075 63.1729 101.102 62.9955L101.11 62.9901Z" fill="url(#paint6_linear_660_630)"/>
</g>
<path d="M102.542 68.8921C103.388 72.0709 103.89 75.3213 104.136 78.6264V78.6274C104.253 80.1941 104.393 81.7027 104.473 83.2339C104.607 85.8548 104.329 88.4554 103.759 91.0464H103.758C103.088 94.0998 102.449 97.0391 101.218 99.7583L100.964 100.299C99.9202 102.435 98.7559 104.525 97.5558 106.61C94.7566 111.466 91.3966 115.919 87.547 120.006C85.9647 121.687 84.4253 123.36 82.8224 124.977C80.2855 127.536 77.5577 130.128 75.0119 132.745C71.9094 135.935 68.8459 139.239 66.2297 142.949C63.878 146.282 61.874 149.827 60.3859 153.655C59.3059 156.43 58.9106 159.329 59.4816 162.303C59.3028 162.095 59.1549 161.893 59.0422 161.671C57.3206 158.272 56.0828 154.735 55.6271 150.987C55.2734 148.061 55.2546 145.145 55.6955 142.257C56.2717 138.49 57.7473 135.065 60.0099 132.005C61.4319 130.081 63.025 128.292 64.6252 126.408L64.6261 126.407C66.9762 123.636 69.3318 120.878 71.7209 118.147C72.7625 116.956 73.8275 115.831 74.9103 114.667L75.9992 113.486C78.6531 110.568 81.3762 107.652 83.9797 104.648C86.3077 101.96 88.5936 99.2297 90.8205 96.4536L91.7717 95.2612C94.0601 92.3713 96.0194 89.2536 97.6711 85.9653C99.6299 82.0665 101.159 77.993 102.083 73.7016L102.26 72.8403C102.519 71.5172 102.583 70.1933 102.542 68.8921Z" stroke="#4E2558" stroke-width="1.99372" stroke-linejoin="round"/>
<defs>
<filter id="filter0_i_660_630" x="6.10352e-05" y="0" width="69.0798" height="165.074" filterUnits="userSpaceOnUse" color-interpolation-filters="sRGB">
<feFlood flood-opacity="0" result="BackgroundImageFix"/>
<feBlend mode="normal" in="SourceGraphic" in2="BackgroundImageFix" result="shape"/>
<feColorMatrix in="SourceAlpha" type="matrix" values="0 0 0 0 0 0 0 0 0 0 0 0 0 0 0 0 0 0 127 0" result="hardAlpha"/>
<feOffset dx="0.179919" dy="0.359837"/>
<feGaussianBlur stdDeviation="0.359837"/>
<feComposite in2="hardAlpha" operator="arithmetic" k2="-1" k3="1"/>
<feColorMatrix type="matrix" values="0 0 0 0 0 0 0 0 0 0.941176 0 0 0 0 1 0 0 0 0.07 0"/>
<feBlend mode="plus-lighter" in2="shape" result="effect1_innerShadow_660_630"/>
</filter>
<filter id="filter1_i_660_630" x="36.6031" y="7.53587" width="58.8525" height="143.004" filterUnits="userSpaceOnUse" color-interpolation-filters="sRGB">
<feFlood flood-opacity="0" result="BackgroundImageFix"/>
<feBlend mode="normal" in="SourceGraphic" in2="BackgroundImageFix" result="shape"/>
<feColorMatrix in="SourceAlpha" type="matrix" values="0 0 0 0 0 0 0 0 0 0 0 0 0 0 0 0 0 0 127 0" result="hardAlpha"/>
<feOffset dx="0.179919" dy="0.359837"/>
<feGaussianBlur stdDeviation="0.359837"/>
<feComposite in2="hardAlpha" operator="arithmetic" k2="-1" k3="1"/>
<feColorMatrix type="matrix" values="0 0 0 0 0 0 0 0 0 0.941176 0 0 0 0 1 0 0 0 0.07 0"/>
<feBlend mode="plus-lighter" in2="shape" result="effect1_innerShadow_660_630"/>
</filter>
<filter id="filter2_i_660_630" x="54.3664" y="62.979" width="51.3165" height="101.557" filterUnits="userSpaceOnUse" color-interpolation-filters="sRGB">
<feFlood flood-opacity="0" result="BackgroundImageFix"/>
<feBlend mode="normal" in="SourceGraphic" in2="BackgroundImageFix" result="shape"/>
<feColorMatrix in="SourceAlpha" type="matrix" values="0 0 0 0 0 0 0 0 0 0 0 0 0 0 0 0 0 0 127 0" result="hardAlpha"/>
<feOffset dx="0.179919" dy="0.359837"/>
<feGaussianBlur stdDeviation="0.359837"/>
<feComposite in2="hardAlpha" operator="arithmetic" k2="-1" k3="1"/>
<feColorMatrix type="matrix" values="0 0 0 0 0 0 0 0 0 0.941176 0 0 0 0 1 0 0 0 0.07 0"/>
<feBlend mode="plus-lighter" in2="shape" result="effect1_innerShadow_660_630"/>
</filter>
<linearGradient id="paint0_linear_660_630" x1="104.38" y1="39.3791" x2="165.561" y2="164.191" gradientUnits="userSpaceOnUse">
<stop stop-color="#E4D1E5"/>
<stop offset="1" stop-color="#7B548B"/>
</linearGradient>
<linearGradient id="paint1_linear_660_630" x1="73.51" y1="97.8299" x2="73.51" y2="110.423" gradientUnits="userSpaceOnUse">
<stop stop-color="#E4D1E5"/>
<stop offset="1" stop-color="#7B548B"/>
</linearGradient>
<linearGradient id="paint2_linear_660_630" x1="98.9515" y1="98.2734" x2="98.9515" y2="107.371" gradientUnits="userSpaceOnUse">
<stop stop-color="#E4D1E5"/>
<stop offset="1" stop-color="#7B548B"/>
</linearGradient>
<linearGradient id="paint3_linear_660_630" x1="85.7216" y1="94.1974" x2="85.7216" y2="108.753" gradientUnits="userSpaceOnUse">
<stop stop-color="#E4D1E5"/>
<stop offset="1" stop-color="#7B548B"/>
</linearGradient>
<linearGradient id="paint4_linear_660_630" x1="34.45" y1="0" x2="34.45" y2="164.714" gradientUnits="userSpaceOnUse">
<stop stop-color="#815489"/>
<stop offset="1" stop-color="#47114F"/>
</linearGradient>
<linearGradient id="paint5_linear_660_630" x1="65.9394" y1="7.53587" x2="65.9394" y2="150.18" gradientUnits="userSpaceOnUse">
<stop stop-color="#815489"/>
<stop offset="1" stop-color="#47114F"/>
</linearGradient>
<linearGradient id="paint6_linear_660_630" x1="79.9347" y1="62.979" x2="79.9347" y2="164.176" gradientUnits="userSpaceOnUse">
<stop stop-color="#815489"/>
<stop offset="1" stop-color="#47114F"/>
</linearGradient>
</defs>
</svg>
