<svg width="397" height="438" viewBox="0 0 397 438" fill="none" xmlns="http://www.w3.org/2000/svg">
<mask id="path-1-inside-1_1438_3619" fill="white">
<path fill-rule="evenodd" clip-rule="evenodd" d="M69.201 34.5337C70.076 34.8197 70.9393 35.1461 71.7862 35.5152C75.288 37.0414 78.4547 39.2427 81.1059 41.9928C83.0794 44.0398 84.7382 46.3616 86.0337 48.881L126.715 49.6182C131.963 42.3046 140.596 37.605 150.277 37.7804C159.957 37.9559 168.415 42.9651 173.393 50.464L290.033 52.5776C293.527 52.6409 296.309 55.5252 296.246 59.0193L295.948 75.4746C295.884 78.9686 293 81.7494 289.506 81.6861L174.703 79.6058C171.383 85.7359 165.872 90.491 159.239 92.8444L158.905 111.302C158.904 111.368 158.9 111.433 158.897 111.498L174.023 111.772C177.517 111.835 180.298 114.718 180.234 118.212L180.02 130.072C180.015 130.337 179.992 130.598 179.956 130.855L201.384 328.356L205.342 328.427C208.836 328.491 211.617 331.375 211.554 334.869L211.2 354.388C211.138 357.815 208.362 360.555 204.958 360.599L203.824 423.209C203.76 426.703 200.876 429.484 197.382 429.421L174.799 429.012C171.305 428.948 168.523 426.065 168.586 422.571L169.721 359.965L162.063 359.826L160.929 422.43C160.865 425.924 157.981 428.705 154.487 428.642L131.904 428.232C128.41 428.169 125.628 425.286 125.691 421.792L126.826 359.188L120.7 359.077L119.565 421.682C119.502 425.176 116.618 427.957 113.124 427.894L90.5413 427.485C87.0472 427.421 84.2655 424.537 84.3289 421.043L85.4677 358.197C82.8269 357.397 80.9258 354.924 80.9781 352.029L81.3318 332.509C81.3951 329.015 84.2786 326.234 87.7725 326.297L92.3196 326.379L115.245 127.618L115.782 122.953L115.89 117.046C115.953 113.552 118.837 110.772 122.331 110.835L137.459 111.109C137.458 111.044 137.456 110.979 137.457 110.914L137.803 91.8289C131.956 89.1045 127.203 84.4483 124.35 78.6934L84.5923 77.973C83.3839 79.8424 81.9637 81.5724 80.3537 83.1246C77.6036 85.7759 74.358 87.8601 70.8026 89.2572C69.932 89.5993 69.0464 89.8968 68.1502 90.1527L67.4877 125.258C59.3371 125.104 51.2968 123.345 43.8256 120.084C38.9263 117.945 34.3345 115.188 30.1594 111.887L26.5998 308.327L30.9965 308.407C34.4905 308.47 37.2713 311.355 37.208 314.849L36.077 377.264C36.0137 380.758 33.1302 383.539 29.6362 383.476L10.117 383.122C6.62292 383.059 3.84123 380.175 3.90454 376.681L5.03553 314.266C5.09884 310.772 7.98319 307.99 11.4773 308.053L13.9466 308.098L17.6388 104.339L22.2552 104.423C17.4005 98.9593 13.5437 92.6766 10.8699 85.8603C7.89304 78.2712 6.44018 70.1697 6.59412 62.0191C6.74809 53.8687 8.50558 45.8282 11.7668 38.357C15.0282 30.8857 19.7298 24.13 25.602 18.4755C31.4741 12.8211 38.4025 8.37822 45.9916 5.40136C53.5806 2.42452 61.6822 0.971622 69.8327 1.12556L69.201 34.5337ZM107.207 326.161L186.45 327.597L165.73 136.629L129.144 135.966L107.207 326.161Z"/>
</mask>
<path fill-rule="evenodd" clip-rule="evenodd" d="M69.201 34.5337C70.076 34.8197 70.9393 35.1461 71.7862 35.5152C75.288 37.0414 78.4547 39.2427 81.1059 41.9928C83.0794 44.0398 84.7382 46.3616 86.0337 48.881L126.715 49.6182C131.963 42.3046 140.596 37.605 150.277 37.7804C159.957 37.9559 168.415 42.9651 173.393 50.464L290.033 52.5776C293.527 52.6409 296.309 55.5252 296.246 59.0193L295.948 75.4746C295.884 78.9686 293 81.7494 289.506 81.6861L174.703 79.6058C171.383 85.7359 165.872 90.491 159.239 92.8444L158.905 111.302C158.904 111.368 158.9 111.433 158.897 111.498L174.023 111.772C177.517 111.835 180.298 114.718 180.234 118.212L180.02 130.072C180.015 130.337 179.992 130.598 179.956 130.855L201.384 328.356L205.342 328.427C208.836 328.491 211.617 331.375 211.554 334.869L211.2 354.388C211.138 357.815 208.362 360.555 204.958 360.599L203.824 423.209C203.76 426.703 200.876 429.484 197.382 429.421L174.799 429.012C171.305 428.948 168.523 426.065 168.586 422.571L169.721 359.965L162.063 359.826L160.929 422.43C160.865 425.924 157.981 428.705 154.487 428.642L131.904 428.232C128.41 428.169 125.628 425.286 125.691 421.792L126.826 359.188L120.7 359.077L119.565 421.682C119.502 425.176 116.618 427.957 113.124 427.894L90.5413 427.485C87.0472 427.421 84.2655 424.537 84.3289 421.043L85.4677 358.197C82.8269 357.397 80.9258 354.924 80.9781 352.029L81.3318 332.509C81.3951 329.015 84.2786 326.234 87.7725 326.297L92.3196 326.379L115.245 127.618L115.782 122.953L115.89 117.046C115.953 113.552 118.837 110.772 122.331 110.835L137.459 111.109C137.458 111.044 137.456 110.979 137.457 110.914L137.803 91.8289C131.956 89.1045 127.203 84.4483 124.35 78.6934L84.5923 77.973C83.3839 79.8424 81.9637 81.5724 80.3537 83.1246C77.6036 85.7759 74.358 87.8601 70.8026 89.2572C69.932 89.5993 69.0464 89.8968 68.1502 90.1527L67.4877 125.258C59.3371 125.104 51.2968 123.345 43.8256 120.084C38.9263 117.945 34.3345 115.188 30.1594 111.887L26.5998 308.327L30.9965 308.407C34.4905 308.47 37.2713 311.355 37.208 314.849L36.077 377.264C36.0137 380.758 33.1302 383.539 29.6362 383.476L10.117 383.122C6.62292 383.059 3.84123 380.175 3.90454 376.681L5.03553 314.266C5.09884 310.772 7.98319 307.99 11.4773 308.053L13.9466 308.098L17.6388 104.339L22.2552 104.423C17.4005 98.9593 13.5437 92.6766 10.8699 85.8603C7.89304 78.2712 6.44018 70.1697 6.59412 62.0191C6.74809 53.8687 8.50558 45.8282 11.7668 38.357C15.0282 30.8857 19.7298 24.13 25.602 18.4755C31.4741 12.8211 38.4025 8.37822 45.9916 5.40136C53.5806 2.42452 61.6822 0.971622 69.8327 1.12556L69.201 34.5337ZM107.207 326.161L186.45 327.597L165.73 136.629L129.144 135.966L107.207 326.161Z" fill="url(#paint0_linear_1438_3619)"/>
<path d="M69.201 34.5337L56.548 34.2944L56.371 43.6542L65.2693 46.5627L69.201 34.5337ZM71.7862 35.5152L76.8423 23.9139L76.8422 23.9139L71.7862 35.5152ZM81.1059 41.9928L90.2167 33.2094L90.2166 33.2093L81.1059 41.9928ZM86.0337 48.881L74.779 54.6679L78.239 61.3971L85.8044 61.5342L86.0337 48.881ZM126.715 49.6182L126.486 62.2714L133.126 62.3917L136.998 56.9955L126.715 49.6182ZM150.277 37.7804L150.506 25.1273L150.506 25.1273L150.277 37.7804ZM173.393 50.464L162.85 57.4639L166.524 62.9969L173.164 63.1172L173.393 50.464ZM295.948 75.4746L308.601 75.7044L308.601 75.7039L295.948 75.4746ZM289.506 81.6861L289.735 69.0329L289.506 81.6861ZM174.703 79.6058L174.933 66.9527L167.24 66.8133L163.576 73.5782L174.703 79.6058ZM159.239 92.8444L155.008 80.9177L146.745 83.8493L146.586 92.6151L159.239 92.8444ZM158.905 111.302L171.558 111.532L171.558 111.532L158.905 111.302ZM158.897 111.498L146.256 110.885L145.624 123.914L158.667 124.151L158.897 111.498ZM174.023 111.772L174.252 99.1185L174.252 99.1185L174.023 111.772ZM180.234 118.212L192.888 118.442L192.888 118.441L180.234 118.212ZM180.02 130.072L167.366 129.842L180.02 130.072ZM179.956 130.855L167.426 129.075L167.203 130.644L167.374 132.22L179.956 130.855ZM201.384 328.356L188.802 329.721L190.005 340.807L201.154 341.009L201.384 328.356ZM205.342 328.427L205.572 315.774L205.571 315.774L205.342 328.427ZM211.2 354.388L223.853 354.618L223.853 354.618L211.2 354.388ZM204.958 360.599L204.796 347.944L192.528 348.102L192.305 360.369L204.958 360.599ZM203.824 423.209L216.477 423.439L216.477 423.439L203.824 423.209ZM168.586 422.571L155.933 422.342L155.933 422.342L168.586 422.571ZM169.721 359.965L182.374 360.194L182.603 347.541L169.95 347.312L169.721 359.965ZM162.063 359.826L162.292 347.173L149.639 346.944L149.41 359.597L162.063 359.826ZM160.929 422.43L173.582 422.659V422.659L160.929 422.43ZM154.487 428.642L154.716 415.988L154.487 428.642ZM131.904 428.232L131.674 440.885L131.904 428.232ZM125.691 421.792L113.038 421.562V421.562L125.691 421.792ZM126.826 359.188L139.479 359.417L139.708 346.764L127.055 346.534L126.826 359.188ZM120.7 359.077L120.929 346.423L108.276 346.194L108.047 358.847L120.7 359.077ZM113.124 427.894L112.895 440.547L112.896 440.547L113.124 427.894ZM85.4677 358.197L98.1208 358.426L98.2942 348.859L89.1359 346.085L85.4677 358.197ZM80.9781 352.029L68.3249 351.799L68.3249 351.8L80.9781 352.029ZM87.7725 326.297L88.0018 313.644L88.001 313.644L87.7725 326.297ZM92.3196 326.379L92.0904 339.032L103.575 339.241L104.892 327.829L92.3196 326.379ZM115.245 127.618L127.817 129.069L127.817 129.067L115.245 127.618ZM115.782 122.953L128.355 124.402L128.425 123.794L128.436 123.182L115.782 122.953ZM115.89 117.046L103.236 116.817L103.236 116.817L115.89 117.046ZM137.459 111.109L137.229 123.762L150.272 123.999L150.113 110.955L137.459 111.109ZM137.457 110.914L124.804 110.684L124.804 110.685L137.457 110.914ZM137.803 91.8289L150.456 92.0582L150.605 83.8323L143.148 80.3577L137.803 91.8289ZM124.35 78.6934L135.689 73.0729L132.272 66.1796L124.58 66.0402L124.35 78.6934ZM84.5923 77.973L84.8216 65.3198L77.7847 65.1923L73.9641 71.103L84.5923 77.973ZM80.3537 83.1246L89.1371 92.2354L89.1373 92.2352L80.3537 83.1246ZM70.8026 89.2572L75.4308 101.036L75.4309 101.036L70.8026 89.2572ZM68.1502 90.1527L64.6756 77.9838L55.6738 80.554L55.4972 89.9139L68.1502 90.1527ZM67.4877 125.258L67.2487 137.911L79.9019 138.15L80.1407 125.497L67.4877 125.258ZM43.8256 120.084L38.7627 131.682V131.682L43.8256 120.084ZM30.1594 111.887L38.0083 101.96L17.969 86.1158L17.5062 111.658L30.1594 111.887ZM26.5998 308.327L13.9466 308.098L13.7173 320.751L26.3705 320.98L26.5998 308.327ZM30.9965 308.407L31.2262 295.754L31.2258 295.754L30.9965 308.407ZM37.208 314.849L24.5548 314.619L37.208 314.849ZM36.077 377.264L48.7302 377.493V377.493L36.077 377.264ZM29.6362 383.476L29.407 396.129L29.4074 396.129L29.6362 383.476ZM3.90454 376.681L-8.74862 376.452V376.452L3.90454 376.681ZM5.03553 314.266L17.6887 314.495L5.03553 314.266ZM11.4773 308.053L11.7065 295.4L11.4773 308.053ZM13.9466 308.098L13.7173 320.751L26.3705 320.98L26.5997 308.327L13.9466 308.098ZM17.6388 104.339L17.8681 91.6863L5.21489 91.457L4.98561 104.11L17.6388 104.339ZM22.2552 104.423L22.0259 117.076L50.8916 117.599L31.7156 96.0174L22.2552 104.423ZM10.8699 85.8603L-0.911367 90.4816L-0.911363 90.4816L10.8699 85.8603ZM6.59412 62.0191L-6.05886 61.7801L-6.05886 61.7802L6.59412 62.0191ZM11.7668 38.357L0.168456 33.2941L0.16844 33.2942L11.7668 38.357ZM25.602 18.4755L16.824 9.35949L16.8239 9.35951L25.602 18.4755ZM45.9916 5.40136L41.3703 -6.37994L41.3703 -6.37993L45.9916 5.40136ZM69.8327 1.12556L82.4857 1.36483L82.725 -11.2884L70.0717 -11.5274L69.8327 1.12556ZM107.207 326.161L94.635 324.711L93.0375 338.561L106.978 338.814L107.207 326.161ZM186.45 327.597L186.22 340.25L200.58 340.51L199.031 326.232L186.45 327.597ZM165.73 136.629L178.312 135.264L177.109 124.178L165.96 123.976L165.73 136.629ZM129.144 135.966L129.373 123.313L117.888 123.105L116.572 134.516L129.144 135.966ZM69.201 34.5337L65.2693 46.5627C65.7776 46.7288 66.2649 46.9138 66.7301 47.1166L71.7862 35.5152L76.8422 23.9139C75.6137 23.3785 74.3744 22.9105 73.1327 22.5047L69.201 34.5337ZM71.7862 35.5152L66.73 47.1165C68.7074 47.9783 70.4966 49.2218 71.9952 50.7763L81.1059 41.9928L90.2166 33.2093C86.4127 29.2637 81.8685 26.1045 76.8423 23.9139L71.7862 35.5152ZM81.1059 41.9928L71.9951 50.7762C73.1094 51.932 74.0467 53.2437 74.779 54.6679L86.0337 48.881L97.2883 43.0942C95.4297 39.4795 93.0494 36.1476 90.2167 33.2094L81.1059 41.9928ZM86.0337 48.881L85.8044 61.5342L126.486 62.2714L126.715 49.6182L126.945 36.965L86.2629 36.2279L86.0337 48.881ZM126.715 49.6182L136.998 56.9955C139.926 52.9147 144.701 50.3367 150.047 50.4336L150.277 37.7804L150.506 25.1273C136.491 24.8733 123.999 31.6946 116.433 42.2409L126.715 49.6182ZM150.277 37.7804L150.047 50.4336C155.393 50.5305 160.072 53.2797 162.85 57.4639L173.393 50.464L183.936 43.4641C176.757 32.6505 164.521 25.3812 150.506 25.1273L150.277 37.7804ZM173.393 50.464L173.164 63.1172L289.804 65.2307L290.033 52.5776L290.263 39.9244L173.623 37.8109L173.393 50.464ZM290.033 52.5776L289.804 65.2307C286.31 65.1674 283.529 62.2841 283.593 58.79L296.246 59.0193L308.899 59.2486C309.089 48.7664 300.745 40.1144 290.263 39.9244L290.033 52.5776ZM296.246 59.0193L283.593 58.79L283.294 75.2453L295.948 75.4746L308.601 75.7039L308.899 59.2486L296.246 59.0193ZM295.948 75.4746L283.294 75.2448C283.358 71.749 286.243 68.9696 289.735 69.0329L289.506 81.6861L289.277 94.3392C299.757 94.5291 308.41 86.1881 308.601 75.7044L295.948 75.4746ZM289.506 81.6861L289.735 69.0329L174.933 66.9527L174.703 79.6058L174.474 92.259L289.277 94.3392L289.506 81.6861ZM174.703 79.6058L163.576 73.5782C161.734 76.9792 158.668 79.6189 155.008 80.9177L159.239 92.8444L163.471 104.771C173.076 101.363 181.032 94.4927 185.831 85.6334L174.703 79.6058ZM159.239 92.8444L146.586 92.6151L146.252 111.073L158.905 111.302L171.558 111.532L171.893 93.0737L159.239 92.8444ZM158.905 111.302L146.252 111.073C146.253 110.996 146.255 110.932 146.257 110.886C146.259 110.841 146.26 110.807 146.261 110.792C146.261 110.78 146.262 110.773 146.261 110.792C146.26 110.803 146.258 110.842 146.256 110.885L158.897 111.498L171.537 112.11C171.536 112.121 171.536 112.127 171.537 112.106C171.538 112.093 171.54 112.053 171.542 112.008C171.546 111.919 171.554 111.745 171.558 111.532L158.905 111.302ZM158.897 111.498L158.667 124.151L173.794 124.425L174.023 111.772L174.252 99.1185L159.126 98.8444L158.897 111.498ZM174.023 111.772L173.794 124.425C170.299 124.361 167.518 121.477 167.581 117.983L180.234 118.212L192.888 118.441C193.077 107.96 184.735 99.3085 174.252 99.1185L174.023 111.772ZM180.234 118.212L167.581 117.983L167.366 129.842L180.02 130.072L192.673 130.301L192.888 118.442L180.234 118.212ZM180.02 130.072L167.366 129.842C167.372 129.535 167.398 129.276 167.426 129.075L179.956 130.855L192.485 132.635C192.586 131.921 192.658 131.139 192.673 130.301L180.02 130.072ZM179.956 130.855L167.374 132.22L188.802 329.721L201.384 328.356L213.965 326.991L192.537 129.49L179.956 130.855ZM201.384 328.356L201.154 341.009L205.113 341.08L205.342 328.427L205.571 315.774L201.613 315.702L201.384 328.356ZM205.342 328.427L205.112 341.08C201.617 341.017 198.837 338.132 198.9 334.64L211.554 334.869L224.207 335.098C224.397 324.618 216.056 315.965 205.572 315.774L205.342 328.427ZM211.554 334.869L198.9 334.64L198.547 354.159L211.2 354.388L223.853 354.618L224.207 335.098L211.554 334.869ZM211.2 354.388L198.547 354.158C198.609 350.724 201.389 347.988 204.796 347.944L204.958 360.599L205.121 373.253C215.334 373.121 223.666 364.907 223.853 354.618L211.2 354.388ZM204.958 360.599L192.305 360.369L191.171 422.98L203.824 423.209L216.477 423.439L217.612 360.828L204.958 360.599ZM203.824 423.209L191.171 422.98C191.234 419.484 194.12 416.704 197.611 416.768L197.382 429.421L197.153 442.074C207.633 442.264 216.287 433.923 216.477 423.439L203.824 423.209ZM197.382 429.421L197.611 416.768L175.028 416.358L174.799 429.012L174.57 441.665L197.153 442.074L197.382 429.421ZM174.799 429.012L175.028 416.358C178.52 416.422 181.303 419.304 181.24 422.8L168.586 422.571L155.933 422.342C155.744 432.826 164.09 441.475 174.57 441.665L174.799 429.012ZM168.586 422.571L181.24 422.8L182.374 360.194L169.721 359.965L157.068 359.736L155.933 422.342L168.586 422.571ZM169.721 359.965L169.95 347.312L162.292 347.173L162.063 359.826L161.834 372.479L169.492 372.618L169.721 359.965ZM162.063 359.826L149.41 359.597L148.275 422.201L160.929 422.43L173.582 422.659L174.716 360.055L162.063 359.826ZM160.929 422.43L148.275 422.201C148.339 418.704 151.225 415.925 154.716 415.988L154.487 428.642L154.258 441.295C164.737 441.485 173.392 433.144 173.582 422.659L160.929 422.43ZM154.487 428.642L154.716 415.988L132.133 415.579L131.904 428.232L131.674 440.885L154.258 441.295L154.487 428.642ZM131.904 428.232L132.133 415.579C135.625 415.642 138.408 418.524 138.344 422.021L125.691 421.792L113.038 421.562C112.848 432.047 121.195 440.696 131.674 440.885L131.904 428.232ZM125.691 421.792L138.344 422.021L139.479 359.417L126.826 359.188L114.172 358.958L113.038 421.562L125.691 421.792ZM126.826 359.188L127.055 346.534L120.929 346.423L120.7 359.077L120.47 371.73L126.596 371.841L126.826 359.188ZM120.7 359.077L108.047 358.847L106.912 421.452L119.565 421.682L132.218 421.911L133.353 359.306L120.7 359.077ZM119.565 421.682L106.912 421.452C106.975 417.96 109.857 415.178 113.353 415.241L113.124 427.894L112.896 440.547C123.38 440.737 132.029 432.391 132.218 421.911L119.565 421.682ZM113.124 427.894L113.354 415.241L90.7706 414.832L90.5413 427.485L90.312 440.138L112.895 440.547L113.124 427.894ZM90.5413 427.485L90.7706 414.832C94.2647 414.895 97.0453 417.778 96.982 421.272L84.3289 421.043L71.6757 420.814C71.4858 431.296 79.8298 439.948 90.312 440.138L90.5413 427.485ZM84.3289 421.043L96.982 421.272L98.1208 358.426L85.4677 358.197L72.8145 357.968L71.6757 420.814L84.3289 421.043ZM85.4677 358.197L89.1359 346.085C91.7619 346.88 93.6841 349.336 93.6313 352.257L80.9781 352.029L68.3249 351.8C68.1675 360.512 73.892 367.914 81.7994 370.309L85.4677 358.197ZM80.9781 352.029L93.6312 352.258L93.9849 332.739L81.3318 332.509L68.6786 332.28L68.3249 351.799L80.9781 352.029ZM81.3318 332.509L93.9849 332.739C93.9217 336.231 91.0395 339.013 87.544 338.95L87.7725 326.297L88.001 313.644C77.5178 313.454 68.8685 321.8 68.6786 332.28L81.3318 332.509ZM87.7725 326.297L87.5433 338.95L92.0904 339.032L92.3196 326.379L92.5489 313.726L88.0018 313.644L87.7725 326.297ZM92.3196 326.379L104.892 327.829L127.817 129.069L115.245 127.618L102.673 126.168L79.7478 324.929L92.3196 326.379ZM115.245 127.618L127.817 129.067L128.355 124.402L115.782 122.953L103.21 121.504L102.673 126.17L115.245 127.618ZM115.782 122.953L128.436 123.182L128.543 117.276L115.89 117.046L103.236 116.817L103.129 122.723L115.782 122.953ZM115.89 117.046L128.543 117.276C128.479 120.772 125.594 123.551 122.102 123.488L122.331 110.835L122.561 98.1818C112.081 97.9919 103.427 106.333 103.236 116.817L115.89 117.046ZM122.331 110.835L122.102 123.488L137.229 123.762L137.459 111.109L137.688 98.4559L122.561 98.1818L122.331 110.835ZM137.459 111.109L150.113 110.955C150.112 110.912 150.112 110.873 150.112 110.861C150.111 110.842 150.111 110.85 150.112 110.862C150.112 110.877 150.112 110.91 150.112 110.956C150.112 111.002 150.112 111.066 150.11 111.143L137.457 110.914L124.804 110.685C124.8 110.898 124.802 111.072 124.803 111.161C124.803 111.206 124.804 111.246 124.804 111.259C124.805 111.281 124.804 111.274 124.804 111.264L137.459 111.109ZM137.457 110.914L150.11 111.143L150.456 92.0582L137.803 91.8289L125.15 91.5996L124.804 110.684L137.457 110.914ZM137.803 91.8289L143.148 80.3577C139.914 78.8511 137.271 76.2634 135.689 73.0729L124.35 78.6934L113.012 84.3139C117.136 92.6333 123.997 99.3578 132.458 103.3L137.803 91.8289ZM124.35 78.6934L124.58 66.0402L84.8216 65.3198L84.5923 77.973L84.363 90.6261L124.121 91.3466L124.35 78.6934ZM84.5923 77.973L73.9641 71.103C73.2774 72.1653 72.4746 73.142 71.5702 74.0139L80.3537 83.1246L89.1373 92.2352C91.4529 90.0027 93.4904 87.5195 95.2205 84.8429L84.5923 77.973ZM80.3537 83.1246L71.5703 74.0137C70.0159 75.5123 68.1821 76.6897 66.1743 77.4787L70.8026 89.2572L75.4309 101.036C80.5339 99.0305 85.1912 96.0395 89.1371 92.2354L80.3537 83.1246ZM70.8026 89.2572L66.1743 77.4786C65.6984 77.6657 65.1987 77.8344 64.6756 77.9838L68.1502 90.1527L71.6248 102.322C72.8941 101.959 74.1656 101.533 75.4308 101.036L70.8026 89.2572ZM68.1502 90.1527L55.4972 89.9139L54.8347 125.019L67.4877 125.258L80.1407 125.497L80.8032 90.3914L68.1502 90.1527ZM67.4877 125.258L67.7267 112.605C61.2384 112.482 54.8372 111.082 48.8885 108.486L43.8256 120.084L38.7627 131.682C47.7565 135.608 57.4359 137.725 67.2487 137.911L67.4877 125.258ZM43.8256 120.084L48.8885 108.486C44.9876 106.783 41.332 104.588 38.0083 101.96L30.1594 111.887L22.3105 121.814C27.3371 125.788 32.8649 129.108 38.7627 131.682L43.8256 120.084ZM30.1594 111.887L17.5062 111.658L13.9466 308.098L26.5998 308.327L39.2529 308.557L42.8125 112.116L30.1594 111.887ZM26.5998 308.327L26.3705 320.98L30.7672 321.06L30.9965 308.407L31.2258 295.754L26.8291 295.674L26.5998 308.327ZM30.9965 308.407L30.7668 321.06C27.2709 320.997 24.4915 318.111 24.5548 314.619L37.208 314.849L49.8611 315.078C50.051 304.598 41.7101 295.944 31.2262 295.754L30.9965 308.407ZM37.208 314.849L24.5548 314.619L23.4238 377.035L36.077 377.264L48.7302 377.493L49.8611 315.078L37.208 314.849ZM36.077 377.264L23.4238 377.035C23.4872 373.54 26.3717 370.759 29.8651 370.823L29.6362 383.476L29.4074 396.129C39.8888 396.318 48.5402 387.976 48.7302 377.493L36.077 377.264ZM29.6362 383.476L29.8655 370.823L10.3463 370.469L10.117 383.122L9.88771 395.775L29.407 396.129L29.6362 383.476ZM10.117 383.122L10.3463 370.469C13.8378 370.532 16.6211 373.414 16.5577 376.91L3.90454 376.681L-8.74862 376.452C-8.93859 386.937 -0.591987 395.585 9.88771 395.775L10.117 383.122ZM3.90454 376.681L16.5577 376.911L17.6887 314.495L5.03553 314.266L-7.61763 314.036L-8.74862 376.452L3.90454 376.681ZM5.03553 314.266L17.6887 314.495C17.6254 317.989 14.7421 320.77 11.248 320.706L11.4773 308.053L11.7065 295.4C1.22432 295.21 -7.42769 303.554 -7.61763 314.036L5.03553 314.266ZM11.4773 308.053L11.248 320.706L13.7173 320.751L13.9466 308.098L14.1759 295.445L11.7065 295.4L11.4773 308.053ZM13.9466 308.098L26.5997 308.327L30.2919 104.569L17.6388 104.339L4.98561 104.11L1.29343 307.869L13.9466 308.098ZM17.6388 104.339L17.4095 116.993L22.0259 117.076L22.2552 104.423L22.4845 91.77L17.8681 91.6863L17.6388 104.339ZM22.2552 104.423L31.7156 96.0174C27.8499 91.6666 24.7795 86.6646 22.6512 81.239L10.8699 85.8603L-0.911363 90.4816C2.30789 98.6886 6.95121 106.252 12.7948 112.829L22.2552 104.423ZM10.8699 85.8603L22.6512 81.239C20.2813 75.1972 19.1245 68.7473 19.2471 62.2581L6.59412 62.0191L-6.05886 61.7802C-6.24418 71.5922 -4.49518 81.3452 -0.911367 90.4816L10.8699 85.8603ZM6.59412 62.0191L19.2471 62.2582C19.3697 55.7689 20.769 49.3676 23.3652 43.4199L11.7668 38.357L0.16844 33.2942C-3.7578 42.2887 -5.87351 51.9684 -6.05886 61.7801L6.59412 62.0191ZM11.7668 38.357L23.3652 43.4199C25.9615 37.4722 29.7045 32.0936 34.38 27.5915L25.602 18.4755L16.8239 9.35951C9.755 16.1664 4.09487 24.2992 0.168456 33.2941L11.7668 38.357ZM25.602 18.4755L34.38 27.5915C39.0553 23.0896 44.5713 19.5525 50.6129 17.1826L45.9916 5.40136L41.3703 -6.37993C32.2338 -2.79608 23.893 2.55252 16.824 9.35949L25.602 18.4755ZM45.9916 5.40136L50.6129 17.1827C56.6547 14.8127 63.1047 13.656 69.5938 13.7785L69.8327 1.12556L70.0717 -11.5274C60.2597 -11.7127 50.5066 -9.96368 41.3703 -6.37994L45.9916 5.40136ZM69.8327 1.12556L57.1798 0.886298L56.548 34.2944L69.201 34.5337L81.854 34.7729L82.4857 1.36483L69.8327 1.12556ZM107.207 326.161L106.978 338.814L186.22 340.25L186.45 327.597L186.679 314.943L107.436 313.508L107.207 326.161ZM186.45 327.597L199.031 326.232L178.312 135.264L165.73 136.629L153.149 137.994L173.868 328.962L186.45 327.597ZM165.73 136.629L165.96 123.976L129.373 123.313L129.144 135.966L128.914 148.62L165.501 149.283L165.73 136.629ZM129.144 135.966L116.572 134.516L94.635 324.711L107.207 326.161L119.779 327.611L141.716 137.416L129.144 135.966Z" fill="#230637" mask="url(#path-1-inside-1_1438_3619)"/>
<path d="M292.244 102.036L299.462 121.059L300.551 123.927L303.583 124.398C308.349 125.139 312.721 126.657 317.232 128.672L319.945 129.883L322.388 128.19L339.13 116.575L359.513 138.556L346.64 154.207L344.746 156.51L345.743 159.321C346.64 161.847 347.385 164.156 347.907 166.447C348.428 168.731 348.739 171.051 348.988 173.534L349.284 176.495L351.973 177.772L370.456 186.542L361.611 215.191L341.488 211.909L338.501 211.421L336.573 213.755C333.46 217.524 330.154 220.739 326.125 223.592L323.659 225.337L323.917 228.346L325.656 248.619L296.359 255.297L289.14 236.273L288.052 233.404L285.02 232.933C280.259 232.194 275.901 230.679 271.412 228.608L268.664 227.341L266.182 229.074L249.468 240.754L229.083 218.767L241.939 202.853L243.809 200.538L242.794 197.74C241.942 195.394 241.216 193.169 240.695 190.885C240.173 188.594 239.844 186.19 239.558 183.525L239.239 180.56L236.533 179.305L218.149 170.778L226.991 142.136L247.115 145.348L250.05 145.816L251.971 143.548C255.163 139.777 258.444 136.514 262.419 133.781L264.947 132.043L264.685 128.986L262.946 108.714L292.244 102.036ZM286.872 146.073C278.236 148.042 270.737 153.365 266.025 160.87C261.314 168.374 259.775 177.445 261.745 186.087C263.715 194.728 269.033 202.236 276.531 206.957C284.029 211.679 293.094 213.227 301.731 211.258C310.368 209.29 317.866 203.966 322.577 196.461C327.288 188.957 328.828 179.886 326.858 171.245C324.888 162.603 319.57 155.095 312.072 150.374C304.573 145.653 295.509 144.104 286.872 146.073Z" fill="url(#paint1_linear_1438_3619)" stroke="#4F1B57" stroke-width="10.546"/>
<path d="M82.8672 206.123L86.6022 215.966L87.6908 218.835L90.7228 219.306C93.3706 219.717 95.8365 220.565 98.4694 221.741L101.183 222.953L103.625 221.259L112.294 215.244L122.192 225.919L115.541 234.007L113.647 236.31L114.644 239.121C115.178 240.625 115.599 241.936 115.889 243.208C116.177 244.473 116.355 245.783 116.502 247.25L116.799 250.211L119.488 251.487L129.069 256.035L124.771 269.957L114.355 268.258L111.369 267.771L109.441 270.105C107.65 272.273 105.777 274.089 103.508 275.696L101.043 277.441L101.301 280.45L102.201 290.94L87.9623 294.185L84.2271 284.342L83.1384 281.473L80.1064 281.002L79.613 280.92C77.1571 280.485 74.8487 279.672 72.4071 278.546L69.6592 277.278L67.1787 279.012L58.5274 285.056L48.6201 274.373L55.2851 266.122L57.1552 263.806L56.1399 261.009C55.6368 259.623 55.2288 258.365 54.9405 257.101C54.6507 255.829 54.4612 254.465 54.2905 252.878L53.9721 249.912L51.2663 248.658L41.7661 244.251L46.0605 230.341L56.4808 232.005L59.4152 232.474L61.336 230.205C63.1992 228.004 65.0542 226.171 67.2621 224.653L69.7906 222.915L69.5284 219.858L68.6289 209.369L82.8672 206.123ZM80.4492 228.37C74.6755 229.686 69.663 233.245 66.5138 238.262C63.3649 243.277 62.3362 249.34 63.6526 255.115C64.9691 260.89 68.5233 265.908 73.5349 269.063C78.5468 272.219 84.6063 273.253 90.38 271.937C96.1537 270.621 101.166 267.063 104.316 262.047C107.465 257.031 108.492 250.969 107.176 245.194C105.86 239.419 102.306 234.401 97.2946 231.245C92.2827 228.089 86.2229 227.054 80.4492 228.37Z" fill="url(#paint2_linear_1438_3619)" stroke="#4F1B57" stroke-width="10.546"/>
<path d="M284.829 274.742C294.147 274.91 301.563 282.601 301.394 291.918L300.777 325.969C300.663 332.269 297.11 337.699 291.94 340.503C293.693 341.913 294.8 344.089 294.756 346.512C294.732 347.879 294.343 349.152 293.687 350.245L316.401 350.657C315.785 349.541 315.443 348.254 315.468 346.889C315.506 344.8 316.391 342.925 317.789 341.585C312.075 338.797 308.186 332.883 308.309 326.108L308.926 292.058C309.095 282.74 316.785 275.324 326.103 275.492L346.971 275.87C356.288 276.039 363.705 283.73 363.536 293.047L363.253 308.685L381.595 309.017L380.82 351.824L390.727 352.004L389.26 432.978L216.014 429.839L217.481 348.865L230.211 349.095L231.003 305.345L246.517 305.626L246.784 290.929C246.953 281.611 254.643 274.195 263.961 274.363L284.829 274.742ZM362.919 327.098C362.805 333.398 359.251 338.827 354.081 341.631C355.834 343.041 356.94 345.216 356.896 347.639C356.872 349.005 356.483 350.279 355.828 351.371L372.385 351.671L373.007 317.3L363.1 317.121L362.919 327.098ZM238.647 349.248L254.261 349.531C253.645 348.415 253.303 347.128 253.328 345.762C253.365 343.672 254.251 341.797 255.65 340.457C249.935 337.669 246.044 331.755 246.167 324.979L246.365 314.062L239.287 313.934L238.647 349.248Z" fill="url(#paint3_linear_1438_3619)"/>
<path d="M284.829 274.742L284.906 270.524L284.906 270.524L284.829 274.742ZM301.394 291.918L305.612 291.995L305.612 291.995L301.394 291.918ZM291.94 340.503L289.928 336.795L284.357 339.818L289.296 343.79L291.94 340.503ZM294.756 346.512L298.974 346.589L298.974 346.589L294.756 346.512ZM293.687 350.245L290.069 348.075L286.315 354.331L293.61 354.463L293.687 350.245ZM316.401 350.657L316.324 354.875L323.617 355.007L320.095 348.62L316.401 350.657ZM315.468 346.889L311.25 346.812L311.25 346.812L315.468 346.889ZM317.789 341.585L320.707 344.631L325.075 340.447L319.639 337.794L317.789 341.585ZM308.309 326.108L304.091 326.032L304.091 326.032L308.309 326.108ZM363.536 293.047L359.318 292.971L363.536 293.047ZM363.253 308.685L359.035 308.608L358.959 312.826L363.176 312.902L363.253 308.685ZM381.595 309.017L385.813 309.093L385.89 304.876L381.672 304.799L381.595 309.017ZM380.82 351.824L376.602 351.748L376.526 355.966L380.743 356.042L380.82 351.824ZM390.727 352.004L394.945 352.08L395.021 347.863L390.804 347.786L390.727 352.004ZM389.26 432.978L389.184 437.196L393.401 437.272L393.478 433.054L389.26 432.978ZM216.014 429.839L211.796 429.762L211.72 433.98L215.938 434.056L216.014 429.839ZM217.481 348.865L217.558 344.647L213.34 344.57L213.264 348.788L217.481 348.865ZM230.211 349.095L230.134 353.313L234.352 353.389L234.428 349.172L230.211 349.095ZM231.003 305.345L231.08 301.127L226.862 301.05L226.786 305.268L231.003 305.345ZM246.517 305.626L246.441 309.843L250.659 309.92L250.735 305.702L246.517 305.626ZM246.784 290.929L242.566 290.852L242.566 290.853L246.784 290.929ZM263.961 274.363L264.037 270.146L264.037 270.146L263.961 274.363ZM362.919 327.098L367.137 327.174L367.137 327.174L362.919 327.098ZM354.081 341.631L352.069 337.923L346.499 340.945L351.437 344.918L354.081 341.631ZM356.896 347.639L361.114 347.716L361.114 347.715L356.896 347.639ZM355.828 351.371L352.21 349.202L348.459 355.457L355.751 355.589L355.828 351.371ZM372.385 351.671L372.308 355.889L376.526 355.966L376.602 351.748L372.385 351.671ZM373.007 317.3L377.225 317.377L377.302 313.159L373.084 313.082L373.007 317.3ZM363.1 317.121L363.176 312.903L358.959 312.827L358.882 317.044L363.1 317.121ZM238.647 349.248L234.429 349.172L234.353 353.389L238.57 353.466L238.647 349.248ZM254.261 349.531L254.185 353.749L261.479 353.881L257.955 347.493L254.261 349.531ZM253.328 345.762L249.11 345.685L249.11 345.685L253.328 345.762ZM255.65 340.457L258.567 343.504L262.937 339.318L257.499 336.666L255.65 340.457ZM246.365 314.062L250.582 314.138L250.659 309.921L246.441 309.844L246.365 314.062ZM239.287 313.934L239.363 309.716L235.145 309.639L235.069 313.857L239.287 313.934ZM284.829 274.742L284.753 278.959C291.741 279.086 297.303 284.854 297.176 291.842L301.394 291.918L305.612 291.995C305.823 280.348 296.553 270.735 284.906 270.524L284.829 274.742ZM301.394 291.918L297.176 291.842L296.559 325.892L300.777 325.969L304.995 326.045L305.612 291.995L301.394 291.918ZM300.777 325.969L296.559 325.892C296.474 330.611 293.817 334.686 289.928 336.795L291.94 340.503L293.952 344.211C300.402 340.712 304.852 333.926 304.995 326.045L300.777 325.969ZM291.94 340.503L289.296 343.79C290.079 344.42 290.558 345.374 290.539 346.436L294.756 346.512L298.974 346.589C299.043 342.803 297.307 339.407 294.584 337.216L291.94 340.503ZM294.756 346.512L290.539 346.436C290.528 347.039 290.358 347.594 290.069 348.075L293.687 350.245L297.304 352.416C298.327 350.71 298.935 348.718 298.974 346.589L294.756 346.512ZM293.687 350.245L293.61 354.463L316.324 354.875L316.401 350.657L316.477 346.439L293.763 346.028L293.687 350.245ZM316.401 350.657L320.095 348.62C319.824 348.129 319.675 347.569 319.685 346.965L315.468 346.889L311.25 346.812C311.211 348.94 311.746 350.953 312.707 352.694L316.401 350.657ZM315.468 346.889L319.685 346.965C319.702 346.045 320.087 345.225 320.707 344.631L317.789 341.585L314.871 338.539C312.694 340.624 311.309 343.554 311.25 346.812L315.468 346.889ZM317.789 341.585L319.639 337.794C315.343 335.698 312.435 331.259 312.527 326.184L308.309 326.108L304.091 326.032C303.938 334.508 308.807 341.896 315.939 345.376L317.789 341.585ZM308.309 326.108L312.527 326.184L313.144 292.134L308.926 292.058L304.708 291.981L304.091 326.032L308.309 326.108ZM308.926 292.058L313.144 292.134C313.27 285.146 319.038 279.583 326.026 279.71L326.103 275.492L326.179 271.275C314.532 271.064 304.919 280.335 304.708 291.981L308.926 292.058ZM326.103 275.492L326.026 279.71L346.894 280.088L346.971 275.87L347.047 271.653L326.179 271.275L326.103 275.492ZM346.971 275.87L346.894 280.088C353.882 280.215 359.445 285.983 359.318 292.971L363.536 293.047L367.754 293.124C367.965 281.477 358.694 271.864 347.047 271.653L346.971 275.87ZM363.536 293.047L359.318 292.971L359.035 308.608L363.253 308.685L367.47 308.761L367.754 293.124L363.536 293.047ZM363.253 308.685L363.176 312.902L381.519 313.235L381.595 309.017L381.672 304.799L363.329 304.467L363.253 308.685ZM381.595 309.017L377.378 308.94L376.602 351.748L380.82 351.824L385.037 351.901L385.813 309.093L381.595 309.017ZM380.82 351.824L380.743 356.042L390.651 356.222L390.727 352.004L390.804 347.786L380.896 347.607L380.82 351.824ZM390.727 352.004L386.51 351.927L385.042 432.901L389.26 432.978L393.478 433.054L394.945 352.08L390.727 352.004ZM389.26 432.978L389.336 428.76L216.09 425.621L216.014 429.839L215.938 434.056L389.184 437.196L389.26 432.978ZM216.014 429.839L220.232 429.915L221.699 348.941L217.481 348.865L213.264 348.788L211.796 429.762L216.014 429.839ZM217.481 348.865L217.405 353.082L230.134 353.313L230.211 349.095L230.287 344.878L217.558 344.647L217.481 348.865ZM230.211 349.095L234.428 349.172L235.221 305.421L231.003 305.345L226.786 305.268L225.993 349.019L230.211 349.095ZM231.003 305.345L230.927 309.562L246.441 309.843L246.517 305.626L246.594 301.408L231.08 301.127L231.003 305.345ZM246.517 305.626L250.735 305.702L251.002 291.005L246.784 290.929L242.566 290.853L242.3 305.549L246.517 305.626ZM246.784 290.929L251.002 291.005C251.128 284.017 256.896 278.455 263.884 278.581L263.961 274.363L264.037 270.146C252.39 269.935 242.777 279.206 242.566 290.852L246.784 290.929ZM263.961 274.363L263.884 278.581L284.753 278.959L284.829 274.742L284.906 270.524L264.037 270.146L263.961 274.363ZM362.919 327.098L358.701 327.021C358.616 331.74 355.959 335.813 352.069 337.923L354.081 341.631L356.093 345.339C362.543 341.84 366.994 335.056 367.137 327.174L362.919 327.098ZM354.081 341.631L351.437 344.918C352.219 345.547 352.698 346.502 352.679 347.563L356.896 347.639L361.114 347.715C361.183 343.931 359.448 340.535 356.725 338.344L354.081 341.631ZM356.896 347.639L352.679 347.563C352.668 348.167 352.498 348.721 352.21 349.202L355.828 351.371L359.445 353.541C360.468 351.836 361.076 349.843 361.114 347.716L356.896 347.639ZM355.828 351.371L355.751 355.589L372.308 355.889L372.385 351.671L372.461 347.454L355.904 347.154L355.828 351.371ZM372.385 351.671L376.602 351.748L377.225 317.377L373.007 317.3L368.79 317.224L368.167 351.595L372.385 351.671ZM373.007 317.3L373.084 313.082L363.176 312.903L363.1 317.121L363.023 321.338L372.931 321.518L373.007 317.3ZM363.1 317.121L358.882 317.044L358.701 327.021L362.919 327.098L367.137 327.174L367.318 317.197L363.1 317.121ZM238.647 349.248L238.57 353.466L254.185 353.749L254.261 349.531L254.338 345.313L238.723 345.03L238.647 349.248ZM254.261 349.531L257.955 347.493C257.684 347.002 257.534 346.441 257.545 345.838L253.328 345.762L249.11 345.685C249.071 347.814 249.607 349.828 250.568 351.569L254.261 349.531ZM253.328 345.762L257.545 345.838C257.562 344.918 257.947 344.098 258.567 343.504L255.65 340.457L252.732 337.41C250.555 339.495 249.169 342.426 249.11 345.685L253.328 345.762ZM255.65 340.457L257.499 336.666C253.202 334.57 250.293 330.13 250.385 325.055L246.167 324.979L241.949 324.903C241.795 333.381 246.667 340.769 253.8 344.248L255.65 340.457ZM246.167 324.979L250.385 325.055L250.582 314.138L246.365 314.062L242.147 313.985L241.949 324.903L246.167 324.979ZM246.365 314.062L246.441 309.844L239.363 309.716L239.287 313.934L239.21 318.151L246.288 318.28L246.365 314.062ZM239.287 313.934L235.069 313.857L234.429 349.172L238.647 349.248L242.864 349.325L243.504 314.01L239.287 313.934Z" fill="#230637"/>
<defs>
<linearGradient id="paint0_linear_1438_3619" x1="152.469" y1="2.62295" x2="144.753" y2="428.467" gradientUnits="userSpaceOnUse">
<stop stop-color="#7B337D"/>
<stop offset="1" stop-color="#210535"/>
</linearGradient>
<linearGradient id="paint1_linear_1438_3619" x1="276.406" y1="100.237" x2="312.162" y2="257.102" gradientUnits="userSpaceOnUse">
<stop stop-color="#F8F0FC"/>
<stop offset="1" stop-color="#D3B7D8"/>
</linearGradient>
<linearGradient id="paint2_linear_1438_3619" x1="74.5655" y1="202.607" x2="96.2427" y2="297.706" gradientUnits="userSpaceOnUse">
<stop stop-color="#F8F0FC"/>
<stop offset="1" stop-color="#D3B7D8"/>
</linearGradient>
<linearGradient id="paint3_linear_1438_3619" x1="305.469" y1="275.116" x2="302.637" y2="431.408" gradientUnits="userSpaceOnUse">
<stop stop-color="#7B337D"/>
<stop offset="1" stop-color="#210535"/>
</linearGradient>
</defs>
</svg>
