<svg width="512" height="444" viewBox="0 0 512 444" fill="none" xmlns="http://www.w3.org/2000/svg">
<rect x="1.72167" y="9.16946" width="31.2616" height="122.824" transform="matrix(0.806794 0.590833 -0.537529 0.843245 370.947 247.593)" fill="url(#paint0_linear_1438_3555)" stroke="#502356" stroke-width="12.788"/>
<rect width="44.0496" height="47.3573" transform="matrix(0.806794 0.590833 0.537529 -0.843245 267.333 401.461)" fill="#3E1A44"/>
<path fill-rule="evenodd" clip-rule="evenodd" d="M324.144 194.96C334.987 149.467 380.655 121.376 426.148 132.219C471.641 143.061 499.732 188.73 488.89 234.224C478.047 279.717 432.378 307.806 386.885 296.964C341.392 286.121 313.302 240.453 324.144 194.96ZM419.239 159.094C388.252 151.709 357.145 170.842 349.759 201.829C342.374 232.817 361.507 263.925 392.495 271.31C423.483 278.696 454.591 259.562 461.976 228.574C469.361 197.586 450.227 166.479 419.239 159.094Z" fill="url(#paint1_linear_1438_3555)"/>
<circle cx="406.52" cy="214.589" r="78.286" transform="rotate(13.4054 406.52 214.589)" stroke="#502356" stroke-width="12.788"/>
<circle cx="405.855" cy="215.19" r="51.2857" transform="rotate(13.4054 405.855 215.19)" stroke="#502356" stroke-width="12.788"/>
<path d="M218.122 346.339L117.771 356.854C109.869 357.275 93.7252 354.851 92.357 341.793L63.8524 69.7561C63.621 65.604 64.6697 57.1416 70.7149 56.5081L302.249 32.2475C305.345 32.6361 311.875 35.4559 313.22 43.6268C314.565 51.7977 330.651 208.037 338.526 285.136L372.984 281.525C376.282 281.892 382.75 284.902 382.236 294.001L385.055 320.903C385.542 323.602 384.001 329.508 373.946 331.54C363.892 333.571 265.874 342.252 218.122 346.339Z" fill="url(#paint2_linear_1438_3555)"/>
<path d="M117.771 356.854L218.122 346.339C265.874 342.252 363.892 333.571 373.946 331.54C384.001 329.508 385.542 323.602 385.055 320.903L382.236 294.001C382.75 284.902 376.282 281.892 372.984 281.525L338.526 285.136M117.771 356.854C109.869 357.275 93.7252 354.851 92.357 341.793L63.8524 69.7561C63.621 65.604 64.6697 57.1416 70.7149 56.5081L302.249 32.2475C305.345 32.6361 311.875 35.4559 313.22 43.6268C314.565 51.7977 330.651 208.037 338.526 285.136M117.771 356.854C130.61 353.981 132.411 344.93 133.908 341.718C135.106 339.148 134.117 326.213 133.473 320.067C135.831 312.241 140.95 308.792 143.214 308.045L338.526 285.136" stroke="#4F1B57" stroke-width="12.788"/>
<path d="M110.917 242.165L306.543 222.278" stroke="#4F1B57" stroke-width="14.0681" stroke-linecap="round"/>
<path d="M114.102 272.596L309.665 252.104" stroke="#4F1B57" stroke-width="14.0681" stroke-linecap="round"/>
<path d="M103.975 177.652L298.806 157.892" stroke="#4F1B57" stroke-width="14.0681" stroke-linecap="round"/>
<path d="M98.6521 131.588L179.803 123.323" stroke="#4F1B57" stroke-width="14.0681" stroke-linecap="round"/>
<path d="M96.5869 105.377L177.738 97.1124" stroke="#4F1B57" stroke-width="14.0681" stroke-linecap="round"/>
<path d="M107.162 208.08L302.725 187.589" stroke="#4F1B57" stroke-width="14.0681" stroke-linecap="round"/>
<path d="M64.9443 24.1173L30.5073 57.3293L114.738 145.281L148.562 145.894L149.175 112.061L64.9443 24.1173ZM60.5963 20.2101L43.9907 2.99113C42.5225 1.46917 40.51 0.592663 38.3957 0.554351C36.2814 0.516039 34.2384 1.31906 32.716 2.78683L9.75009 24.9281C8.99531 25.6552 8.39124 26.524 7.97245 27.4847C7.55364 28.4454 7.3283 29.4793 7.30931 30.5272C7.29032 31.5751 7.47806 32.6164 7.86179 33.5917C8.2455 34.567 8.8177 35.457 9.54564 36.211L26.1592 53.4301L60.5963 20.2101Z" fill="#3E1A44"/>
<rect x="193.945" y="87.9215" width="94.1657" height="56.5944" rx="8.03894" transform="rotate(-6.98575 193.945 87.9215)" stroke="#502356" stroke-width="16.0779"/>
<ellipse cx="428.264" cy="216.607" rx="5.45536" ry="14.4578" transform="rotate(15.5335 428.264 216.607)" fill="#C5B2C7"/>
<ellipse cx="419.574" cy="238.542" rx="3.35736" ry="3.45042" transform="rotate(34.15 419.574 238.542)" fill="#C5B2C7"/>
<defs>
<linearGradient id="paint0_linear_1438_3555" x1="22.0248" y1="0" x2="22.0248" y2="135.612" gradientUnits="userSpaceOnUse">
<stop stop-color="#CAB8CB"/>
<stop offset="1" stop-color="#7C5C89"/>
</linearGradient>
<linearGradient id="paint1_linear_1438_3555" x1="426.149" y1="132.219" x2="386.885" y2="296.964" gradientUnits="userSpaceOnUse">
<stop stop-color="#CEBDCF"/>
<stop offset="1" stop-color="#7D5D8A"/>
</linearGradient>
<linearGradient id="paint2_linear_1438_3555" x1="208.506" y1="42.0701" x2="353.525" y2="351.998" gradientUnits="userSpaceOnUse">
<stop stop-color="#E4D1E5"/>
<stop offset="1" stop-color="#7B548B"/>
</linearGradient>
</defs>
</svg>
