<svg width="250" height="224" viewBox="0 0 250 224" fill="none" xmlns="http://www.w3.org/2000/svg">
<g filter="url(#filter0_d_663_1077)">
<path d="M137.045 74.0585V112.434" stroke="url(#paint0_linear_663_1077)" stroke-width="6.02192"/>
<path d="M216.798 7.31848C152.059 -15.0395 137.821 44.999 138.795 77.813L142.966 81.15C195.941 99.0865 214.156 40.8277 216.798 7.31848Z" fill="url(#paint1_linear_663_1077)"/>
<path d="M138.795 77.813C137.821 44.999 152.059 -15.0395 216.798 7.31848C214.156 40.8277 195.941 99.0865 142.966 81.15L138.795 77.813ZM138.795 77.813C142.132 60.4605 171.053 37.7688 185.096 28.5919" stroke="#56205F" stroke-width="3.7637" stroke-linecap="round"/>
<path d="M48.6136 16.4956C123.697 -8.19835 138.574 44.5822 136.627 74.0592C117.857 93.6641 71.9728 71.1393 69.47 54.4542C67.4678 41.1061 54.7315 23.5867 48.6136 16.4956Z" fill="url(#paint2_linear_663_1077)"/>
<path d="M136.627 74.0591C138.574 44.5822 123.697 -8.19835 48.6136 16.4956C54.7315 23.5867 67.4678 41.1061 69.47 54.4542C71.9728 71.1393 117.857 93.6641 136.627 74.0591ZM136.627 74.0591C133.29 59.3763 101.589 40.1328 86.1551 32.3464" stroke="#56205F" stroke-width="3.7637" stroke-linecap="round"/>
<mask id="mask0_663_1077" style="mask-type:alpha" maskUnits="userSpaceOnUse" x="75" y="106" width="123" height="78">
<path d="M100.754 122.863C86.4052 121.528 78.9247 140.382 76.9781 149.976L84.9036 172.084C118.135 181.678 186.516 192.857 194.191 160.821C201.866 128.786 180.148 121.333 168.329 121.611C137.628 96.5835 110.487 112.017 100.754 122.863Z" fill="#794F82" stroke="#350D42" stroke-width="3.7637"/>
</mask>
<g mask="url(#mask0_663_1077)">
<path d="M100.754 122.863C86.4052 121.528 78.9247 140.382 76.9781 149.976L84.9036 172.084C118.135 181.678 186.516 192.857 194.191 160.821C201.866 128.786 180.148 121.333 168.329 121.611C137.628 96.5835 110.487 112.017 100.754 122.863Z" fill="#794F82" stroke="#350D42" stroke-width="3.7637"/>
<g opacity="0.37" filter="url(#filter1_f_663_1077)">
<g filter="url(#filter2_i_663_1077)">
<path d="M137.238 159.381C137.216 156.962 137.755 154.826 138.562 152.74C139.282 150.877 140.299 149.174 141.354 147.492C144.332 142.744 147.338 138.013 150.281 133.243C151.717 130.914 153.072 128.533 154.399 126.14C155.621 123.934 156.598 121.614 157.322 119.194C157.825 117.512 158.033 115.796 157.798 114.043C157.587 112.468 157.017 111.039 156.039 109.778C155.673 109.307 155.321 108.825 154.97 108.342C154.898 108.241 154.851 108.116 154.818 107.995C154.807 107.953 154.859 107.865 154.905 107.841C154.948 107.82 155.038 107.838 155.076 107.873C155.181 107.969 155.272 108.079 155.363 108.189C156.857 109.971 158.256 111.823 159.555 113.752C161.079 116.014 162.524 118.322 163.82 120.722C165.031 122.965 166.036 125.298 166.704 127.764C166.901 128.489 167.001 129.233 167.059 129.987C167.174 131.487 166.806 132.886 166.284 134.268C165.467 136.434 164.29 138.402 162.963 140.283C160.956 143.123 158.914 145.938 156.895 148.771C155.584 150.61 154.337 152.492 153.284 154.495C152.093 156.762 151.086 159.104 150.427 161.589C149.816 163.89 149.862 166.171 150.474 168.465C151.247 171.362 152.636 173.924 154.54 176.224C155.193 177.014 155.831 177.815 156.464 178.619C156.623 178.822 156.752 179.052 156.869 179.282C156.987 179.515 156.907 179.668 156.632 179.666C156.3 179.664 155.947 179.647 155.641 179.536C154.886 179.261 154.145 178.948 153.414 178.615C150.557 177.311 147.876 175.714 145.418 173.753C143.149 171.943 141.165 169.875 139.638 167.393C138.651 165.789 137.908 164.083 137.54 162.23C137.342 161.238 137.169 160.239 137.233 159.384L137.238 159.381Z" fill="#E0CCE5"/>
</g>
<g filter="url(#filter3_i_663_1077)">
<path d="M178.629 133.589C178.645 136.476 178.023 139.231 177.013 141.912C176.121 144.28 174.928 146.488 173.476 148.557C172.567 149.853 171.698 151.181 170.719 152.422C169.709 153.703 168.597 154.906 167.512 156.127C165.242 158.687 162.876 161.164 160.729 163.833C159.271 165.646 157.899 167.521 156.83 169.593C156.487 170.258 156.247 170.978 155.978 171.679C155.81 172.116 155.649 172.554 155.361 172.93C155.298 173.012 155.236 173.096 155.164 173.171C154.91 173.439 154.695 173.445 154.436 173.176C154.105 172.832 153.905 172.411 153.771 171.957C153.527 171.121 153.368 170.265 153.304 169.399C153.237 168.469 153.166 167.535 153.186 166.606C153.224 164.859 153.276 163.108 153.574 161.379C153.791 160.11 154.149 158.88 154.598 157.673C155.516 155.2 156.8 152.924 158.322 150.776C160.234 148.076 162.146 145.375 164.069 142.682C165.6 140.538 166.869 138.254 167.825 135.799C168.58 133.862 169.168 131.875 169.551 129.83C169.845 128.262 170.093 126.688 170.201 125.095C170.244 124.463 170.329 123.829 170.314 123.198C170.27 121.411 170.212 119.624 169.769 117.874C169.287 115.967 168.415 114.262 167.193 112.73C166.926 112.396 166.641 112.076 166.364 111.749C166.289 111.66 166.198 111.577 166.148 111.475C166.108 111.395 166.076 111.258 166.117 111.201C166.205 111.078 166.348 111.109 166.463 111.192C166.525 111.238 166.573 111.301 166.626 111.358C167.378 112.165 168.13 112.971 168.879 113.78C170.5 115.532 172.165 117.245 173.727 119.047C175.721 121.347 177.053 124.016 177.803 126.97C178.095 128.116 178.281 129.28 178.398 130.454C178.502 131.497 178.555 132.546 178.629 133.593V133.589Z" fill="#E0CCE5"/>
</g>
<g filter="url(#filter4_i_663_1077)">
<path d="M181.225 135.445C181.512 135.407 181.57 135.594 181.624 135.762C181.802 136.317 181.975 136.874 182.138 137.432C182.594 138.99 182.854 140.585 182.974 142.203C183.025 142.873 183.087 143.542 183.122 144.213C183.183 145.397 183.056 146.565 182.801 147.721C182.493 149.126 182.187 150.536 181.551 151.836C181.091 152.777 180.578 153.695 180.054 154.603C178.818 156.743 177.335 158.703 175.639 160.501C174.954 161.226 174.277 161.96 173.575 162.668C172.451 163.799 171.292 164.896 170.178 166.038C168.831 167.42 167.518 168.835 166.4 170.417C165.393 171.841 164.539 173.349 163.907 174.973C163.417 176.229 163.273 177.529 163.616 178.856C163.635 178.931 163.642 179.009 163.657 179.085C163.68 179.209 163.672 179.343 163.537 179.374C163.44 179.398 163.285 179.384 163.224 179.321C162.975 179.06 162.689 178.806 162.53 178.493C161.764 176.984 161.207 175.399 161.001 173.71C160.843 172.407 160.833 171.101 161.032 169.802C161.294 168.093 161.965 166.54 162.99 165.158C163.62 164.307 164.329 163.512 165.017 162.704C166.04 161.5 167.067 160.3 168.109 159.112C168.714 158.42 169.356 157.761 169.976 157.081C171.136 155.809 172.314 154.551 173.442 153.251C174.597 151.922 175.726 150.568 176.821 149.19C177.797 147.959 178.635 146.631 179.341 145.228C180.236 143.451 180.917 141.596 181.3 139.639C181.44 138.924 181.441 138.197 181.384 137.474C181.335 136.856 181.259 136.24 181.197 135.623C181.192 135.574 181.21 135.524 181.221 135.447L181.225 135.445Z" fill="#E0CCE5"/>
</g>
</g>
<path d="M100.754 122.863C86.4052 121.528 78.9247 140.382 76.9781 149.976L84.9036 172.084C118.135 181.678 186.516 192.857 194.191 160.821C201.866 128.786 180.148 121.333 168.329 121.611C137.628 96.5835 110.487 112.017 100.754 122.863Z" stroke="#350D42" stroke-width="3.7637"/>
</g>
<path d="M98.6689 222.556C71.3053 207.873 43.8862 223.112 33.597 232.567C24.0031 222.695 5.8163 199.447 9.82072 185.432C27.8962 164.576 74.8092 130.705 117.857 162.073C133.708 161.795 167.411 162.073 175.42 165.41C181.26 160.265 193.941 149.976 197.945 149.976C204.48 133.013 219.886 101.172 229.23 109.515C231.519 111.534 233.364 119.343 223.177 134.682C230.691 126.326 238.256 120.684 243.412 122.029C253.006 124.531 228.395 174.17 224.224 183.763C220.887 191.439 195.025 207.262 182.511 214.214C165.965 223.112 126.032 237.239 98.6689 222.556Z" fill="url(#paint3_linear_663_1077)"/>
<path d="M33.597 232.567L32.2475 233.879L33.5229 235.191L34.8703 233.953L33.597 232.567ZM98.6689 222.556L97.7791 224.215V224.215L98.6689 222.556ZM182.511 214.214L183.403 215.871L183.414 215.865L183.425 215.859L182.511 214.214ZM224.224 183.763L225.95 184.514V184.514L224.224 183.763ZM243.412 122.029L243.887 120.208V120.208L243.412 122.029ZM205.453 159.57L203.817 158.64V158.64L205.453 159.57ZM172.5 191.272V193.154H173.46L174.024 192.376L172.5 191.272ZM106.177 189.39C105.138 189.39 104.295 190.232 104.295 191.272C104.295 192.311 105.138 193.154 106.177 193.154V191.272V189.39ZM9.82072 185.432L8.39863 184.199L8.12574 184.514L8.01128 184.915L9.82072 185.432ZM117.857 162.073L116.748 163.594L117.259 163.965L117.89 163.954L117.857 162.073ZM175.42 165.41L174.697 167.147L175.782 167.599L176.664 166.822L175.42 165.41ZM197.945 149.976V151.858H199.237L199.701 150.653L197.945 149.976ZM229.23 109.515L227.976 110.919L227.985 110.926L229.23 109.515ZM182.511 177.507L184.245 178.24V178.24L182.511 177.507ZM155.398 176.042C154.359 176.042 153.516 176.884 153.516 177.924C153.516 178.963 154.359 179.806 155.398 179.806V177.924V176.042ZM33.597 232.567L34.8703 233.953C39.8179 229.407 48.9842 223.395 60.2256 220.326C71.4284 217.267 84.61 217.148 97.7791 224.215L98.6689 222.556L99.5586 220.898C85.3642 213.282 71.1544 213.441 59.2344 216.695C47.3531 219.938 37.6653 226.273 32.3237 231.182L33.597 232.567ZM98.6689 222.556L97.7791 224.215C112.002 231.846 129.325 231.922 144.983 229.08C160.673 226.231 174.979 220.402 183.403 215.871L182.511 214.214L181.62 212.556C173.498 216.925 159.564 222.608 144.311 225.377C129.024 228.151 112.7 227.949 99.5586 220.898L98.6689 222.556ZM182.511 214.214L183.425 215.859C189.718 212.363 199.365 206.638 207.872 200.812C212.124 197.901 216.125 194.942 219.289 192.205C222.374 189.538 224.927 186.866 225.95 184.514L224.224 183.763L222.498 183.013C221.853 184.498 219.922 186.682 216.828 189.358C213.814 191.964 209.941 194.834 205.746 197.707C197.36 203.449 187.819 209.113 181.598 212.569L182.511 214.214ZM224.224 183.763L225.95 184.514C227.978 179.849 235.247 164.871 240.731 150.926C243.476 143.945 245.836 137.077 246.894 131.748C247.418 129.107 247.66 126.671 247.375 124.733C247.09 122.79 246.155 120.799 243.887 120.208L243.412 122.029L242.937 123.85C243.068 123.884 243.462 123.992 243.651 125.28C243.841 126.573 243.701 128.501 243.202 131.015C242.213 135.997 239.959 142.607 237.229 149.548C231.763 163.446 224.642 178.084 222.498 183.013L224.224 183.763ZM243.412 122.029L243.887 120.208C240.498 119.324 236.721 120.791 233.145 123.145C229.481 125.556 225.588 129.186 221.778 133.423L223.177 134.682L224.576 135.94C228.28 131.821 231.927 128.452 235.214 126.289C238.587 124.069 241.171 123.389 242.937 123.85L243.412 122.029ZM223.177 134.682L221.778 133.423C215.206 140.732 208.698 150.051 203.817 158.64L205.453 159.57L207.09 160.5C211.857 152.108 218.212 143.018 224.576 135.94L223.177 134.682ZM205.453 159.57L203.817 158.64C199.837 165.646 195.901 169.317 191.859 172.235C189.782 173.734 187.727 175.001 185.48 176.491C183.267 177.958 180.965 179.58 178.599 181.676L179.846 183.084L181.094 184.493C183.272 182.564 185.411 181.052 187.56 179.628C189.676 178.225 191.906 176.842 194.062 175.286C198.487 172.093 202.811 168.031 207.09 160.5L205.453 159.57ZM179.846 183.084L178.599 181.676C178.248 181.986 177.896 182.307 177.542 182.64L178.831 184.011L180.12 185.382C180.446 185.076 180.77 184.78 181.094 184.493L179.846 183.084ZM178.831 184.011L177.542 182.64C175.391 184.662 173.206 187.093 170.977 190.167L172.5 191.272L174.024 192.376C176.116 189.491 178.145 187.239 180.12 185.382L178.831 184.011ZM172.5 191.272V189.39H106.177V191.272V193.154H172.5V191.272ZM33.597 232.567L34.9466 231.256C30.2252 226.398 23.3788 218.233 18.2259 209.59C15.6497 205.269 13.5319 200.887 12.2997 196.781C11.0618 192.656 10.7665 188.972 11.6302 185.949L9.82072 185.432L8.01128 184.915C6.87276 188.9 7.34908 193.378 8.69481 197.862C10.0462 202.366 12.3239 207.04 14.9931 211.517C20.3309 220.47 27.3749 228.865 32.2475 233.879L33.597 232.567ZM9.82072 185.432L11.2428 186.664C20.1277 176.413 36.1249 162.952 55.1262 155.934C74.0538 148.943 95.8503 148.366 116.748 163.594L117.857 162.073L118.965 160.552C96.8156 144.412 73.6319 145.086 53.8222 152.403C34.0863 159.692 17.5892 173.595 8.39863 184.199L9.82072 185.432ZM117.857 162.073L117.89 163.954C125.79 163.816 138.141 163.816 149.505 164.266C155.188 164.491 160.6 164.828 165.074 165.312C169.624 165.805 172.977 166.43 174.697 167.147L175.42 165.41L176.144 163.673C173.859 162.721 169.996 162.06 165.479 161.571C160.885 161.073 155.379 160.732 149.654 160.505C138.2 160.052 125.774 160.052 117.824 160.191L117.857 162.073ZM175.42 165.41L176.664 166.822C179.555 164.275 184.14 160.455 188.481 157.283C190.655 155.695 192.732 154.295 194.486 153.301C195.363 152.804 196.126 152.427 196.756 152.18C197.418 151.919 197.795 151.858 197.945 151.858V149.976V148.094C197.095 148.094 196.199 148.354 195.379 148.677C194.526 149.012 193.595 149.48 192.629 150.027C190.696 151.123 188.487 152.617 186.261 154.244C181.801 157.503 177.125 161.4 174.176 163.998L175.42 165.41ZM197.945 149.976L199.701 150.653C202.947 142.229 208.378 130.161 214.115 121.277C217.003 116.804 219.856 113.32 222.424 111.455C223.699 110.529 224.764 110.106 225.62 110.038C226.399 109.977 227.164 110.193 227.976 110.919L229.23 109.515L230.483 108.111C228.96 106.751 227.199 106.138 225.322 106.286C223.521 106.429 221.799 107.258 220.213 108.409C217.061 110.698 213.901 114.67 210.953 119.235C205.018 128.426 199.479 140.761 196.189 149.3L197.945 149.976ZM229.23 109.515L227.985 110.926C228.47 111.354 229.501 113.057 229.015 116.865C228.538 120.606 226.605 126.118 221.609 133.641L223.177 134.682L224.745 135.723C229.936 127.906 232.174 121.845 232.749 117.342C233.314 112.906 232.278 109.695 230.475 108.104L229.23 109.515ZM223.177 134.682L221.609 133.641C221.284 134.131 220.945 134.631 220.592 135.138L222.139 136.211L223.685 137.284C224.051 136.756 224.404 136.235 224.745 135.723L223.177 134.682ZM170.415 164.159L170.136 166.02C172.751 166.412 176.341 167.505 178.777 169.382C179.973 170.304 180.79 171.336 181.166 172.47C181.529 173.567 181.545 174.961 180.778 176.773L182.511 177.507L184.245 178.24C185.313 175.715 185.43 173.375 184.738 171.286C184.059 169.234 182.666 167.628 181.074 166.401C177.934 163.982 173.641 162.739 170.694 162.297L170.415 164.159ZM182.511 177.507L180.778 176.773C179.518 179.753 178.722 181.319 178.243 182.1L179.846 183.084L181.45 184.069C182.083 183.038 182.968 181.257 184.245 178.24L182.511 177.507ZM179.846 183.084L178.243 182.1C178.108 182.32 178.014 182.45 177.958 182.521C177.894 182.601 177.914 182.559 178.018 182.482C178.102 182.42 178.456 182.173 179.01 182.193C179.664 182.216 180.11 182.581 180.333 182.876L178.831 184.011L177.33 185.145C177.606 185.511 178.126 185.928 178.879 185.954C179.533 185.977 180.014 185.687 180.257 185.507C180.729 185.157 181.113 184.617 181.45 184.069L179.846 183.084ZM178.831 184.011L180.333 182.876C180.559 183.175 180.608 183.453 180.615 183.49C180.624 183.537 180.629 183.576 180.632 183.606C180.634 183.622 180.635 183.637 180.636 183.652C180.636 183.659 180.637 183.667 180.637 183.675C180.637 183.679 180.637 183.683 180.638 183.687C180.638 183.689 180.638 183.691 180.638 183.693C180.638 183.694 180.638 183.695 180.638 183.696C180.638 183.696 180.638 183.697 180.638 183.697C180.638 183.697 180.638 183.698 180.638 183.698C180.638 183.698 180.638 183.699 178.757 183.763C176.877 183.828 176.877 183.829 176.877 183.829C176.877 183.829 176.877 183.83 176.877 183.83C176.877 183.83 176.877 183.831 176.877 183.831C176.877 183.833 176.877 183.834 176.877 183.835C176.877 183.837 176.877 183.839 176.877 183.841C176.877 183.846 176.877 183.851 176.878 183.856C176.878 183.866 176.879 183.877 176.88 183.889C176.881 183.913 176.883 183.941 176.886 183.973C176.892 184.035 176.903 184.118 176.922 184.216C176.949 184.354 177.035 184.755 177.33 185.145L178.831 184.011ZM155.398 177.924V179.806H182.094V177.924V176.042H155.398V177.924Z" fill="url(#paint4_linear_663_1077)"/>
</g>
<defs>
<filter id="filter0_d_663_1077" x="-3.57628e-06" y="1.52588e-05" width="260.538" height="255.038" filterUnits="userSpaceOnUse" color-interpolation-filters="sRGB">
<feFlood flood-opacity="0" result="BackgroundImageFix"/>
<feColorMatrix in="SourceAlpha" type="matrix" values="0 0 0 0 0 0 0 0 0 0 0 0 0 0 0 0 0 0 127 0" result="hardAlpha"/>
<feOffset dx="2.83531" dy="9.64007"/>
<feGaussianBlur stdDeviation="5.10356"/>
<feComposite in2="hardAlpha" operator="out"/>
<feColorMatrix type="matrix" values="0 0 0 0 0 0 0 0 0 0 0 0 0 0 0 0 0 0 0.35 0"/>
<feBlend mode="normal" in2="BackgroundImageFix" result="effect1_dropShadow_663_1077"/>
<feBlend mode="normal" in="SourceGraphic" in2="effect1_dropShadow_663_1077" result="shape"/>
</filter>
<filter id="filter1_f_663_1077" x="128.94" y="99.5523" width="62.4774" height="88.3938" filterUnits="userSpaceOnUse" color-interpolation-filters="sRGB">
<feFlood flood-opacity="0" result="BackgroundImageFix"/>
<feBlend mode="normal" in="SourceGraphic" in2="BackgroundImageFix" result="shape"/>
<feGaussianBlur stdDeviation="4.14007" result="effect1_foregroundBlur_663_1077"/>
</filter>
<filter id="filter2_i_663_1077" x="137.22" y="107.832" width="40.7462" height="93.6055" filterUnits="userSpaceOnUse" color-interpolation-filters="sRGB">
<feFlood flood-opacity="0" result="BackgroundImageFix"/>
<feBlend mode="normal" in="SourceGraphic" in2="BackgroundImageFix" result="shape"/>
<feColorMatrix in="SourceAlpha" type="matrix" values="0 0 0 0 0 0 0 0 0 0 0 0 0 0 0 0 0 0 127 0" result="hardAlpha"/>
<feOffset dx="10.886" dy="21.772"/>
<feGaussianBlur stdDeviation="21.772"/>
<feComposite in2="hardAlpha" operator="arithmetic" k2="-1" k3="1"/>
<feColorMatrix type="matrix" values="0 0 0 0 0 0 0 0 0 0.941176 0 0 0 0 1 0 0 0 0.07 0"/>
<feBlend mode="plus-lighter" in2="shape" result="effect1_innerShadow_663_1077"/>
</filter>
<filter id="filter3_i_663_1077" x="153.183" y="111.119" width="36.3329" height="84.0277" filterUnits="userSpaceOnUse" color-interpolation-filters="sRGB">
<feFlood flood-opacity="0" result="BackgroundImageFix"/>
<feBlend mode="normal" in="SourceGraphic" in2="BackgroundImageFix" result="shape"/>
<feColorMatrix in="SourceAlpha" type="matrix" values="0 0 0 0 0 0 0 0 0 0 0 0 0 0 0 0 0 0 127 0" result="hardAlpha"/>
<feOffset dx="10.886" dy="21.772"/>
<feGaussianBlur stdDeviation="21.772"/>
<feComposite in2="hardAlpha" operator="arithmetic" k2="-1" k3="1"/>
<feColorMatrix type="matrix" values="0 0 0 0 0 0 0 0 0 0.941176 0 0 0 0 1 0 0 0 0.07 0"/>
<feBlend mode="plus-lighter" in2="shape" result="effect1_innerShadow_663_1077"/>
</filter>
<filter id="filter4_i_663_1077" x="160.883" y="135.44" width="33.1403" height="65.7172" filterUnits="userSpaceOnUse" color-interpolation-filters="sRGB">
<feFlood flood-opacity="0" result="BackgroundImageFix"/>
<feBlend mode="normal" in="SourceGraphic" in2="BackgroundImageFix" result="shape"/>
<feColorMatrix in="SourceAlpha" type="matrix" values="0 0 0 0 0 0 0 0 0 0 0 0 0 0 0 0 0 0 127 0" result="hardAlpha"/>
<feOffset dx="10.886" dy="21.772"/>
<feGaussianBlur stdDeviation="21.772"/>
<feComposite in2="hardAlpha" operator="arithmetic" k2="-1" k3="1"/>
<feColorMatrix type="matrix" values="0 0 0 0 0 0 0 0 0 0.941176 0 0 0 0 1 0 0 0 0.07 0"/>
<feBlend mode="plus-lighter" in2="shape" result="effect1_innerShadow_663_1077"/>
</filter>
<linearGradient id="paint0_linear_663_1077" x1="137.545" y1="74.0585" x2="137.545" y2="112.434" gradientUnits="userSpaceOnUse">
<stop offset="0.176794" stop-color="#56205F"/>
<stop offset="0.828014" stop-color="#350D42"/>
</linearGradient>
<linearGradient id="paint1_linear_663_1077" x1="147.218" y1="15.6806" x2="222.245" y2="45.3008" gradientUnits="userSpaceOnUse">
<stop stop-color="#643C72"/>
<stop offset="1" stop-color="#9B7EAC"/>
</linearGradient>
<linearGradient id="paint2_linear_663_1077" x1="58.1818" y1="21.6442" x2="135.845" y2="61.359" gradientUnits="userSpaceOnUse">
<stop stop-color="#9B7EAC"/>
<stop offset="1" stop-color="#643C72"/>
</linearGradient>
<linearGradient id="paint3_linear_663_1077" x1="127.434" y1="108.147" x2="127.434" y2="232.567" gradientUnits="userSpaceOnUse">
<stop stop-color="#F8F0FC"/>
<stop offset="1" stop-color="#D3B7D8"/>
</linearGradient>
<linearGradient id="paint4_linear_663_1077" x1="127.434" y1="108.147" x2="127.434" y2="232.567" gradientUnits="userSpaceOnUse">
<stop stop-color="#56205F"/>
<stop offset="1" stop-color="#280636"/>
</linearGradient>
</defs>
</svg>
