<svg width="226" height="233" viewBox="0 0 226 233" fill="none" xmlns="http://www.w3.org/2000/svg">
<g filter="url(#filter0_d_663_923)">
<path d="M70.1275 80.0745C53.9116 92.2723 29.918 127.947 67.114 169.621" stroke="url(#paint0_linear_663_923)" stroke-width="3.97738"/>
<rect x="3.53741" y="132.736" width="181.397" height="53.9663" fill="url(#paint1_linear_663_923)" stroke="#461A52" stroke-width="2"/>
<path d="M231.43 155.601V186.703H186.935V133.353L231.43 155.601Z" fill="url(#paint2_linear_663_923)" stroke="#461A52" stroke-width="2"/>
<rect x="41.4141" y="188.702" width="116" height="43" fill="url(#paint3_linear_663_923)" stroke="#461A52" stroke-width="2"/>
<rect x="159.414" y="188.702" width="35" height="43" fill="url(#paint4_linear_663_923)" stroke="#461A52" stroke-width="2"/>
<path d="M116.623 73.3256C119.161 73.3256 121.219 75.3836 121.219 77.9222V126.431H112.026V77.9222L112.032 77.6859C112.155 75.2571 114.163 73.3256 116.623 73.3256Z" fill="url(#paint5_linear_663_923)" stroke="#461A52" stroke-width="2"/>
<path d="M117.484 115.516C123.937 115.516 130.082 117.287 134.572 120.383C138.698 123.229 141.054 126.927 141.406 130.737H93.5619C93.9137 126.927 96.2684 123.229 100.395 120.383C104.885 117.287 111.03 115.516 117.484 115.516Z" fill="url(#paint6_linear_663_923)" stroke="#461A52" stroke-width="2"/>
<path d="M125.902 47.0602L88.9441 77.329C87.7584 78.3002 86.0292 78.2129 84.9478 77.1267L72.6983 64.8222C71.6095 63.7284 71.537 61.984 72.5313 60.8036L103.264 24.3204L125.902 47.0602Z" fill="url(#paint7_linear_663_923)" stroke="#461A52" stroke-width="2"/>
<rect x="109.469" y="51.1339" width="27.6618" height="17.8035" rx="8.54571" transform="rotate(57.1583 109.469 51.1339)" fill="url(#paint8_linear_663_923)" stroke="#461A52" stroke-width="2"/>
<rect x="110.304" y="69.8817" width="6.6102" height="6.6102" rx="3.3051" fill="url(#paint9_linear_663_923)" stroke="#461A52" stroke-width="2"/>
<circle cx="126.955" cy="23.6781" r="22.6781" fill="url(#paint10_linear_663_923)" stroke="#461A52" stroke-width="2"/>
<path d="M68.9286 75.002L74.5867 69.4352L80.4302 75.3745L74.7721 80.9413C73.5999 82.0946 71.7146 82.0793 70.5614 80.9071L68.8943 79.2127C67.7411 78.0406 67.7564 76.1552 68.9286 75.002Z" fill="#2D143F" stroke="#461A52" stroke-width="2"/>
<g filter="url(#filter1_dd_663_923)">
<g filter="url(#filter2_n_663_923)">
<path d="M84.7133 122.234C87.8714 114.79 86.1355 110.342 84.7133 108.98C103.596 110.432 111.337 119.511 112.777 134.489C113.638 143.448 106.864 151.829 99.8738 157.366C93.6099 162.329 99.8738 167.679 91.7943 166.989C84.3502 166.354 73.7287 158.274 72.0039 149.922C69.9228 139.846 80.9004 131.221 84.7133 122.234Z" fill="url(#paint11_linear_663_923)"/>
</g>
<g filter="url(#filter3_i_663_923)">
<path d="M75.5577 148.927C75.5417 147.185 75.9301 145.646 76.5114 144.143C77.0303 142.801 77.7624 141.575 78.5224 140.363C80.6681 136.943 82.8333 133.535 84.9529 130.099C85.9875 128.421 86.9639 126.706 87.9193 124.982C88.7996 123.393 89.5039 121.722 90.0254 119.979C90.3877 118.767 90.5376 117.531 90.3683 116.268C90.2158 115.133 89.8055 114.104 89.1012 113.196C88.8375 112.856 88.584 112.509 88.3312 112.161C88.279 112.089 88.2453 111.999 88.2217 111.911C88.2133 111.881 88.2512 111.818 88.284 111.801C88.3152 111.786 88.3801 111.798 88.407 111.823C88.4829 111.893 88.5486 111.972 88.6143 112.051C89.6901 113.335 90.6977 114.669 91.6337 116.058C92.7314 117.687 93.7727 119.35 94.7062 121.079C95.5781 122.695 96.3027 124.375 96.7837 126.152C96.9253 126.674 96.9977 127.21 97.039 127.753C97.1224 128.834 96.857 129.842 96.4813 130.837C95.8924 132.398 95.0449 133.815 94.0887 135.17C92.643 137.216 91.172 139.244 89.7179 141.284C88.7735 142.609 87.8746 143.965 87.1164 145.408C86.2587 147.041 85.5334 148.728 85.0582 150.518C84.6185 152.176 84.6513 153.818 85.0919 155.471C85.6488 157.558 86.6497 159.403 88.0212 161.06C88.4913 161.629 88.9513 162.206 89.4071 162.786C89.5216 162.931 89.6143 163.097 89.6986 163.263C89.7836 163.431 89.7264 163.541 89.5284 163.54C89.2891 163.538 89.0347 163.526 88.814 163.446C88.2706 163.248 87.7364 163.022 87.2099 162.782C85.1517 161.843 83.2208 160.693 81.4499 159.28C79.8155 157.976 78.3867 156.487 77.2864 154.699C76.5754 153.544 76.0404 152.315 75.7751 150.979C75.6327 150.265 75.508 149.546 75.5543 148.93L75.5577 148.927Z" fill="url(#paint12_linear_663_923)"/>
</g>
<g filter="url(#filter4_i_663_923)">
<path d="M105.374 130.348C105.385 132.428 104.937 134.413 104.21 136.344C103.567 138.05 102.707 139.64 101.662 141.131C101.007 142.064 100.381 143.021 99.6758 143.915C98.9482 144.838 98.1473 145.704 97.3658 146.584C95.7303 148.428 94.0256 150.212 92.4794 152.135C91.429 153.44 90.4409 154.791 89.6704 156.284C89.4234 156.763 89.2505 157.281 89.0566 157.787C88.9361 158.102 88.8197 158.417 88.6123 158.688C88.5668 158.747 88.5221 158.808 88.4707 158.861C88.2878 159.054 88.1326 159.059 87.9463 158.865C87.7077 158.617 87.5636 158.314 87.4675 157.987C87.2913 157.385 87.1766 156.768 87.1311 156.144C87.0822 155.475 87.0316 154.802 87.0459 154.132C87.0729 152.873 87.1108 151.613 87.325 150.367C87.4818 149.453 87.7398 148.567 88.0627 147.697C88.7245 145.916 89.6493 144.276 90.7453 142.729C92.1228 140.784 93.5004 138.838 94.8855 136.898C95.9882 135.354 96.9021 133.708 97.5909 131.94C98.1347 130.545 98.5587 129.114 98.8344 127.64C99.046 126.511 99.2247 125.377 99.3023 124.23C99.3335 123.774 99.395 123.318 99.3841 122.863C99.352 121.576 99.3107 120.289 98.9912 119.028C98.6439 117.654 98.0158 116.426 97.1356 115.323C96.9434 115.082 96.7377 114.852 96.5388 114.616C96.4848 114.552 96.419 114.492 96.3828 114.419C96.3541 114.361 96.3314 114.262 96.3609 114.221C96.4241 114.132 96.527 114.155 96.6096 114.215C96.6543 114.248 96.6888 114.293 96.7276 114.334C97.2689 114.916 97.8109 115.496 98.3505 116.079C99.5181 117.341 100.717 118.575 101.842 119.873C103.279 121.529 104.238 123.452 104.779 125.58C104.989 126.406 105.123 127.245 105.207 128.09C105.282 128.842 105.32 129.597 105.374 130.351V130.348Z" fill="url(#paint13_linear_663_923)"/>
</g>
<g filter="url(#filter5_i_663_923)">
<path d="M107.244 131.684C107.45 131.657 107.492 131.791 107.531 131.913C107.659 132.312 107.784 132.713 107.902 133.115C108.23 134.238 108.417 135.387 108.504 136.552C108.54 137.035 108.585 137.517 108.61 138C108.654 138.853 108.563 139.695 108.379 140.527C108.157 141.539 107.937 142.555 107.479 143.492C107.147 144.169 106.778 144.83 106.401 145.485C105.51 147.026 104.442 148.438 103.22 149.733C102.727 150.255 102.239 150.784 101.733 151.294C100.923 152.109 100.088 152.899 99.2864 153.722C98.3159 154.717 97.3699 155.737 96.5646 156.876C95.8392 157.902 95.2243 158.989 94.7685 160.158C94.4156 161.063 94.312 161.999 94.5588 162.955C94.5731 163.009 94.5782 163.066 94.5883 163.12C94.6051 163.209 94.5992 163.306 94.5023 163.329C94.4324 163.346 94.3204 163.335 94.2766 163.29C94.0971 163.103 93.8916 162.919 93.777 162.694C93.2253 161.606 92.8234 160.465 92.6752 159.248C92.5614 158.31 92.5547 157.369 92.6979 156.433C92.8866 155.202 93.3701 154.083 94.1081 153.088C94.5622 152.475 95.0727 151.902 95.568 151.32C96.3051 150.453 97.0447 149.588 97.7953 148.732C98.2317 148.235 98.6942 147.759 99.1406 147.27C99.9763 146.353 100.825 145.447 101.638 144.511C102.469 143.553 103.283 142.578 104.071 141.585C104.775 140.699 105.378 139.742 105.887 138.731C106.531 137.451 107.022 136.115 107.298 134.705C107.399 134.19 107.4 133.667 107.358 133.145C107.323 132.701 107.268 132.257 107.224 131.812C107.22 131.777 107.233 131.741 107.241 131.686L107.244 131.684Z" fill="url(#paint14_linear_663_923)"/>
</g>
</g>
</g>
<defs>
<filter id="filter0_d_663_923" x="-2.98023e-05" y="0" width="240.042" height="243.359" filterUnits="userSpaceOnUse" color-interpolation-filters="sRGB">
<feFlood flood-opacity="0" result="BackgroundImageFix"/>
<feColorMatrix in="SourceAlpha" type="matrix" values="0 0 0 0 0 0 0 0 0 0 0 0 0 0 0 0 0 0 127 0" result="hardAlpha"/>
<feOffset dx="2.53744" dy="5.58238"/>
<feGaussianBlur stdDeviation="2.53744"/>
<feComposite in2="hardAlpha" operator="out"/>
<feColorMatrix type="matrix" values="0 0 0 0 0 0 0 0 0 0 0 0 0 0 0 0 0 0 0.25 0"/>
<feBlend mode="normal" in2="BackgroundImageFix" result="effect1_dropShadow_663_923"/>
<feBlend mode="normal" in="SourceGraphic" in2="effect1_dropShadow_663_923" result="shape"/>
</filter>
<filter id="filter1_dd_663_923" x="70.1529" y="105.935" width="49.0623" height="69.0694" filterUnits="userSpaceOnUse" color-interpolation-filters="sRGB">
<feFlood flood-opacity="0" result="BackgroundImageFix"/>
<feColorMatrix in="SourceAlpha" type="matrix" values="0 0 0 0 0 0 0 0 0 0 0 0 0 0 0 0 0 0 127 0" result="hardAlpha"/>
<feOffset dx="2.38643" dy="3.97738"/>
<feGaussianBlur stdDeviation="1.98869"/>
<feComposite in2="hardAlpha" operator="out"/>
<feColorMatrix type="matrix" values="0 0 0 0 0 0 0 0 0 0 0 0 0 0 0 0 0 0 0.15 0"/>
<feBlend mode="normal" in2="BackgroundImageFix" result="effect1_dropShadow_663_923"/>
<feColorMatrix in="SourceAlpha" type="matrix" values="0 0 0 0 0 0 0 0 0 0 0 0 0 0 0 0 0 0 127 0" result="hardAlpha"/>
<feOffset dx="1.52247" dy="-1.01498"/>
<feGaussianBlur stdDeviation="1.01498"/>
<feComposite in2="hardAlpha" operator="out"/>
<feColorMatrix type="matrix" values="0 0 0 0 0 0 0 0 0 0 0 0 0 0 0 0 0 0 0.17 0"/>
<feBlend mode="normal" in2="effect1_dropShadow_663_923" result="effect2_dropShadow_663_923"/>
<feBlend mode="normal" in="SourceGraphic" in2="effect2_dropShadow_663_923" result="shape"/>
</filter>
<filter id="filter2_n_663_923" x="71.7438" y="108.98" width="41.1075" height="58.0697" filterUnits="userSpaceOnUse" color-interpolation-filters="sRGB">
<feFlood flood-opacity="0" result="BackgroundImageFix"/>
<feBlend mode="normal" in="SourceGraphic" in2="BackgroundImageFix" result="shape"/>
<feTurbulence type="fractalNoise" baseFrequency="3.1427738666534424 3.1427738666534424" stitchTiles="stitch" numOctaves="3" result="noise" seed="3048" />
<feComponentTransfer in="noise" result="coloredNoise1">
<feFuncR type="linear" slope="2" intercept="-0.5" />
<feFuncG type="linear" slope="2" intercept="-0.5" />
<feFuncB type="linear" slope="2" intercept="-0.5" />
<feFuncA type="discrete" tableValues="0 1 1 1 1 1 1 1 1 1 1 1 1 1 1 1 1 1 1 1 1 1 1 1 1 1 1 1 1 1 1 1 1 1 1 1 1 1 1 1 1 1 1 1 1 1 1 1 1 0 0 0 0 0 0 0 0 0 0 0 0 0 0 0 0 0 0 0 0 0 0 0 0 0 0 0 0 0 0 0 0 0 0 0 0 0 0 0 0 0 0 0 0 0 0 0 0 0 0 0 "/>
</feComponentTransfer>
<feComposite operator="in" in2="shape" in="coloredNoise1" result="noise1Clipped" />
<feComponentTransfer in="noise1Clipped" result="color1">
<feFuncA type="table" tableValues="0 0.2" />
</feComponentTransfer>
<feMerge result="effect1_noise_663_923">
<feMergeNode in="shape" />
<feMergeNode in="color1" />
</feMerge>
</filter>
<filter id="filter3_i_663_923" x="75.5445" y="111.794" width="33.0139" height="74.7536" filterUnits="userSpaceOnUse" color-interpolation-filters="sRGB">
<feFlood flood-opacity="0" result="BackgroundImageFix"/>
<feBlend mode="normal" in="SourceGraphic" in2="BackgroundImageFix" result="shape"/>
<feColorMatrix in="SourceAlpha" type="matrix" values="0 0 0 0 0 0 0 0 0 0 0 0 0 0 0 0 0 0 127 0" result="hardAlpha"/>
<feOffset dx="11.5041" dy="23.0081"/>
<feGaussianBlur stdDeviation="23.0081"/>
<feComposite in2="hardAlpha" operator="arithmetic" k2="-1" k3="1"/>
<feColorMatrix type="matrix" values="0 0 0 0 0 0 0 0 0 0.941176 0 0 0 0 1 0 0 0 0.07 0"/>
<feBlend mode="plus-lighter" in2="shape" result="effect1_innerShadow_663_923"/>
</filter>
<filter id="filter4_i_663_923" x="87.0435" y="114.162" width="29.8348" height="67.8542" filterUnits="userSpaceOnUse" color-interpolation-filters="sRGB">
<feFlood flood-opacity="0" result="BackgroundImageFix"/>
<feBlend mode="normal" in="SourceGraphic" in2="BackgroundImageFix" result="shape"/>
<feColorMatrix in="SourceAlpha" type="matrix" values="0 0 0 0 0 0 0 0 0 0 0 0 0 0 0 0 0 0 127 0" result="hardAlpha"/>
<feOffset dx="11.5041" dy="23.0081"/>
<feGaussianBlur stdDeviation="23.0081"/>
<feComposite in2="hardAlpha" operator="arithmetic" k2="-1" k3="1"/>
<feColorMatrix type="matrix" values="0 0 0 0 0 0 0 0 0 0.941176 0 0 0 0 1 0 0 0 0.07 0"/>
<feBlend mode="plus-lighter" in2="shape" result="effect1_innerShadow_663_923"/>
</filter>
<filter id="filter5_i_663_923" x="92.5901" y="131.68" width="27.535" height="54.6642" filterUnits="userSpaceOnUse" color-interpolation-filters="sRGB">
<feFlood flood-opacity="0" result="BackgroundImageFix"/>
<feBlend mode="normal" in="SourceGraphic" in2="BackgroundImageFix" result="shape"/>
<feColorMatrix in="SourceAlpha" type="matrix" values="0 0 0 0 0 0 0 0 0 0 0 0 0 0 0 0 0 0 127 0" result="hardAlpha"/>
<feOffset dx="11.5041" dy="23.0081"/>
<feGaussianBlur stdDeviation="23.0081"/>
<feComposite in2="hardAlpha" operator="arithmetic" k2="-1" k3="1"/>
<feColorMatrix type="matrix" values="0 0 0 0 0 0 0 0 0 0.941176 0 0 0 0 1 0 0 0 0.07 0"/>
<feBlend mode="plus-lighter" in2="shape" result="effect1_innerShadow_663_923"/>
</filter>
<linearGradient id="paint0_linear_663_923" x1="58.7759" y1="80.0745" x2="58.7759" y2="169.621" gradientUnits="userSpaceOnUse">
<stop stop-color="#EECFFE"/>
<stop offset="1" stop-color="#BB6CC9"/>
</linearGradient>
<linearGradient id="paint1_linear_663_923" x1="13.3608" y1="187.702" x2="201.804" y2="187.732" gradientUnits="userSpaceOnUse">
<stop stop-color="#7B337D"/>
<stop offset="1" stop-color="#210535"/>
</linearGradient>
<linearGradient id="paint2_linear_663_923" x1="188.679" y1="187.702" x2="242.373" y2="187.702" gradientUnits="userSpaceOnUse">
<stop stop-color="#210535"/>
<stop offset="1" stop-color="#7B337D"/>
</linearGradient>
<linearGradient id="paint3_linear_663_923" x1="47.378" y1="232.702" x2="163.655" y2="232.862" gradientUnits="userSpaceOnUse">
<stop stop-color="#7B337D"/>
<stop offset="1" stop-color="#210535"/>
</linearGradient>
<linearGradient id="paint4_linear_663_923" x1="160.598" y1="232.702" x2="203.327" y2="232.702" gradientUnits="userSpaceOnUse">
<stop stop-color="#210535"/>
<stop offset="1" stop-color="#7B337D"/>
</linearGradient>
<linearGradient id="paint5_linear_663_923" x1="116.623" y1="72.3256" x2="116.623" y2="127.431" gradientUnits="userSpaceOnUse">
<stop stop-color="#DDCFE4"/>
<stop offset="1" stop-color="#D98EE6"/>
</linearGradient>
<linearGradient id="paint6_linear_663_923" x1="117.484" y1="114.516" x2="117.484" y2="131.736" gradientUnits="userSpaceOnUse">
<stop stop-color="#6F4E70"/>
<stop offset="1" stop-color="#422358"/>
</linearGradient>
<linearGradient id="paint7_linear_663_923" x1="71.7438" y1="55.2855" x2="103.961" y2="27.0461" gradientUnits="userSpaceOnUse">
<stop stop-color="#210535"/>
<stop offset="1" stop-color="#7B337D"/>
</linearGradient>
<linearGradient id="paint8_linear_663_923" x1="148.333" y1="57.4131" x2="116.11" y2="49.3953" gradientUnits="userSpaceOnUse">
<stop stop-color="#210535"/>
<stop offset="1" stop-color="#7B337D"/>
</linearGradient>
<linearGradient id="paint9_linear_663_923" x1="113.609" y1="68.8817" x2="113.609" y2="77.4919" gradientUnits="userSpaceOnUse">
<stop stop-color="#F8F0FC"/>
<stop offset="1" stop-color="#D3B7D8"/>
</linearGradient>
<linearGradient id="paint10_linear_663_923" x1="126.955" y1="0" x2="126.955" y2="47.3561" gradientUnits="userSpaceOnUse">
<stop stop-color="#56205F"/>
<stop offset="1" stop-color="#280636"/>
</linearGradient>
<linearGradient id="paint11_linear_663_923" x1="92.2976" y1="108.98" x2="92.2976" y2="167.05" gradientUnits="userSpaceOnUse">
<stop stop-color="#F8F0FC"/>
<stop offset="1" stop-color="#D3B7D8"/>
</linearGradient>
<linearGradient id="paint12_linear_663_923" x1="86.2994" y1="111.794" x2="86.2994" y2="163.54" gradientUnits="userSpaceOnUse">
<stop stop-color="#986B9C"/>
<stop offset="0.581514" stop-color="#430D4B"/>
<stop offset="1" stop-color="#7B337D"/>
</linearGradient>
<linearGradient id="paint13_linear_663_923" x1="96.2088" y1="114.162" x2="96.2088" y2="159.008" gradientUnits="userSpaceOnUse">
<stop stop-color="#986B9C"/>
<stop offset="0.581514" stop-color="#430D4B"/>
<stop offset="1" stop-color="#7B337D"/>
</linearGradient>
<linearGradient id="paint14_linear_663_923" x1="100.606" y1="131.68" x2="100.606" y2="163.336" gradientUnits="userSpaceOnUse">
<stop stop-color="#986B9C"/>
<stop offset="0.581514" stop-color="#430D4B"/>
<stop offset="1" stop-color="#7B337D"/>
</linearGradient>
</defs>
</svg>
